<?xml version="1.0" encoding="UTF-8" standalone="no"?>
<svg
   xmlns:dc="http://purl.org/dc/elements/1.1/"
   xmlns:cc="http://creativecommons.org/ns#"
   xmlns:rdf="http://www.w3.org/1999/02/22-rdf-syntax-ns#"
   xmlns:svg="http://www.w3.org/2000/svg"
   xmlns="http://www.w3.org/2000/svg"
   xmlns:sodipodi="http://sodipodi.sourceforge.net/DTD/sodipodi-0.dtd"
   xmlns:inkscape="http://www.inkscape.org/namespaces/inkscape"
   width="173.39732mm"
   height="173.39732mm"
   viewBox="0 0 173.39732 173.39732"
   version="1.1"
   id="svg8"
   inkscape:version="1.0.2 (e86c870879, 2021-01-15, custom)"
   sodipodi:docname="RBS_ICON-square CLEAN.svg">
  <defs
     id="defs2" />
  <sodipodi:namedview
     id="base"
     pagecolor="#ffffff"
     bordercolor="#666666"
     borderopacity="1.0"
     inkscape:pageopacity="0.0"
     inkscape:pageshadow="2"
     inkscape:zoom="0.76"
     inkscape:cx="52.971391"
     inkscape:cy="376.11189"
     inkscape:document-units="mm"
     inkscape:current-layer="layer1"
     inkscape:document-rotation="0"
     showgrid="false"
     inkscape:window-width="1908"
     inkscape:window-height="1025"
     inkscape:window-x="1080"
     inkscape:window-y="398"
     inkscape:window-maximized="0" />
  <metadata
     id="metadata5">
    <rdf:RDF>
      <cc:Work
         rdf:about="">
        <dc:format>image/svg+xml</dc:format>
        <dc:type
           rdf:resource="http://purl.org/dc/dcmitype/StillImage" />
        <dc:title></dc:title>
      </cc:Work>
    </rdf:RDF>
  </metadata>
  <g
     inkscape:label="Layer 1"
     inkscape:groupmode="layer"
     id="layer1"
     transform="translate(-20.526334,-45.251945)">
    <g
       id="g100"
       transform="translate(-0.17145035,-14.557435)">
      <path
         style="fill:#fdfdfd;stroke-width:0.0846667"
         d="M 41.695116,146.50804 V 80.806712 h 65.701324 65.70133 v 65.701328 65.70133 H 107.39644 41.695116 Z m 125.433654,0 V 86.775711 H 107.39644 47.664115 l -0.02164,59.647659 c -0.0119,32.80622 -0.0036,59.69532 0.01853,59.75356 0.0321,0.0846 12.027206,0.10163 59.753965,0.0847 l 59.71379,-0.0212 z"
         id="path120" />
      <path
         style="fill:#d3d3d3;stroke-width:0.0846667"
         d="M 41.610449,146.50804 V 80.722045 h 65.785991 65.786 v 65.785995 65.78599 h -65.786 -65.785991 z m 131.487321,0 V 80.806712 H 107.39644 41.695116 v 65.701328 65.70133 h 65.701324 65.70133 z M 47.661013,206.17693 c -0.02209,-0.0582 -0.03043,-26.94734 -0.01853,-59.75356 l 0.02164,-59.647659 h 59.732327 59.73233 v 59.732329 59.73233 l -59.71379,0.0212 c -47.726763,0.017 -59.721865,-3e-5 -59.753969,-0.0847 z M 167.08644,146.50804 V 86.818045 h -59.69 -59.689991 v 59.689995 59.69 h 59.689991 59.69 z"
         id="path118" />
      <path
         style="fill:#fdca55;stroke-width:0.0846667"
         d="m 102.57044,177.15471 c 0,-17.01008 -0.0118,-18.63384 -0.13566,-18.68137 -0.099,-0.038 -3.1766,2.9888 -11.387527,11.19956 l -11.251863,11.25162 -3.386805,-3.38601 c -1.862742,-1.86231 -3.386805,-3.43037 -3.386805,-3.4846 0,-0.0542 6.1722,-6.24415 13.715999,-13.75539 7.543799,-7.51124 13.716001,-13.71541 13.716001,-13.78704 0,-0.0716 -6.181616,-6.31195 -13.736921,-13.86736 l -13.736918,-13.73711 3.386121,-3.38692 c 1.862367,-1.8628 3.411558,-3.37734 3.442646,-3.36565 0.07901,0.0297 7.730559,7.62016 15.800434,15.67422 5.384218,5.37367 6.813838,6.75732 6.877868,6.65671 0.0507,-0.0796 0.0813,-7.04812 0.0821,-18.69016 l 0.001,-18.563166 h 2.39193 2.39194 l 14.05456,14.061336 14.05457,14.06134 -10.5623,10.51316 c -5.80927,5.78224 -10.56224,10.57005 -10.56217,10.63958 8e-5,0.0695 4.75311,4.8576 10.56231,10.64015 l 10.56216,10.51373 -14.05457,14.06135 -14.05456,14.06135 h -2.39194 -2.39193 z m 14.45655,-4.75955 c 2.5264,-2.52608 4.59345,-4.65028 4.59345,-4.72045 0,-0.0702 -2.05355,-2.18088 -4.56345,-4.69047 -3.3126,-3.31215 -4.60062,-4.54861 -4.699,-4.51086 -0.12312,0.0472 -0.13555,0.88621 -0.13555,9.14941 0,5.00357 0.0231,9.15766 0.0514,9.23132 0.0283,0.0737 0.0758,0.13393 0.10554,0.13393 0.0298,0 2.12121,-2.0668 4.64761,-4.59288 z m 0.0101,-42.39385 c 2.52083,-2.48952 4.58332,-4.58515 4.58332,-4.65696 0,-0.0718 -2.07732,-2.20688 -4.61628,-4.7446 -3.6672,-3.66543 -4.63302,-4.58793 -4.6977,-4.48704 -0.0901,0.1405 -0.12069,18.0939 -0.0312,18.32698 0.029,0.0756 0.0811,0.12637 0.11568,0.11276 0.0346,-0.0136 2.1254,-2.06162 4.64623,-4.55114 z m -49.09534,21.37506 -4.867965,-4.86852 4.868333,-4.86833 4.868333,-4.86833 4.867965,4.86852 4.867966,4.86852 -4.868333,4.86833 -4.868333,4.86833 z m 69.17266,0 -4.86797,-4.86852 4.86834,-4.86833 4.86833,-4.86833 4.86797,4.86852 4.86797,4.86852 -4.86834,4.86833 -4.86833,4.86833 z"
         id="path116" />
      <path
         style="fill:#ddb14f;stroke-width:0.0846667"
         d="m 102.48578,177.1997 c 0,-10.26794 -0.0286,-18.66899 -0.0636,-18.66899 -0.035,0 -5.111764,5.04825 -11.281715,11.21833 -6.169951,6.17008 -11.276769,11.21833 -11.348486,11.21833 -0.130934,0 -6.854846,-6.78226 -6.854846,-6.91434 0,-0.0387 6.181681,-6.25223 13.737069,-13.80772 L 100.41125,146.50804 86.674182,132.77078 c -7.555388,-7.5555 -13.737069,-13.79455 -13.737069,-13.86457 0,-0.16597 6.692515,-6.8575 6.858512,-6.8575 0.0697,0 5.155819,5.0292 11.302487,11.176 6.146667,6.1468 11.223438,11.176 11.281708,11.176 0.0845,0 0.10596,-3.7705 0.10596,-18.62667 V 97.147377 h 2.47659 2.4766 l 14.0334,14.033593 c 7.71837,7.71848 14.03341,14.0716 14.03341,14.11804 0,0.0465 -4.75292,4.83748 -10.56204,10.64674 l -10.56204,10.56229 10.56204,10.56229 c 5.80912,5.80926 10.56204,10.60038 10.56204,10.64693 0,0.0465 -6.31512,6.39967 -14.0336,14.11804 l -14.0336,14.0334 h -2.4764 -2.4764 z m 18.92309,4.52299 14.05457,-14.06135 -10.56216,-10.51373 c -5.8092,-5.78255 -10.56223,-10.57062 -10.56231,-10.64015 -7e-5,-0.0695 4.7529,-4.85734 10.56217,-10.63958 l 10.5623,-10.51316 -14.05457,-14.06134 -14.05456,-14.061336 h -2.39194 -2.39193 l -0.001,18.563166 c -8.5e-4,11.64204 -0.0314,18.61051 -0.0821,18.69016 -0.064,0.10061 -1.49365,-1.28304 -6.877867,-6.65671 -8.069876,-8.05406 -15.721424,-15.64449 -15.800435,-15.67422 -0.03109,-0.0117 -1.580279,1.50285 -3.442646,3.36565 l -3.386121,3.38692 13.736918,13.73711 c 7.555305,7.55541 13.736921,13.79572 13.736921,13.86736 0,0.0716 -6.172202,6.2758 -13.716001,13.78704 -7.543799,7.51124 -13.715999,13.70117 -13.715999,13.75539 0,0.0542 1.524063,1.62229 3.386805,3.4846 l 3.386805,3.38601 11.251863,-11.25162 c 8.210927,-8.21076 11.288527,-11.23755 11.387527,-11.19956 0.12387,0.0475 0.13566,1.67129 0.13566,18.68137 v 18.62933 h 2.39193 2.39194 z m -9.13503,-4.86858 c -0.0283,-0.0737 -0.0514,-4.22775 -0.0514,-9.23132 0,-8.2632 0.0124,-9.10217 0.13555,-9.14941 0.0984,-0.0377 1.3864,1.19871 4.699,4.51086 2.5099,2.50959 4.56345,4.62029 4.56345,4.69047 0,0.11913 -9.12286,9.31333 -9.24106,9.31333 -0.0298,0 -0.0773,-0.0603 -0.10554,-0.13393 z m 4.75314,-4.54361 c 2.47984,-2.47951 4.5088,-4.5463 4.5088,-4.59288 0,-0.0971 -9.06796,-9.18691 -9.16487,-9.18691 -0.0351,0 -0.0638,4.1148 -0.0638,9.144 0,7.24517 0.0219,9.14399 0.10554,9.14399 0.058,0 2.13449,-2.02869 4.61433,-4.5082 z m -4.75177,-37.87081 c -0.0894,-0.23308 -0.0588,-18.18648 0.0312,-18.32698 0.0647,-0.10089 1.0305,0.82161 4.6977,4.48704 2.53896,2.53772 4.61628,4.67279 4.61628,4.7446 0,0.11035 -9.04696,9.13628 -9.22955,9.2081 -0.0346,0.0136 -0.0867,-0.0371 -0.11568,-0.11276 z m 4.75177,-4.54719 c 2.47984,-2.47951 4.5088,-4.5463 4.5088,-4.59287 0,-0.12456 -8.9977,-9.10225 -9.12254,-9.10225 -0.0844,0 -0.10613,1.8632 -0.10613,9.10166 0,7.21137 0.0219,9.10167 0.10554,9.10167 0.058,0 2.13449,-2.02869 4.61433,-4.50821 z m -49.127624,21.52611 -4.91021,-4.91076 4.931557,-4.93155 4.931558,-4.93156 4.868426,4.86787 c 2.677634,2.67733 4.868426,4.92528 4.868426,4.99543 0,0.11137 -9.626795,9.82133 -9.737214,9.82133 -0.02328,0 -2.251928,-2.20984 -4.952543,-4.91076 z m 9.77909,-9.7789 -4.867965,-4.86852 -4.868333,4.86833 -4.868333,4.86833 4.867965,4.86852 4.867966,4.86852 4.868333,-4.86833 4.868333,-4.86833 z m 59.394484,9.86375 c -2.67803,-2.67654 -4.86915,-4.92447 -4.86915,-4.99542 0,-0.0709 2.19112,-2.31889 4.86915,-4.99542 l 4.86915,-4.86642 4.93092,4.93092 4.93093,4.93092 -4.93093,4.93092 -4.93092,4.93092 z m 9.77818,-9.86375 -4.86797,-4.86852 -4.86833,4.86833 -4.86834,4.86833 4.86797,4.86852 4.86797,4.86852 4.86833,-4.86833 4.86834,-4.86833 z"
         id="path114" />
      <path
         style="fill:#828282;stroke-width:0.0846667"
         d="m 74.524613,212.3152 c 18.079507,-0.0118 47.664157,-0.0118 65.743657,0 18.07951,0.0118 3.28719,0.0214 -32.87183,0.0214 -36.15901,0 -50.951334,-0.01 -32.871827,-0.0214 z M 41.567899,146.50804 c 0,-36.15901 0.0096,-50.951338 0.02138,-32.87183 0.01176,18.07951 0.01176,47.66415 0,65.74366 -0.01176,18.07951 -0.02138,3.28718 -0.02138,-32.87183 z m 131.656651,0 c 0,-36.15901 0.01,-50.951338 0.0214,-32.87183 0.0118,18.07951 0.0118,47.66415 0,65.74366 -0.0118,18.07951 -0.0214,3.28718 -0.0214,-32.87183 z M 74.524613,80.658545 c 18.079507,-0.01176 47.664157,-0.01176 65.743657,0 18.07951,0.01176 3.28719,0.02138 -32.87183,0.02138 -36.15901,0 -50.951334,-0.0096 -32.871827,-0.02138 z"
         id="path112" />
      <path
         style="fill:#ad8c46;stroke-width:0.0846667"
         d="m 102.45756,195.89692 c -0.0311,-0.031 -0.0564,-8.43434 -0.0564,-18.67399 0,-14.0512 -0.024,-18.60273 -0.0978,-18.55714 -0.0606,0.0374 -0.0748,0.0232 -0.0373,-0.0373 0.0332,-0.0538 0.0963,-0.0977 0.14008,-0.0977 0.0495,0 0.0797,7.05955 0.0797,18.66772 v 18.66772 l 2.4765,0.0238 2.4765,0.0238 -2.46239,0.0198 c -1.35432,0.0109 -2.48779,-0.006 -2.51883,-0.0366 z m 5.40455,-0.45155 c 0.18188,-0.18627 0.34975,-0.33867 0.37303,-0.33867 0.0233,0 -0.10648,0.1524 -0.28836,0.33867 -0.18188,0.18627 -0.34975,0.33867 -0.37304,0.33867 -0.0233,0 0.10649,-0.1524 0.28837,-0.33867 z m 1.10067,-1.10067 c 0.22933,-0.23283 0.43601,-0.42333 0.4593,-0.42333 0.0233,0 -0.14531,0.1905 -0.37464,0.42333 -0.22932,0.23284 -0.43601,0.42334 -0.4593,0.42334 -0.0233,0 0.14531,-0.1905 0.37464,-0.42334 z m 1.18533,-1.18533 c 0.22933,-0.23283 0.43602,-0.42333 0.4593,-0.42333 0.0233,0 -0.1453,0.1905 -0.37463,0.42333 -0.22933,0.23283 -0.43602,0.42333 -0.4593,0.42333 -0.0233,0 0.1453,-0.1905 0.37463,-0.42333 z m 1.18533,-1.18533 c 0.22933,-0.23284 0.43602,-0.42334 0.4593,-0.42334 0.0233,0 -0.1453,0.1905 -0.37463,0.42334 -0.22933,0.23283 -0.43602,0.42333 -0.4593,0.42333 -0.0233,0 0.14531,-0.1905 0.37463,-0.42333 z m 1.18534,-1.18534 c 0.22933,-0.23283 0.43601,-0.42333 0.4593,-0.42333 0.0233,0 -0.14531,0.1905 -0.37464,0.42333 -0.22932,0.23284 -0.43601,0.42334 -0.4593,0.42334 -0.0233,0 0.14531,-0.1905 0.37464,-0.42334 z m 1.18533,-1.18533 c 0.22933,-0.23283 0.43602,-0.42333 0.4593,-0.42333 0.0233,0 -0.14531,0.1905 -0.37463,0.42333 -0.22933,0.23283 -0.43602,0.42333 -0.4593,0.42333 -0.0233,0 0.1453,-0.1905 0.37463,-0.42333 z m 1.18533,-1.18533 c 0.22933,-0.23284 0.43602,-0.42334 0.4593,-0.42334 0.0233,0 -0.1453,0.1905 -0.37463,0.42334 -0.22933,0.23283 -0.43602,0.42333 -0.4593,0.42333 -0.0233,0 0.14531,-0.1905 0.37463,-0.42333 z m 1.18534,-1.18534 c 0.22932,-0.23283 0.43601,-0.42333 0.4593,-0.42333 0.0233,0 -0.14531,0.1905 -0.37464,0.42333 -0.22932,0.23284 -0.43601,0.42334 -0.4593,0.42334 -0.0233,0 0.14531,-0.1905 0.37464,-0.42334 z m 1.18533,-1.18533 c 0.22933,-0.23283 0.43602,-0.42333 0.4593,-0.42333 0.0233,0 -0.14531,0.1905 -0.37463,0.42333 -0.22933,0.23283 -0.43602,0.42333 -0.4593,0.42333 -0.0233,0 0.1453,-0.1905 0.37463,-0.42333 z m 1.18533,-1.18533 c 0.22933,-0.23284 0.43602,-0.42334 0.4593,-0.42334 0.0233,0 -0.1453,0.1905 -0.37463,0.42334 -0.22933,0.23283 -0.43602,0.42333 -0.4593,0.42333 -0.0233,0 0.14531,-0.1905 0.37463,-0.42333 z m 1.18534,-1.18534 c 0.22932,-0.23283 0.43601,-0.42333 0.4593,-0.42333 0.0233,0 -0.14531,0.1905 -0.37464,0.42333 -0.22933,0.23284 -0.43601,0.42334 -0.4593,0.42334 -0.0233,0 0.14531,-0.1905 0.37464,-0.42334 z m 1.18533,-1.18533 c 0.22933,-0.23283 0.43602,-0.42333 0.4593,-0.42333 0.0233,0 -0.14531,0.1905 -0.37463,0.42333 -0.22933,0.23283 -0.43602,0.42333 -0.4593,0.42333 -0.0233,0 0.1453,-0.1905 0.37463,-0.42333 z m 1.18533,-1.18533 c 0.22933,-0.23284 0.43602,-0.42334 0.4593,-0.42334 0.0233,0 -0.1453,0.1905 -0.37463,0.42334 -0.22933,0.23283 -0.43602,0.42333 -0.4593,0.42333 -0.0233,0 0.1453,-0.1905 0.37463,-0.42333 z m -42.843977,-0.78317 -0.50535,-0.52917 0.508,0.47692 c 0.2794,0.26232 0.56515,0.49743 0.635,0.52249 0.111085,0.0399 0.110753,0.0464 -0.0027,0.0522 -0.07131,0.004 -0.357058,-0.23145 -0.635,-0.52249 z m 44.029317,-0.40217 c 0.22932,-0.23283 0.43601,-0.42333 0.4593,-0.42333 0.0233,0 -0.14531,0.1905 -0.37464,0.42333 -0.22933,0.23284 -0.43601,0.42334 -0.4593,0.42334 -0.0233,0 0.14531,-0.1905 0.37464,-0.42334 z m 1.18533,-1.18533 c 0.22933,-0.23283 0.43602,-0.42333 0.4593,-0.42333 0.0233,0 -0.14531,0.1905 -0.37463,0.42333 -0.22933,0.23283 -0.43602,0.42333 -0.4593,0.42333 -0.0233,0 0.1453,-0.1905 0.37463,-0.42333 z m -49.382452,-2.64644 c -1.175467,-1.17615 -2.137211,-2.17632 -2.137211,-2.22263 0,-0.0463 4.829174,-4.90377 10.731499,-10.79439 l 10.731499,-10.7102 -10.689166,10.71046 c -5.879041,5.89075 -10.689166,10.74822 -10.689166,10.79439 0,0.0462 0.961745,1.04622 2.137211,2.22237 1.175466,1.17615 2.11816,2.13844 2.094877,2.13844 -0.02328,0 -1.004078,-0.96229 -2.179543,-2.13844 z m 50.567782,1.46111 c 0.22933,-0.23284 0.43602,-0.42334 0.4593,-0.42334 0.0233,0 -0.1453,0.1905 -0.37463,0.42334 -0.22933,0.23283 -0.43602,0.42333 -0.4593,0.42333 -0.0233,0 0.1453,-0.1905 0.37463,-0.42333 z m 1.18534,-1.18534 c 0.22932,-0.23283 0.43601,-0.42333 0.4593,-0.42333 0.0233,0 -0.14531,0.1905 -0.37464,0.42333 -0.22933,0.23284 -0.43601,0.42334 -0.4593,0.42334 -0.0233,0 0.14531,-0.1905 0.37464,-0.42334 z m -14.43567,-8.88999 c 0,-5.0292 0.0286,-9.144 0.0635,-9.14401 0.0349,0 0.0536,4.09575 0.0416,9.10166 -0.0121,5.00593 0.007,9.10168 0.042,9.10168 0.0352,0 2.10244,-2.02883 4.59392,-4.5085 l 4.52996,-4.5085 -4.52937,4.55083 c -2.49116,2.50296 -4.57713,4.55083 -4.6355,4.55083 -0.0844,0 -0.10613,-1.8716 -0.10613,-9.14399 z m 15.621,7.70466 c 0.22933,-0.23283 0.43602,-0.42333 0.4593,-0.42333 0.0233,0 -0.14531,0.1905 -0.37463,0.42333 -0.22933,0.23283 -0.43602,0.42333 -0.4593,0.42333 -0.0233,0 0.1453,-0.1905 0.37463,-0.42333 z m 1.18533,-1.18533 c 0.22933,-0.23284 0.43602,-0.42334 0.4593,-0.42334 0.0233,0 -0.1453,0.1905 -0.37463,0.42334 -0.22933,0.23283 -0.43602,0.42333 -0.4593,0.42333 -0.0233,0 0.1453,-0.1905 0.37463,-0.42333 z m 1.18534,-1.18534 c 0.22932,-0.23283 0.43601,-0.42333 0.4593,-0.42333 0.0233,0 -0.14531,0.1905 -0.37464,0.42333 -0.22933,0.23284 -0.43601,0.42334 -0.4593,0.42334 -0.0233,0 0.14531,-0.1905 0.37464,-0.42334 z m 1.18533,-1.18533 c 0.22933,-0.23283 0.43602,-0.42333 0.4593,-0.42333 0.0233,0 -0.14531,0.1905 -0.37463,0.42333 -0.22933,0.23283 -0.43602,0.42333 -0.4593,0.42333 -0.0233,0 0.1453,-0.1905 0.37463,-0.42333 z m 1.18533,-1.18533 c 0.22933,-0.23284 0.43602,-0.42334 0.4593,-0.42334 0.0233,0 -0.1453,0.1905 -0.37463,0.42334 -0.22933,0.23283 -0.43602,0.42333 -0.4593,0.42333 -0.0233,0 0.1453,-0.1905 0.37463,-0.42333 z m 1.18534,-1.18534 c 0.22932,-0.23283 0.43601,-0.42333 0.45929,-0.42333 0.0233,0 -0.1453,0.1905 -0.37463,0.42333 -0.22933,0.23284 -0.43601,0.42334 -0.4593,0.42334 -0.0233,0 0.14531,-0.1905 0.37464,-0.42334 z m 1.13946,-1.12183 c 0.35085,-0.37382 0.42687,-0.44104 0.42687,-0.37746 0,0.0136 -0.18098,0.19456 -0.40217,0.40217 l -0.40216,0.37746 z m -8.16659,-9.37683 -8.72047,-8.763 8.75924,8.73833 c 4.81759,4.80608 8.74179,8.74943 8.72047,8.763 -0.0213,0.0136 -3.96299,-3.91868 -8.75924,-8.73833 z m -59.012961,-7.53543 -4.91021,-4.91076 4.952725,-4.93173 4.952726,-4.93175 -4.910301,4.93184 -4.9103,4.93183 4.910118,4.91067 c 2.700565,2.70086 4.891069,4.91066 4.867785,4.91066 -0.02328,0 -2.251927,-2.20984 -4.952543,-4.91076 z m 79.078561,0.0213 4.91031,-4.93183 -4.91031,-4.93183 -4.91029,-4.93184 4.95281,4.93184 4.95283,4.93183 -4.95283,4.93183 -4.95281,4.93184 z m -73.194137,4.08517 c 0.299993,-0.30268 0.564492,-0.55033 0.587775,-0.55033 0.02328,0 -0.203115,0.24765 -0.503108,0.55033 -0.299993,0.30268 -0.564491,0.55033 -0.587775,0.55033 -0.02328,0 0.203116,-0.24765 0.503108,-0.55033 z m 67.303587,-0.0212 -0.20526,-0.23283 0.23283,0.20526 c 0.21762,0.19184 0.27167,0.26041 0.20526,0.26041 -0.0152,0 -0.11994,-0.10478 -0.23283,-0.23284 z m -66.118254,-1.16416 c 0.299993,-0.30269 0.564492,-0.55034 0.587775,-0.55034 0.02328,0 -0.203115,0.24765 -0.503108,0.55034 -0.299992,0.30268 -0.564491,0.55033 -0.587774,0.55033 -0.02328,0 0.203115,-0.24765 0.503107,-0.55033 z m 64.932924,-0.0212 -0.20526,-0.23283 0.23283,0.20525 c 0.12806,0.1129 0.23283,0.21767 0.23283,0.23284 0,0.0664 -0.0686,0.0124 -0.2604,-0.20526 z m -63.74759,-1.16417 c 0.299992,-0.30268 0.564491,-0.55033 0.587774,-0.55033 0.02328,0 -0.203115,0.24765 -0.503108,0.55033 -0.299992,0.30269 -0.564491,0.55034 -0.587774,0.55034 -0.02328,0 0.203115,-0.24765 0.503108,-0.55034 z m 62.56225,-0.0212 -0.20526,-0.23284 0.23284,0.20526 c 0.12806,0.11289 0.23283,0.21767 0.23283,0.23283 0,0.0664 -0.0686,0.0124 -0.26041,-0.20525 z m -61.376917,-1.16417 c 0.299993,-0.30268 0.564491,-0.55033 0.587775,-0.55033 0.02328,0 -0.203116,0.24765 -0.503108,0.55033 -0.299993,0.30268 -0.564492,0.55033 -0.587775,0.55033 -0.02328,0 0.203115,-0.24765 0.503108,-0.55033 z m 17.652999,-0.0423 c 0.229332,-0.23284 0.436018,-0.42334 0.459301,-0.42334 0.02328,0 -0.145302,0.1905 -0.374635,0.42334 -0.229332,0.23283 -0.436018,0.42333 -0.459301,0.42333 -0.02328,0 0.145302,-0.1905 0.374635,-0.42333 z m 42.538588,0.0212 -0.20526,-0.23283 0.23284,0.20526 c 0.21761,0.19184 0.27166,0.26041 0.20525,0.26041 -0.0152,0 -0.11994,-0.10478 -0.23283,-0.23284 z m -59.006254,-1.16416 c 0.299993,-0.30269 0.564491,-0.55034 0.587775,-0.55034 0.02328,0 -0.203116,0.24765 -0.503108,0.55034 -0.299993,0.30268 -0.564491,0.55033 -0.587775,0.55033 -0.02328,0 0.203116,-0.24765 0.503108,-0.55033 z m 17.691794,-0.0635 c 0.350855,-0.37382 0.426871,-0.44104 0.426871,-0.37746 0,0.0136 -0.180974,0.19456 -0.402166,0.40216 l -0.402167,0.37746 z m 40.12913,0.0423 -0.20526,-0.23283 0.23283,0.20525 c 0.12806,0.1129 0.23284,0.21767 0.23284,0.23284 0,0.0664 -0.0686,0.0124 -0.26041,-0.20526 z m -56.635591,-1.16417 c 0.299993,-0.30268 0.564492,-0.55033 0.587775,-0.55033 0.02328,0 -0.203115,0.24765 -0.503108,0.55033 -0.299992,0.30269 -0.564491,0.55034 -0.587774,0.55034 -0.02328,0 0.203115,-0.24765 0.503107,-0.55034 z m 37.758431,-0.10583 -0.46277,-0.48683 0.48684,0.46277 c 0.45228,0.42993 0.52562,0.51089 0.46277,0.51089 -0.0132,0 -0.2323,-0.21907 -0.48684,-0.48683 z m -20.401765,0.37567 c 0,-0.0146 0.123825,-0.13839 0.275166,-0.27516 l 0.275167,-0.24868 -0.248674,0.27517 c -0.231798,0.2565 -0.301659,0.31409 -0.301659,0.24867 z m 38.093585,-0.291 -0.20525,-0.23284 0.23283,0.20526 c 0.21762,0.19185 0.27166,0.26041 0.20526,0.26041 -0.0152,0 -0.11994,-0.10478 -0.23284,-0.23283 z m -54.264917,-1.16417 c 0.299992,-0.30268 0.564491,-0.55033 0.587774,-0.55033 0.02328,0 -0.203115,0.24765 -0.503108,0.55033 -0.299992,0.30268 -0.564491,0.55033 -0.587774,0.55033 -0.02328,0 0.203115,-0.24765 0.503108,-0.55033 z m 35.386107,-0.10583 -0.29178,-0.3175 0.3175,0.29177 c 0.29552,0.27158 0.35643,0.34323 0.29178,0.34323 -0.0142,0 -0.15702,-0.14288 -0.3175,-0.3175 z m 17.69348,0.0847 -0.20526,-0.23283 0.23284,0.20526 c 0.12805,0.11289 0.23283,0.21767 0.23283,0.23283 0,0.0664 -0.0686,0.0124 -0.26041,-0.20526 z m -51.936587,-1.12183 c 0.276485,-0.2794 0.521749,-0.508 0.545032,-0.508 0.02328,0 -0.183881,0.2286 -0.460366,0.508 -0.276485,0.2794 -0.521749,0.508 -0.545032,0.508 -0.02328,0 0.183881,-0.2286 0.460366,-0.508 z m 50.751257,-0.0635 -0.20526,-0.23283 0.23283,0.20525 c 0.12806,0.1129 0.23284,0.21767 0.23284,0.23284 0,0.0664 -0.0686,0.0124 -0.26041,-0.20526 z m -17.69534,-0.0847 -0.20525,-0.23283 0.23283,0.20526 c 0.21762,0.19184 0.27166,0.26041 0.20526,0.26041 -0.0152,0 -0.11994,-0.10478 -0.23284,-0.23284 z m -33.058567,-1.397 -0.50535,-0.52916 0.529166,0.50535 c 0.491551,0.46942 0.56791,0.55298 0.50535,0.55298 -0.0131,0 -0.251224,-0.23812 -0.529166,-0.52917 z m 33.107317,0.10584 c 0.0843,-0.0931 0.17229,-0.16934 0.19558,-0.16934 0.0233,0 -0.0266,0.0762 -0.11092,0.16934 -0.0843,0.0931 -0.17229,0.16933 -0.19558,0.16933 -0.0233,0 0.0266,-0.0762 0.11092,-0.16933 z m 17.653,-0.0423 c 0.10936,-0.11641 0.21789,-0.21166 0.24118,-0.21166 0.0233,0 -0.0471,0.0953 -0.15652,0.21166 -0.10936,0.11642 -0.2179,0.21167 -0.24118,0.21167 -0.0233,0 0.0471,-0.0953 0.15652,-0.21167 z m -51.903113,-1.2065 -0.547888,-0.5715 0.5715,0.54789 c 0.314325,0.30134 0.5715,0.55851 0.5715,0.5715 0,0.0623 -0.08621,-0.0171 -0.595112,-0.54789 z m 35.393113,0.10584 c 0.15797,-0.16299 0.30626,-0.29634 0.32954,-0.29634 0.0233,0 -0.0869,0.13335 -0.24488,0.29634 -0.15797,0.16298 -0.30626,0.29633 -0.32954,0.29633 -0.0233,0 0.0869,-0.13335 0.24488,-0.29633 z m 17.69533,-0.0847 c 0.10936,-0.11642 0.2179,-0.21167 0.24118,-0.21167 0.0233,0 -0.0472,0.0952 -0.15651,0.21167 -0.10937,0.11642 -0.2179,0.21167 -0.24119,0.21167 -0.0233,0 0.0472,-0.0952 0.15652,-0.21167 z m -54.273777,-1.2065 -0.547887,-0.5715 0.5715,0.54789 c 0.314325,0.30134 0.5715,0.55851 0.5715,0.5715 0,0.0623 -0.08621,-0.0171 -0.595113,-0.54789 z m 37.806107,0.0635 c 0.22933,-0.23283 0.43602,-0.42333 0.4593,-0.42333 0.0233,0 -0.1453,0.1905 -0.37463,0.42333 -0.22933,0.23283 -0.43602,0.42333 -0.4593,0.42333 -0.0233,0 0.14531,-0.1905 0.37463,-0.42333 z m 17.653,-0.0423 c 0.10937,-0.11642 0.2179,-0.21167 0.24118,-0.21167 0.0233,0 -0.0472,0.0952 -0.15651,0.21167 -0.10937,0.11641 -0.2179,0.21166 -0.24118,0.21166 -0.0233,0 0.0472,-0.0952 0.15651,-0.21166 z m -56.64444,-1.2065 -0.547887,-0.5715 0.5715,0.54788 c 0.314325,0.30134 0.5715,0.55852 0.5715,0.5715 0,0.0623 -0.08621,-0.017 -0.595113,-0.54788 z m 48.38965,-8.14917 c 4.79625,-4.81965 8.73791,-8.7519 8.75924,-8.73833 0.0213,0.0136 -3.90288,3.95692 -8.72047,8.763 l -8.75924,8.73833 z m 9.44013,8.17033 c 0.10936,-0.11641 0.21789,-0.21166 0.24118,-0.21166 0.0233,0 -0.0471,0.0952 -0.15652,0.21166 -0.10936,0.11642 -0.2179,0.21167 -0.24118,0.21167 -0.0233,0 0.0472,-0.0952 0.15652,-0.21167 z m -59.015113,-1.2065 -0.547887,-0.5715 0.5715,0.54789 c 0.314325,0.30134 0.5715,0.55851 0.5715,0.5715 0,0.0623 -0.08621,-0.017 -0.595113,-0.54789 z m 60.200443,0.0212 c 0.10936,-0.11642 0.2179,-0.21167 0.24118,-0.21167 0.0233,0 -0.0471,0.0952 -0.15651,0.21167 -0.10937,0.11642 -0.2179,0.21167 -0.24119,0.21167 -0.0233,0 0.0471,-0.0953 0.15652,-0.21167 z m -61.385776,-1.2065 -0.547888,-0.5715 0.5715,0.54789 c 0.530834,0.5089 0.610204,0.59511 0.547888,0.59511 -0.01299,0 -0.270162,-0.25717 -0.5715,-0.5715 z m 62.571106,0.0212 c 0.10937,-0.11642 0.2179,-0.21167 0.24118,-0.21167 0.0233,0 -0.0471,0.0953 -0.15651,0.21167 -0.10937,0.11641 -0.2179,0.21166 -0.24118,0.21166 -0.0233,0 0.0471,-0.0953 0.15651,-0.21166 z m -63.75644,-1.2065 -0.547887,-0.5715 0.5715,0.54788 c 0.314325,0.30134 0.5715,0.55852 0.5715,0.5715 0,0.0623 -0.08621,-0.0171 -0.595113,-0.54788 z m 64.94177,0.0212 c 0.10937,-0.11641 0.2179,-0.21166 0.24119,-0.21166 0.0233,0 -0.0472,0.0952 -0.15652,0.21166 -0.10936,0.11642 -0.2179,0.21167 -0.24118,0.21167 -0.0233,0 0.0471,-0.0952 0.15651,-0.21167 z m -66.127103,-1.2065 -0.547887,-0.5715 0.5715,0.54789 c 0.530834,0.5089 0.610204,0.59511 0.547887,0.59511 -0.01299,0 -0.270162,-0.25717 -0.5715,-0.5715 z m 67.312443,0.0212 c 0.10936,-0.11642 0.2179,-0.21167 0.24118,-0.21167 0.0233,0 -0.0472,0.0952 -0.15652,0.21167 -0.10936,0.11642 -0.21789,0.21167 -0.24118,0.21167 -0.0233,0 0.0472,-0.0952 0.15652,-0.21167 z m -48.006143,-12.3825 -9.270855,-9.29216 9.271144,9.24983 c 5.099129,5.08741 9.299564,9.24983 9.334314,9.24983 0.0347,0 0.0728,-8.37247 0.0845,-18.6055 l 0.0213,-18.605496 2.45534,-0.0019 2.45533,-0.0019 -2.43417,0.02436 -2.43416,0.02436 v 18.625386 c 0,14.85745 -0.0214,18.62539 -0.10598,18.62539 -0.0583,0 -4.277863,-4.18148 -9.376833,-9.29217 z m 19.304143,0.1905 c 0,-7.23846 0.0217,-9.10166 0.10613,-9.10166 0.0584,0 2.14434,2.04787 4.6355,4.55083 l 4.52937,4.55083 -4.52996,-4.5085 c -2.49148,-2.47967 -4.55841,-4.5085 -4.59317,-4.5085 -0.0348,0 -0.0632,4.05765 -0.0632,9.017 0,4.95935 0.0284,9.017 0.0632,9.017 0.0347,0 1.8159,-1.74307 3.95816,-3.8735 l 3.89501,-3.8735 -3.89432,3.91583 c -2.14188,2.15371 -3.9421,3.91584 -4.0005,3.91584 -0.0845,0 -0.10618,-1.861 -0.10618,-9.10167 z m 9.14391,-14.1605 -14.01224,-14.033496 14.0335,14.012236 c 7.71842,7.70673 14.0335,14.0218 14.0335,14.0335 0,0.0117 -0.01,0.0213 -0.0213,0.0213 -0.0117,0 -6.32678,-6.31507 -14.0335,-14.0335 z m -48.591889,7.76778 c -0.0099,-0.18807 6.804793,-6.97355 6.946857,-6.91711 0.0917,0.0364 0.08932,0.0475 -0.01127,0.0528 -0.140159,0.007 -6.811837,6.66028 -6.884042,6.86469 -0.03978,0.11261 -0.04562,0.11257 -0.05154,-4.2e-4 z m 10.150423,-3.78844 -0.462775,-0.48684 0.486834,0.46278 c 0.267758,0.25452 0.486833,0.4736 0.486833,0.48683 0,0.0628 -0.08096,-0.0105 -0.510892,-0.46277 z m -1.186999,-1.18534 -0.291776,-0.3175 0.3175,0.29178 c 0.174625,0.16047 0.3175,0.30335 0.3175,0.3175 0,0.0647 -0.07165,0.004 -0.343224,-0.29178 z m -1.187184,-1.18533 -0.205258,-0.23283 0.232833,0.20525 c 0.128058,0.1129 0.232833,0.21767 0.232833,0.23284 0,0.0664 -0.06856,0.0124 -0.260408,-0.20526 z"
         id="path110" />
      <path
         style="fill:#907642;stroke-width:0.0846667"
         d="m 108.37011,194.93737 c 0.0843,-0.0931 0.1723,-0.16933 0.19558,-0.16933 0.0233,0 -0.0266,0.0762 -0.11091,0.16933 -0.0843,0.0931 -0.1723,0.16933 -0.19558,0.16933 -0.0233,0 0.0266,-0.0762 0.11091,-0.16933 z m 1.18533,-1.18533 c 0.0843,-0.0931 0.1723,-0.16934 0.19558,-0.16934 0.0233,0 -0.0266,0.0762 -0.11091,0.16934 -0.0843,0.0931 -0.1723,0.16933 -0.19558,0.16933 -0.0233,0 0.0266,-0.0762 0.11091,-0.16933 z m 1.18534,-1.18534 c 0.0843,-0.0931 0.17229,-0.16933 0.19558,-0.16933 0.0233,0 -0.0266,0.0762 -0.11092,0.16933 -0.0843,0.0931 -0.17229,0.16934 -0.19558,0.16934 -0.0233,0 0.0266,-0.0762 0.11092,-0.16934 z m 1.18533,-1.18533 c 0.0843,-0.0931 0.1723,-0.16933 0.19558,-0.16933 0.0233,0 -0.0266,0.0762 -0.11091,0.16933 -0.0843,0.0931 -0.1723,0.16933 -0.19558,0.16933 -0.0233,0 0.0266,-0.0762 0.11091,-0.16933 z m 1.18533,-1.18533 c 0.0843,-0.0931 0.1723,-0.16934 0.19558,-0.16934 0.0233,0 -0.0266,0.0762 -0.11091,0.16934 -0.0843,0.0931 -0.1723,0.16933 -0.19558,0.16933 -0.0233,0 0.0266,-0.0762 0.11091,-0.16933 z m 1.18534,-1.18534 c 0.0843,-0.0931 0.17229,-0.16933 0.19558,-0.16933 0.0233,0 -0.0266,0.0762 -0.11092,0.16933 -0.0843,0.0931 -0.17229,0.16934 -0.19558,0.16934 -0.0233,0 0.0266,-0.0762 0.11092,-0.16934 z m 1.18533,-1.18533 c 0.0843,-0.0931 0.1723,-0.16933 0.19558,-0.16933 0.0233,0 -0.0266,0.0762 -0.11091,0.16933 -0.0843,0.0931 -0.1723,0.16933 -0.19558,0.16933 -0.0233,0 0.0266,-0.0762 0.11091,-0.16933 z m 1.18533,-1.18533 c 0.0843,-0.0931 0.1723,-0.16934 0.19558,-0.16934 0.0233,0 -0.0266,0.0762 -0.11091,0.16934 -0.0843,0.0931 -0.1723,0.16933 -0.19558,0.16933 -0.0233,0 0.0266,-0.0762 0.11091,-0.16933 z m 1.18534,-1.18534 c 0.0843,-0.0931 0.17229,-0.16933 0.19558,-0.16933 0.0233,0 -0.0266,0.0762 -0.11092,0.16933 -0.0843,0.0931 -0.17229,0.16934 -0.19558,0.16934 -0.0233,0 0.0266,-0.0762 0.11092,-0.16934 z m 1.18533,-1.18533 c 0.0843,-0.0931 0.1723,-0.16933 0.19558,-0.16933 0.0233,0 -0.0266,0.0762 -0.11091,0.16933 -0.0843,0.0931 -0.1723,0.16933 -0.19558,0.16933 -0.0233,0 0.0266,-0.0762 0.11091,-0.16933 z m 1.18533,-1.18533 c 0.0843,-0.0931 0.1723,-0.16934 0.19558,-0.16934 0.0233,0 -0.0266,0.0762 -0.11091,0.16934 -0.0843,0.0931 -0.1723,0.16933 -0.19558,0.16933 -0.0233,0 0.0266,-0.0762 0.11091,-0.16933 z m 1.18534,-1.18534 c 0.0843,-0.0931 0.17229,-0.16933 0.19558,-0.16933 0.0233,0 -0.0266,0.0762 -0.11092,0.16933 -0.0843,0.0931 -0.17229,0.16934 -0.19558,0.16934 -0.0233,0 0.0266,-0.0762 0.11092,-0.16934 z m -41.687811,-0.78316 c 0.02131,-0.0116 5.104485,-5.06942 11.295944,-11.2395 L 102.27411,158.65771 91.055899,169.8972 c -6.170018,6.18173 -11.253192,11.2395 -11.295944,11.2395 -0.04275,0 -0.0603,-0.01 -0.03899,-0.0212 z m 42.873141,-0.40217 c 0.0843,-0.0931 0.1723,-0.16933 0.19558,-0.16933 0.0233,0 -0.0266,0.0762 -0.11091,0.16933 -0.0843,0.0931 -0.1723,0.16933 -0.19558,0.16933 -0.0233,0 0.0266,-0.0762 0.11091,-0.16933 z m -46.863457,-3.6195 -2.92054,-2.94217 2.942167,2.92055 c 2.734413,2.71431 2.980252,2.96379 2.920539,2.96379 -0.01189,0 -1.335869,-1.32398 -2.942166,-2.94217 z m 48.048787,2.43417 c 0.0843,-0.0931 0.1723,-0.16934 0.19558,-0.16934 0.0233,0 -0.0266,0.0762 -0.11091,0.16934 -0.0843,0.0931 -0.1723,0.16933 -0.19558,0.16933 -0.0233,0 0.0266,-0.0762 0.11091,-0.16933 z m 1.18534,-1.18534 c 0.0843,-0.0931 0.17229,-0.16933 0.19558,-0.16933 0.0233,0 -0.0266,0.0762 -0.11092,0.16933 -0.0843,0.0931 -0.17229,0.16934 -0.19558,0.16934 -0.0233,0 0.0266,-0.0762 0.11092,-0.16934 z m 1.18533,-1.18533 c 0.0843,-0.0931 0.1723,-0.16933 0.19558,-0.16933 0.0233,0 -0.0266,0.0762 -0.11091,0.16933 -0.0843,0.0931 -0.1723,0.16933 -0.19558,0.16933 -0.0233,0 0.0266,-0.0762 0.11091,-0.16933 z m -13.75833,-0.52211 c 0,-0.0543 0.0269,-0.0719 0.0598,-0.0389 0.0329,0.0329 2.09983,-1.97052 4.59317,-4.45206 l 4.53334,-4.51188 -4.52937,4.55083 c -2.49116,2.50296 -4.55808,4.55084 -4.59317,4.55084 -0.0351,0 -0.0638,-0.0444 -0.0638,-0.0988 z m 14.94366,-0.66322 c 0.0843,-0.0931 0.1723,-0.16934 0.19558,-0.16934 0.0233,0 -0.0266,0.0762 -0.11091,0.16934 -0.0843,0.0931 -0.1723,0.16933 -0.19558,0.16933 -0.0233,0 0.0266,-0.0762 0.11091,-0.16933 z m 1.18534,-1.18534 c 0.0843,-0.0931 0.17229,-0.16933 0.19558,-0.16933 0.0233,0 -0.0266,0.0762 -0.11092,0.16933 -0.0843,0.0931 -0.17229,0.16934 -0.19558,0.16934 -0.0233,0 0.0266,-0.0762 0.11092,-0.16934 z m -49.191334,-7.36599 c 3.585406,-3.58564 6.537971,-6.51934 6.561254,-6.51934 0.02328,0 -2.891181,2.9337 -6.476587,6.51934 -3.585406,3.58563 -6.537971,6.51933 -6.561254,6.51933 -0.02328,0 2.891181,-2.9337 6.476587,-6.51933 z m 50.376664,6.18066 c 0.0843,-0.0931 0.1723,-0.16933 0.19558,-0.16933 0.0233,0 -0.0266,0.0762 -0.11091,0.16933 -0.0843,0.0931 -0.1723,0.16933 -0.19558,0.16933 -0.0233,0 0.0266,-0.0762 0.11091,-0.16933 z m 1.18533,-1.18533 c 0.0843,-0.0931 0.1723,-0.16934 0.19558,-0.16934 0.0233,0 -0.0266,0.0762 -0.11091,0.16934 -0.0843,0.0931 -0.1723,0.16933 -0.19558,0.16933 -0.0233,0 0.0266,-0.0762 0.11091,-0.16933 z m 1.18534,-1.18534 c 0.0843,-0.0931 0.17229,-0.16933 0.19558,-0.16933 0.0233,0 -0.0266,0.0762 -0.11092,0.16933 -0.0843,0.0931 -0.17229,0.16934 -0.19558,0.16934 -0.0233,0 0.0266,-0.0762 0.11092,-0.16934 z m 1.18533,-1.18533 c 0.0843,-0.0931 0.1723,-0.16933 0.19558,-0.16933 0.0233,0 -0.0266,0.0762 -0.11091,0.16933 -0.0843,0.0931 -0.1723,0.16933 -0.19558,0.16933 -0.0233,0 0.0266,-0.0762 0.11091,-0.16933 z m 1.18533,-1.18533 c 0.0843,-0.0931 0.1723,-0.16934 0.19558,-0.16934 0.0233,0 -0.0266,0.0762 -0.11091,0.16934 -0.0843,0.0931 -0.1723,0.16933 -0.19558,0.16933 -0.0233,0 0.0266,-0.0762 0.11091,-0.16933 z m 0.97367,-0.96331 c 0,-0.0176 0.0667,-0.0842 0.14817,-0.14816 0.13428,-0.10531 0.13727,-0.10232 0.032,0.032 -0.11061,0.14103 -0.18014,0.18588 -0.18014,0.11619 z m -18.45246,-4.74681 c -2.44172,-2.44206 -4.47041,-4.42102 -4.50819,-4.39767 -0.0378,0.0233 -0.0687,0.002 -0.0687,-0.0472 0,-0.0493 0.0287,-0.0897 0.0638,-0.0897 0.0351,0 2.08284,2.0193 4.55054,4.48734 2.4677,2.46803 4.46768,4.48733 4.4444,4.48733 -0.0233,0 -2.04012,-1.99806 -4.48186,-4.44012 z m 13.41453,-0.74571 -5.1644,-5.18584 5.18583,5.16441 c 4.82056,4.80064 5.22383,5.20726 5.1644,5.20726 -0.0118,0 -2.34541,-2.33363 -5.18583,-5.18583 z m -43.818273,-2.20134 c 0.350856,-0.37382 0.426872,-0.44103 0.426872,-0.37746 0,0.0136 -0.180975,0.19457 -0.402167,0.40217 l -0.402166,0.37746 z m 1.231205,-1.24883 c 0.181884,-0.18627 0.34975,-0.33867 0.373033,-0.33867 0.02328,0 -0.106482,0.1524 -0.288366,0.33867 -0.181884,0.18627 -0.34975,0.33867 -0.373033,0.33867 -0.02328,0 0.106482,-0.1524 0.288366,-0.33867 z m 0.973667,-0.95783 c 0,-0.0146 0.123825,-0.13839 0.275166,-0.27516 l 0.275167,-0.24868 -0.248674,0.27517 c -0.231798,0.2565 -0.301659,0.31409 -0.301659,0.24867 z m 35.811101,-1.39167 -0.46277,-0.48683 0.48683,0.46277 c 0.45228,0.42993 0.52562,0.51089 0.46277,0.51089 -0.0132,0 -0.2323,-0.21907 -0.48683,-0.48683 z m -34.414101,-0.0212 c 0.08428,-0.0931 0.172295,-0.16933 0.195578,-0.16933 0.02328,0 -0.02663,0.0762 -0.110912,0.16933 -0.08428,0.0931 -0.172295,0.16934 -0.195578,0.16934 -0.02328,0 0.02663,-0.0762 0.110912,-0.16934 z m -22.352272,-5.10116 -4.910393,-4.93184 4.92328,4.90185 c 3.666393,3.65042 4.959008,4.88813 5.06323,4.84813 0.08209,-0.0315 0.118565,-0.0191 0.08822,0.03 -0.02845,0.046 -0.09723,0.0837 -0.152838,0.0837 -0.05561,0 -2.310786,-2.21933 -5.011502,-4.93183 z m 73.740943,4.572 -0.33468,-0.35984 0.34224,0.3175 c 0.18824,0.17463 0.37861,0.3175 0.42307,0.3175 0.0445,0 2.29074,-2.20027 4.99176,-4.8895 l 4.91093,-4.8895 -4.91039,4.93184 c -2.70072,2.7125 -4.95041,4.93183 -4.99931,4.93183 -0.0489,0 -0.23953,-0.16193 -0.42362,-0.35983 z m -18.15701,-0.61384 c -0.20565,-0.20955 -0.35487,-0.381 -0.33159,-0.381 0.0233,0 0.2106,0.17145 0.41626,0.381 0.20565,0.20955 0.35487,0.381 0.33159,0.381 -0.0233,0 -0.2106,-0.17145 -0.41626,-0.381 z m 17.018,-0.508 c -0.20565,-0.20955 -0.35487,-0.381 -0.33159,-0.381 0.0233,0 0.2106,0.17145 0.41626,0.381 0.20565,0.20955 0.35487,0.381 0.33159,0.381 -0.0233,0 -0.2106,-0.17145 -0.41626,-0.381 z m -18.25099,-0.74083 -0.24867,-0.27517 0.27516,0.24868 c 0.15134,0.13677 0.27517,0.26059 0.27517,0.27516 0,0.0654 -0.0699,0.008 -0.30166,-0.24867 z m 17.06566,-0.4445 c -0.20566,-0.20955 -0.35487,-0.381 -0.33159,-0.381 0.0233,0 0.2106,0.17145 0.41625,0.381 0.20566,0.20955 0.35488,0.381 0.33159,0.381 -0.0233,0 -0.2106,-0.17145 -0.41625,-0.381 z m -18.25371,-0.74083 -0.16129,-0.1905 0.1905,0.16129 c 0.17902,0.15157 0.22904,0.21971 0.16129,0.21971 -0.0161,0 -0.1018,-0.0857 -0.1905,-0.1905 z m 17.06837,-0.4445 c -0.20565,-0.20955 -0.35487,-0.381 -0.33158,-0.381 0.0233,0 0.2106,0.17145 0.41625,0.381 0.20566,0.20955 0.35487,0.381 0.33159,0.381 -0.0233,0 -0.2106,-0.17145 -0.41626,-0.381 z m -43.772658,0.0104 c 0,-0.0176 0.06668,-0.0842 0.148166,-0.14817 0.134287,-0.10531 0.137281,-0.10232 0.03197,0.032 -0.110606,0.14103 -0.180133,0.18589 -0.180133,0.1162 z m 42.587328,-1.1957 c -0.20565,-0.20955 -0.35487,-0.381 -0.33159,-0.381 0.0233,0 0.2106,0.17145 0.41626,0.381 0.20565,0.20955 0.35487,0.381 0.33159,0.381 -0.0233,0 -0.2106,-0.17145 -0.41626,-0.381 z m -41.317328,-0.0847 c 0.109368,-0.11642 0.2179,-0.21167 0.241184,-0.21167 0.02328,0 -0.04715,0.0952 -0.156518,0.21167 -0.109368,0.11641 -0.2179,0.21166 -0.241184,0.21166 -0.02328,0 0.04715,-0.0952 0.156518,-0.21166 z m 40.131998,-1.10067 c -0.20566,-0.20955 -0.35487,-0.381 -0.33159,-0.381 0.0233,0 0.2106,0.17145 0.41626,0.381 0.20565,0.20955 0.35487,0.381 0.33158,0.381 -0.0233,0 -0.2106,-0.17145 -0.41625,-0.381 z m -38.946665,-0.0847 c 0.109368,-0.11641 0.2179,-0.21166 0.241184,-0.21166 0.02328,0 -0.04715,0.0952 -0.156518,0.21166 -0.109368,0.11642 -0.2179,0.21167 -0.241184,0.21167 -0.02328,0 0.04715,-0.0952 0.156518,-0.21167 z m 21.240525,-0.0212 c -0.10531,-0.13429 -0.10232,-0.13728 0.032,-0.032 0.0815,0.0639 0.14817,0.13059 0.14817,0.14816 0,0.0697 -0.0695,0.0248 -0.18014,-0.11619 z m -19.123859,-2.0955 c 0.767292,-0.76835 1.414129,-1.397 1.437409,-1.397 0.0233,0 -0.58545,0.62865 -1.352742,1.397 -0.767292,0.76835 -1.414125,1.397 -1.437409,1.397 -0.02328,0 0.585451,-0.62865 1.352742,-1.397 z m 35.644669,1.016 c -0.20566,-0.20955 -0.35488,-0.381 -0.33159,-0.381 0.0233,0 0.2106,0.17145 0.41625,0.381 0.20566,0.20955 0.35487,0.381 0.33159,0.381 -0.0233,0 -0.2106,-0.17145 -0.41625,-0.381 z m -17.78641,-0.1905 -0.20526,-0.23284 0.23283,0.20526 c 0.12806,0.1129 0.23284,0.21767 0.23284,0.23283 0,0.0664 -0.0686,0.0124 -0.26041,-0.20525 z m 16.60107,-0.99484 c -0.20565,-0.20955 -0.35487,-0.381 -0.33159,-0.381 0.0233,0 0.2106,0.17145 0.41626,0.381 0.20565,0.20955 0.35487,0.381 0.33159,0.381 -0.0233,0 -0.2106,-0.17145 -0.41626,-0.381 z m -17.74165,-0.14816 -0.33468,-0.35984 0.35983,0.33468 c 0.33465,0.31125 0.39874,0.38499 0.33468,0.38499 -0.0138,0 -0.17575,-0.16193 -0.35983,-0.35983 z m 16.68151,-0.91206 -0.24516,-0.25589 0.29089,-0.27327 0.29088,-0.27328 -0.24674,0.27516 -0.24674,0.27517 0.24335,0.254 c 0.13384,0.1397 0.22429,0.254 0.20101,0.254 -0.0233,0 -0.15265,-0.11515 -0.28749,-0.25589 z m -17.6169,-0.0193 -0.16129,-0.1905 0.1905,0.16129 c 0.17902,0.15157 0.22904,0.21971 0.16129,0.21971 -0.0161,0 -0.10179,-0.0857 -0.1905,-0.1905 z m -32.04445,-0.0847 c 0.09231,-0.12259 0.09231,-0.17375 0,-0.29634 -0.106251,-0.14111 -0.103864,-0.14111 0.05011,0 0.159119,0.14583 0.159119,0.15051 0,0.29634 -0.153973,0.14111 -0.15636,0.14111 -0.05011,0 z m -14.768443,-5.12234 c 2.700716,-2.7125 4.955892,-4.93183 5.011502,-4.93183 0.05561,0 0.124389,0.0377 0.152838,0.0837 0.03034,0.0491 -0.0061,0.0615 -0.08822,0.03 -0.104222,-0.04 -1.396837,1.19771 -5.06323,4.84814 l -4.92328,4.90184 z m 18.672751,-8.86535 c -7.565062,-7.56517 -13.737217,-13.76594 -13.715902,-13.7795 0.02132,-0.0135 6.229876,6.17613 13.796798,13.75485 7.566921,7.57873 13.739076,13.7795 13.715906,13.7795 -0.0232,0 -6.23174,-6.18968 -13.796802,-13.75485 z m 28.190522,13.54319 c 0.10936,-0.11642 0.21789,-0.21167 0.24118,-0.21167 0.0233,0 -0.0472,0.0952 -0.15652,0.21167 -0.10936,0.11641 -0.21789,0.21166 -0.24118,0.21166 -0.0233,0 0.0472,-0.0952 0.15652,-0.21166 z m 32.25799,-4.65667 c -2.67727,-2.67758 -4.9044,-4.86833 -4.94915,-4.86833 -0.0448,0 -0.23537,0.14287 -0.42361,0.3175 l -0.34224,0.3175 0.33468,-0.35984 c 0.18409,-0.1979 0.3747,-0.35983 0.42362,-0.35983 0.0489,0 2.29848,2.2098 4.99904,4.91067 2.70056,2.70086 4.89106,4.91066 4.86778,4.91066 -0.0233,0 -2.23284,-2.19075 -4.91012,-4.86833 z m -31.36899,3.76767 c 0.18188,-0.18627 0.34975,-0.33867 0.37303,-0.33867 0.0233,0 -0.10649,0.1524 -0.28837,0.33867 -0.18188,0.18626 -0.34975,0.33866 -0.37303,0.33866 -0.0233,0 0.10649,-0.1524 0.28837,-0.33866 z m 17.73412,-0.10584 c 0.35086,-0.37382 0.42688,-0.44103 0.42688,-0.37746 0,0.0136 -0.18098,0.19457 -0.40217,0.40217 l -0.40217,0.37746 z m -16.76046,-0.85199 c 0,-0.0146 0.12383,-0.1384 0.27517,-0.27517 l 0.27517,-0.24867 -0.24868,0.27517 c -0.2318,0.25649 -0.30166,0.31408 -0.30166,0.24867 z m 17.9458,-0.33334 c 0.35085,-0.37382 0.42687,-0.44104 0.42687,-0.37746 0,0.0136 -0.18098,0.19456 -0.40217,0.40217 l -0.40216,0.37746 z m 1.18533,-1.18533 c 0.35086,-0.37382 0.42687,-0.44104 0.42687,-0.37746 0,0.0136 -0.18097,0.19456 -0.40216,0.40216 l -0.40217,0.37746 z m -17.77646,0.15853 c 0,-0.0176 0.0667,-0.0843 0.14817,-0.14817 0.13429,-0.10531 0.13728,-0.10232 0.032,0.032 -0.11061,0.14103 -0.18014,0.18588 -0.18014,0.1162 z m 18.96179,-1.34387 c 0.20761,-0.22119 0.38858,-0.40216 0.40217,-0.40216 0.0636,0 -0.004,0.076 -0.37746,0.42687 l -0.40217,0.37746 z m 1.18534,-1.18533 c 0.35085,-0.37382 0.42687,-0.44104 0.42687,-0.37746 0,0.0136 -0.18098,0.19456 -0.40217,0.40217 l -0.40216,0.37746 z m -17.0568,-0.48683 c 0.0843,-0.0931 0.1723,-0.16934 0.19558,-0.16934 0.0233,0 -0.0266,0.0762 -0.11091,0.16934 -0.0843,0.0931 -0.1723,0.16933 -0.19558,0.16933 -0.0233,0 0.0266,-0.0762 0.11091,-0.16933 z m 18.24213,-0.6985 c 0.35086,-0.37382 0.42687,-0.44104 0.42687,-0.37746 0,0.0136 -0.18097,0.19456 -0.40217,0.40216 l -0.40216,0.37746 z m -17.26846,-0.25933 c 0,-0.0146 0.12382,-0.1384 0.27517,-0.27517 l 0.27516,-0.24867 -0.24867,0.27517 c -0.2318,0.25649 -0.30166,0.31408 -0.30166,0.24867 z m 18.45379,-0.92601 c 0.35086,-0.37382 0.42687,-0.44103 0.42687,-0.37746 0,0.0136 -0.18097,0.19457 -0.40216,0.40217 l -0.40217,0.37746 z m -17.05679,-0.48683 c 0.18188,-0.18627 0.34975,-0.33867 0.37303,-0.33867 0.0233,0 -0.10648,0.1524 -0.28836,0.33867 -0.18188,0.18627 -0.34975,0.33867 -0.37304,0.33867 -0.0233,0 0.10649,-0.1524 0.28837,-0.33867 z m 1.22767,-1.22767 c 0.25293,-0.25611 0.47893,-0.46566 0.50221,-0.46566 0.0233,0 -0.16461,0.20955 -0.41755,0.46566 -0.25293,0.25612 -0.47893,0.46567 -0.50221,0.46567 -0.0233,0 0.16461,-0.20955 0.41755,-0.46567 z m 5.79966,-5.79966 c 2.84028,-2.84057 5.1832,-5.16467 5.20649,-5.16467 0.0233,0 -2.28154,2.3241 -5.12182,5.16467 -2.84028,2.84056 -5.1832,5.16466 -5.20648,5.16466 -0.0233,0 2.28153,-2.3241 5.12181,-5.16466 z m -33.231924,-1.41817 -5.122071,-5.1435 5.125992,5.10457 c 2.819294,2.80751 5.152923,5.07763 5.185833,5.04472 0.0329,-0.0329 0.0598,-0.0154 0.0598,0.0389 0,0.0543 -0.0287,0.0988 -0.0638,0.0988 -0.0351,0 -2.368695,-2.31457 -5.185834,-5.1435 z m 15.240264,5.04472 c 0,-0.0543 0.0268,-0.0719 0.0597,-0.0391 0.0328,0.0328 1.01389,-0.88477 2.18017,-2.03906 l 2.12051,-2.09872 -2.11603,2.13784 c -1.16382,1.17581 -2.1449,2.13783 -2.18017,2.13783 -0.0353,0 -0.0641,-0.0444 -0.0641,-0.0988 z m 4.99533,-4.85422 c 0.15797,-0.16298 0.30626,-0.29633 0.32955,-0.29633 0.0233,0 -0.0869,0.13335 -0.24488,0.29633 -0.15797,0.16298 -0.30627,0.29633 -0.32955,0.29633 -0.0233,0 0.0869,-0.13335 0.24488,-0.29633 z m 3.429,-3.34433 c 0.32347,-0.32597 0.60718,-0.59267 0.63046,-0.59267 0.0233,0 -0.22232,0.2667 -0.54579,0.59267 -0.32347,0.32596 -0.60718,0.59266 -0.63047,0.59266 -0.0233,0 0.22233,-0.2667 0.5458,-0.59266 z m -3.80511,-5.15979 c -2.46502,-2.46534 -4.51276,-4.46334 -4.55054,-4.44 -0.0378,0.0233 -0.0687,0.002 -0.0687,-0.0472 0,-0.0493 0.0287,-0.0897 0.0638,-0.0897 0.0351,0 2.10189,2.03835 4.59287,4.52967 2.49099,2.49132 4.51003,4.52966 4.48674,4.52966 -0.0233,0 -2.05917,-2.0171 -4.52418,-4.48245 z m -25.661538,2.51396 -0.50535,-0.52917 0.529167,0.50535 c 0.49155,0.46943 0.56791,0.55298 0.505349,0.55298 -0.0131,0 -0.251224,-0.23812 -0.529166,-0.52916 z m -1.143242,-1.143 -0.462775,-0.48684 0.486834,0.46278 c 0.267758,0.25452 0.486833,0.4736 0.486833,0.48683 0,0.0628 -0.08096,-0.0105 -0.510892,-0.46277 z m -1.228758,-1.22767 -0.334683,-0.35983 0.359833,0.33468 c 0.334642,0.31125 0.39874,0.38498 0.334683,0.38498 -0.01383,0 -0.175758,-0.16192 -0.359833,-0.35983 z m -1.186676,-1.18533 -0.248674,-0.27517 0.275167,0.24867 c 0.256494,0.2318 0.314084,0.30166 0.248673,0.30166 -0.01457,0 -0.138396,-0.12382 -0.275166,-0.27516 z m -1.148474,-1.143 c -0.105314,-0.13429 -0.102319,-0.13729 0.03197,-0.032 0.141033,0.1106 0.185884,0.18013 0.1162,0.18013 -0.01758,0 -0.08426,-0.0667 -0.148167,-0.14816 z m -3.048,-2.96334 c -0.105314,-0.13428 -0.102319,-0.13728 0.03197,-0.032 0.08149,0.0639 0.148167,0.13058 0.148167,0.14816 0,0.0697 -0.06953,0.0248 -0.180134,-0.1162 z m -1.265608,-1.27 -0.205258,-0.23283 0.232833,0.20526 c 0.128059,0.11289 0.232834,0.21767 0.232834,0.23283 0,0.0664 -0.06856,0.0124 -0.260409,-0.20526 z m -1.140575,-1.143 -0.334683,-0.35983 0.359833,0.33468 c 0.334642,0.31125 0.398741,0.38499 0.334683,0.38499 -0.01383,0 -0.175757,-0.16193 -0.359833,-0.35984 z m -1.114571,-1.08161 c -0.196105,-0.18511 -0.327663,-0.33655 -0.292349,-0.33655 0.03531,0 0.213019,0.1524 0.394904,0.33866 0.425473,0.43573 0.359877,0.43437 -0.102555,-0.002 z"
         id="path108" />
      <path
         style="fill:#6e6d6c;stroke-width:0.0846667"
         d="m 47.74568,206.09226 c -0.02209,-0.0582 -0.03043,-26.90924 -0.01853,-59.66889 l 0.02163,-59.562992 h 59.64766 59.64767 v 59.647662 59.64766 l -59.62913,0.0212 c -47.659028,0.017 -59.637198,-4e-5 -59.669302,-0.0847 z M 167.00177,146.50804 V 86.902711 H 107.39644 47.791115 v 59.605329 59.60533 h 59.605325 59.60533 z"
         id="path106" />
      <path
         style="fill:#5b4f3c;stroke-width:0.0846667"
         d="m 102.35579,195.9322 c -0.022,-0.0582 -0.0494,-8.42634 -0.0609,-18.59584 l -0.0208,-18.49002 -11.18889,11.18752 c -6.15389,6.15313 -11.236981,11.18751 -11.295759,11.18751 -0.116401,0 -7.049567,-6.98938 -7.086787,-7.14425 -0.01253,-0.0521 6.150149,-6.26645 13.694832,-13.80963 7.544683,-7.54319 13.717604,-13.74269 13.717604,-13.77669 0,-0.034 -6.172198,-6.23395 -13.715998,-13.77769 -7.543799,-7.54373 -13.715999,-13.76431 -13.715999,-13.8235 0,-0.15148 6.959917,-7.0949 7.11175,-7.0949 0.06846,0 5.135582,5.01015 11.260274,11.13367 6.124693,6.12351 11.163953,11.13366 11.198363,11.13366 0.0344,0 0.0722,-8.33437 0.0839,-18.52083 l 0.0214,-18.520833 2.58046,-0.02244 2.58046,-0.02244 14.04059,14.034763 c 7.72232,7.71913 14.08047,14.10667 14.12922,14.19454 0.0778,0.14016 -1.20547,1.45387 -10.46155,10.70995 -5.8026,5.8026 -10.55018,10.5692 -10.55018,10.59244 0,0.0232 4.74751,4.79034 10.55004,10.59355 9.24778,9.2489 10.53911,10.57099 10.46155,10.71079 -0.0487,0.0877 -6.40619,6.47457 -14.12781,14.193 l -14.03932,14.0335 h -2.56322 c -1.9728,0 -2.57244,-0.0244 -2.60323,-0.10584 z m 19.22241,-14.12418 14.13924,-14.14536 -10.62566,-10.57743 -10.62567,-10.57742 10.62567,-10.57725 10.62566,-10.57725 -14.13924,-14.1453 -14.13924,-14.1453 h -2.51892 -2.51893 v 18.537 c 0,10.19535 -0.0286,18.55388 -0.0635,18.5745 -0.0349,0.0206 -5.111749,-4.98677 -11.281831,-11.12753 -6.170083,-6.14076 -11.237555,-11.16553 -11.261049,-11.16616 -0.02349,-5.9e-4 -1.623586,1.58007 -3.555759,3.51266 l -3.513044,3.51381 13.800425,13.80381 13.800428,13.8038 -13.792731,13.7359 c -12.388572,12.33753 -13.783295,13.75293 -13.700067,13.90322 0.05096,0.092 1.638129,1.71025 3.527032,3.59606 l 3.434371,3.42875 11.242951,-11.24272 c 6.183622,-6.18349 11.269914,-11.21575 11.302864,-11.1828 0.0329,0.033 0.0599,8.41651 0.0599,18.63014 v 18.57022 h 2.51893 2.51892 z m -9.1265,-5.21162 c -0.084,-0.084 -0.0753,-17.79217 0.009,-17.84415 0.0378,-0.0233 2.08556,1.9747 4.55063,4.44011 l 4.48195,4.48255 -4.49071,4.49071 c -2.46989,2.46989 -4.51767,4.46374 -4.55063,4.43078 z m 4.5185,-13.31226 c -2.4278,-2.42812 -4.43209,-4.41477 -4.45397,-4.41477 -0.0219,0 -0.0398,3.99093 -0.0398,8.86873 v 8.86873 l 4.45397,-4.45396 4.45397,-4.45398 z m -4.52142,-29.10865 c -0.0821,-0.0821 -0.0705,-17.70576 0.0117,-17.75657 0.0378,-0.0233 2.08565,1.97653 4.55083,4.44417 l 4.48215,4.48661 -2.24366,2.21448 c -1.23402,1.21797 -3.25624,3.2166 -4.49383,4.4414 -1.23759,1.2248 -2.27581,2.20126 -2.30717,2.16991 z m 4.49413,-13.29998 c -2.43294,-2.43327 -4.43319,-4.42413 -4.44499,-4.42413 -0.0118,0 -0.0215,3.99083 -0.0215,8.86853 v 8.86853 l 4.445,-4.4444 4.445,-4.4444 z M 67.793342,151.5666 c -2.712358,-2.71265 -4.931561,-4.98925 -4.931561,-5.0591 0,-0.0699 2.22366,-2.35042 4.941468,-5.06793 3.907888,-3.90746 4.974871,-4.93032 5.101166,-4.89023 0.223166,0.0708 9.938698,9.80681 9.938698,9.9596 0,0.16399 -9.827727,9.98977 -9.991748,9.98977 -0.06955,0 -2.345664,-2.21945 -5.058023,-4.93211 z m 10.054438,-0.10556 4.952457,-4.953 -4.952457,-4.953 c -2.723851,-2.72415 -4.990557,-4.953 -5.037124,-4.953 -0.138023,0 -9.864209,9.76686 -9.864209,9.90546 0,0.13896 9.725299,9.90654 9.863664,9.90654 0.04687,0 2.313818,-2.22885 5.037669,-4.953 z m 59.03464,0.10502 c -2.71296,-2.71295 -4.93264,-4.98866 -4.93264,-5.05712 0,-0.15279 9.71553,-9.88876 9.93869,-9.9596 0.1263,-0.0401 1.19328,0.98277 5.10117,4.89023 2.71781,2.71751 4.94147,4.99832 4.94147,5.06847 0,0.16566 -9.82448,9.99067 -9.99013,9.99067 -0.0692,0 -2.34561,-2.21969 -5.05856,-4.93265 z m 10.07425,-0.0412 c 2.68938,-2.68907 4.88977,-4.94637 4.88977,-5.01623 0,-0.13896 -9.72529,-9.90654 -9.86367,-9.90654 -0.0469,0 -2.31381,2.22885 -5.03766,4.953 l -4.95246,4.953 4.95246,4.953 c 2.72385,2.72415 4.99056,4.953 5.03712,4.953 0.0466,0 2.28506,-2.20015 4.97444,-4.88923 z"
         id="path104" />
      <path
         style="fill:#393939;stroke-width:0.0846667"
         d="M 20.697784,146.50804 V 59.80938 h 86.698656 86.69866 v 86.69866 86.69866 H 107.39644 20.697784 Z m 152.569326,0 V 80.637378 H 107.39644 41.525782 v 65.870662 65.87066 h 65.870658 65.87067 z m -125.475995,0 V 86.902711 h 59.605325 59.60533 v 59.605329 59.60533 H 107.39644 47.791115 Z m 73.770445,35.4965 c 7.72162,-7.71843 14.07914,-14.10527 14.12781,-14.193 0.0776,-0.1398 -1.21377,-1.46189 -10.46155,-10.71079 -5.80253,-5.80321 -10.55004,-10.57032 -10.55004,-10.59355 0,-0.0232 4.74758,-4.78984 10.55018,-10.59244 9.25608,-9.25608 10.53932,-10.56979 10.46155,-10.70995 -0.0488,-0.0879 -6.4069,-6.47541 -14.12922,-14.19454 l -14.04059,-14.034767 -2.58046,0.02244 -2.58046,0.02244 -0.0214,18.520837 c -0.0117,10.18646 -0.0495,18.52083 -0.0839,18.52083 -0.0344,0 -5.07367,-5.01015 -11.198363,-11.13366 -6.124692,-6.12352 -11.191816,-11.13367 -11.260274,-11.13367 -0.151833,0 -7.11175,6.94342 -7.11175,7.0949 0,0.0592 6.1722,6.27977 13.715999,13.8235 7.5438,7.54374 13.715998,13.74371 13.715998,13.77769 0,0.034 -6.172921,6.2335 -13.717604,13.77669 -7.544683,7.54318 -13.707358,13.75752 -13.694832,13.80963 0.03722,0.15487 6.970386,7.14425 7.086787,7.14425 0.05878,0 5.141869,-5.03438 11.295759,-11.18751 l 11.18889,-11.18752 0.0208,18.49002 c 0.0115,10.1695 0.0388,18.53763 0.0609,18.59584 0.0308,0.0815 0.63043,0.10584 2.60323,0.10584 h 2.56322 z m -9.08512,-14.26644 c 0,-4.8778 0.0179,-8.86873 0.0398,-8.86873 0.0219,0 2.02617,1.98665 4.45397,4.41477 l 4.41418,4.41475 -4.45397,4.45398 -4.45397,4.45396 z m 0,-42.41819 c 0,-4.8777 0.01,-8.86853 0.0215,-8.86853 0.0118,0 2.01205,1.99086 4.44499,4.42413 l 4.42353,4.42413 -4.445,4.4444 -4.445,4.4444 z m -34.565971,26.24615 c 2.712954,-2.71295 4.932644,-4.98866 4.932644,-5.05712 0,-0.15279 -9.715532,-9.88876 -9.938698,-9.9596 -0.126295,-0.0401 -1.193278,0.98277 -5.101166,4.89023 -2.717808,2.71751 -4.941468,4.99808 -4.941468,5.06793 0,0.16567 9.823945,9.99121 9.989584,9.99121 0.06955,0 2.34615,-2.21969 5.059104,-4.93265 z m 69.088531,0.001 c 2.71266,-2.71237 4.93211,-4.98897 4.93211,-5.05912 0,-0.0701 -2.22366,-2.35096 -4.94147,-5.06847 -3.90789,-3.90746 -4.97487,-4.93032 -5.10117,-4.89023 -0.22316,0.0708 -9.93869,9.80681 -9.93869,9.9596 0,0.16364 9.82754,9.98977 9.9912,9.98977 0.0693,0 2.34537,-2.21921 5.05802,-4.93157 z"
         id="path102" />
    </g>
    <path
       style="fill:#3a3a3a;stroke:none;stroke-width:2.85714;fill-opacity:1"
       d="M 80.991589,327.54046 V 80.397601 H 328.13445 575.2773 V 327.54046 574.68332 H 328.13445 80.991589 Z m 474.285711,0 V 100.3976 H 328.13445 100.99159 V 327.54046 554.68332 H 328.13445 555.2773 Z"
       id="path921"
       transform="matrix(0.26458333,0,0,0.26458333,20.526334,45.251945)" />
    <path
       style="fill:#3a3a3a;fill-opacity:1;stroke-width:2.85714"
       d="M 80.991589,327.54046 V 80.397601 H 328.13445 575.2773 V 327.54046 574.68332 H 328.13445 80.991589 Z m 474.285711,0 V 100.3976 H 328.13445 100.99159 V 327.54046 554.68332 H 328.13445 555.2773 Z"
       id="path923"
       transform="matrix(0.26458333,0,0,0.26458333,20.526334,45.251945)" />
    <path
       style="fill:#3a3a3a;fill-opacity:1;stroke-width:2.85714"
       d="M 80.991589,327.54046 V 80.397601 H 328.13445 575.2773 V 327.54046 574.68332 H 328.13445 80.991589 Z m 474.285711,0 V 100.3976 H 328.13445 100.99159 V 327.54046 554.68332 H 328.13445 555.2773 Z"
       id="path925"
       transform="matrix(0.26458333,0,0,0.26458333,20.526334,45.251945)" />
    <path
       style="fill:#3a3a3a;fill-opacity:1;stroke-width:2.85714"
       d="M 80.991589,327.54046 V 80.397601 H 328.13445 575.2773 V 327.54046 574.68332 H 328.13445 80.991589 Z m 474.285711,0 V 100.3976 H 328.13445 100.99159 V 327.54046 554.68332 H 328.13445 555.2773 Z"
       id="path927"
       transform="matrix(0.26458333,0,0,0.26458333,20.526334,45.251945)" />
    <path
       style="fill:#3a3a3a;fill-opacity:1;stroke-width:2.85714"
       d="M 80.991589,327.54046 V 80.397601 H 328.13445 575.2773 V 327.54046 574.68332 H 328.13445 80.991589 Z m 474.285711,0 V 100.3976 H 328.13445 100.99159 V 327.54046 554.68332 H 328.13445 555.2773 Z"
       id="path929"
       transform="matrix(0.26458333,0,0,0.26458333,20.526334,45.251945)" />
    <path
       style="fill:#3a3a3a;fill-opacity:1;stroke-width:2.85714"
       d="M 80.991589,327.54046 V 80.397601 H 328.13445 575.2773 V 327.54046 574.68332 H 328.13445 80.991589 Z m 474.285711,0 V 100.3976 H 328.13445 100.99159 V 327.54046 554.68332 H 328.13445 555.2773 Z"
       id="path931"
       transform="matrix(0.26458333,0,0,0.26458333,20.526334,45.251945)" />
    <path
       style="fill:#3a3a3a;fill-opacity:1;stroke-width:2.85714"
       d="m 576.60231,327.54046 c 5.2e-4,-78.57143 0.36773,-110.30331 0.81602,-70.51528 0.44829,39.78802 0.44787,104.07373 -9.4e-4,142.85714 -0.44881,38.7834 -0.81559,6.22957 -0.81508,-72.34186 z"
       id="path933"
       transform="matrix(0.26458333,0,0,0.26458333,20.526334,45.251945)" />
    <path
       style="fill:#3a3a3a;fill-opacity:1;stroke-width:2.85714"
       d="m 575.72843,346.11189 c 0,-3.92857 0.6485,-5.53572 1.4411,-3.57143 0.79261,1.96428 0.79261,5.17857 0,7.14286 -0.7926,1.96428 -1.4411,0.35714 -1.4411,-3.57143 z"
       id="path935"
       transform="matrix(0.26458333,0,0,0.26458333,20.526334,45.251945)" />
    <path
       style="fill:#3a3a3a;fill-opacity:1;stroke-width:2.85714"
       d="M 0.99158857,327.54046 V 0.39760143 H 328.13445 655.2773 V 327.54046 654.68332 H 328.13445 0.99158857 Z m 577.14286143,0 V 77.540459 h -250 -250.000004 v 250.000001 250 h 250.000004 250 z"
       id="path937"
       transform="matrix(0.26458333,0,0,0.26458333,20.526334,45.251945)" />
    <path
       style="fill:#3a3a3a;fill-opacity:1;stroke-width:2.85714"
       d="M 0.99158857,327.54046 V 0.39760143 H 328.13445 655.2773 V 327.54046 654.68332 H 328.13445 0.99158857 Z M 577.4543,463.96903 576.77413,350.3976 575.99256,462.54046 575.21099,574.68332 H 328.10127 80.991589 V 327.54046 80.397601 H 328.10562 575.21965 l 0.77265,130.714289 0.77266,130.71428 0.68474,-132.14285 0.68475,-132.142861 h -250 -250.000004 v 250.000001 250 h 250.000004 250 z M 555.2773,327.54046 V 100.3976 H 328.13445 100.99159 V 327.54046 554.68332 H 328.13445 555.2773 Z"
       id="path939"
       transform="matrix(0.26458333,0,0,0.26458333,20.526334,45.251945)" />
    <path
       style="fill:#3a3a3a;fill-opacity:1;stroke-width:2.85714"
       d="M 0.99158857,327.54046 V 0.39760143 H 328.13445 655.2773 V 327.54046 654.68332 H 328.13445 0.99158857 Z M 577.4547,465.3976 l -0.67974,-112.14286 -0.78237,110.71429 -0.7824,110.71429 H 328.1009 80.991589 V 327.54046 80.397601 H 328.10533 575.21907 l 0.77326,129.285719 0.77326,129.28571 0.68443,-130.71429 0.68443,-130.714281 h -250 -250.000004 v 250.000001 250 h 250.000004 250 z M 555.2773,327.54046 V 100.3976 H 328.13445 100.99159 V 327.54046 554.68332 H 328.13445 555.2773 Z"
       id="path941"
       transform="matrix(0.26458333,0,0,0.26458333,20.526334,45.251945)" />
    <path
       style="fill:#3a3a3a;fill-opacity:1;stroke-width:2.85714"
       d="M 0.99158857,327.54046 V 0.39760143 H 328.13445 655.2773 V 327.54046 654.68332 H 328.13445 0.99158857 Z M 577.46002,481.11189 l -0.67446,-96.42857 -0.79263,95 -0.79266,95 H 328.09593 80.991589 V 327.54046 80.397601 H 328.1005 575.20939 l 0.78323,109.285719 0.7832,109.28571 0.67931,-110.71429 0.67932,-110.714281 h -250 -250.000004 v 250.000001 250 h 250.000004 250 z M 555.2773,327.54046 V 100.3976 H 328.13445 100.99159 V 327.54046 554.68332 H 328.13445 555.2773 Z"
       id="path943"
       transform="matrix(0.26458333,0,0,0.26458333,20.526334,45.251945)" />
    <path
       style="fill:#3a3a3a;fill-opacity:1;stroke-width:2.85714"
       d="M 103.84873,327.54046 V 103.25474 H 328.13445 552.42016 V 327.54046 551.82617 H 328.13445 103.84873 Z m 277.82966,136.45677 c 29.4794,-29.44877 53.59891,-54.85949 53.59891,-56.46826 0,-1.60877 -17.35774,-20.24708 -38.5728,-41.41844 l -38.57277,-38.49339 38.57277,-38.64675 c 21.21506,-21.25571 38.5728,-39.90313 38.5728,-41.4387 0,-1.53557 -23.45125,-26.26893 -52.11389,-54.96302 -51.2809,-51.33716 -52.30845,-52.17107 -64.28572,-52.17107 h -12.17182 v 67.82019 67.82018 l -41.43004,-41.35613 -41.43004,-41.35612 -14.97663,14.97662 -14.97663,14.97663 52.11175,52.11175 52.11175,52.11175 -52.10216,52.15933 -52.10216,52.15932 14.96704,14.96705 14.96704,14.96703 41.43004,-41.35614 41.43004,-41.35612 v 67.344 c 0,37.0392 0.85715,68.20115 1.90477,69.24875 1.04761,1.04763 5.85667,1.90477 10.68679,1.90477 7.58547,0 16.08502,-7.2954 62.38096,-53.54323 z M 217.34329,348.33728 c 9.86371,-9.77603 17.93401,-19.1346 17.93401,-20.79682 0,-1.66222 -8.33801,-11.28612 -18.52891,-21.38643 l -18.5289,-18.36421 -7.6053,5.67818 c -4.18292,3.12299 -13.3405,12.35542 -20.35018,20.51651 l -12.74488,14.83833 17.9034,18.64452 c 9.84686,10.25449 19.27214,18.64453 20.94506,18.64453 1.67293,0 11.11199,-7.99857 20.9757,-17.77461 z m 261.58453,-1.58529 19.21154,-19.3599 -20.00246,-19.84919 -20.00245,-19.84919 -20.00246,19.84919 -20.00246,19.84919 19.21154,19.3599 c 10.56635,10.64794 19.92338,19.3599 20.79338,19.3599 0.87,0 10.22702,-8.71196 20.79337,-19.3599 z"
       id="path945"
       transform="matrix(0.26458333,0,0,0.26458333,20.526334,45.251945)" />
    <path
       style="fill:#3a3a3a;fill-opacity:1;stroke-width:2.85714"
       d="M 103.84873,327.54046 V 103.25474 H 328.13445 552.42016 V 327.54046 551.82617 H 328.13445 103.84873 Z M 381.53482,464.0678 c 29.55837,-29.40994 53.74248,-54.6998 53.74248,-56.19966 0,-1.49985 -17.33771,-20.22442 -38.52823,-41.61015 l -38.52824,-38.88313 38.52824,-38.44893 c 21.19052,-21.14692 38.52823,-39.79811 38.52823,-41.4471 0,-1.64899 -23.54325,-26.41685 -52.31834,-55.03969 -51.14433,-50.87373 -52.58689,-52.04154 -64.28572,-52.04154 h -11.96737 v 67.82019 67.82018 l -41.43004,-41.35613 -41.43004,-41.35612 -14.97663,14.97662 -14.97663,14.97663 52.11175,52.11175 52.11175,52.11175 -52.10216,52.15933 -52.10216,52.15932 14.96704,14.96705 14.96704,14.96703 41.43004,-41.35614 41.43004,-41.35612 v 67.344 c 0,37.0392 0.85715,68.20115 1.90477,69.24875 1.04761,1.04763 5.79207,1.90477 10.54323,1.90477 7.3911,0 16.39866,-7.72123 62.38095,-53.47266 z M 217.34329,348.33728 c 9.86371,-9.77603 17.93401,-19.1346 17.93401,-20.79682 0,-1.66222 -8.28579,-11.23436 -18.41287,-21.27142 l -18.41287,-18.24921 -10.87284,9.76032 c -5.98007,5.36817 -15.14107,14.51589 -20.3578,20.32827 l -9.48495,10.56795 18.71776,18.71776 c 10.29476,10.29477 19.67126,18.71776 20.83665,18.71776 1.16539,0 10.1892,-7.99857 20.05291,-17.77461 z m 261.58453,-1.58529 19.21154,-19.3599 -20.00246,-19.84919 -20.00245,-19.84919 -20.00246,19.84919 -20.00246,19.84919 19.21154,19.3599 c 10.56635,10.64794 19.92338,19.3599 20.79338,19.3599 0.87,0 10.22702,-8.71196 20.79337,-19.3599 z"
       id="path947"
       transform="matrix(0.26458333,0,0,0.26458333,20.526334,45.251945)" />
    <path
       style="fill:#3a3a3a;fill-opacity:1;stroke-width:2.85714"
       d="m 553.78087,327.54046 c 2.2e-4,-124.14286 0.35185,-174.51151 0.78139,-111.93033 0.42954,62.58117 0.42936,164.1526 -4e-4,225.71427 -0.42977,61.56169 -0.78121,10.35892 -0.78099,-113.78394 z"
       id="path949"
       transform="matrix(0.26458333,0,0,0.26458333,20.526334,45.251945)" />
    <path
       style="fill:#3a3a3a;fill-opacity:1;stroke-width:2.85714"
       d="M 0.99158857,327.54046 V 0.39760143 H 328.13445 655.2773 V 327.54046 654.68332 H 328.13445 0.99158857 Z M 577.46802,498.25474 l -0.6664,-79.28571 -0.80809,77.85714 -0.80806,77.85715 H 328.08853 80.991589 V 327.54046 80.397601 H 328.09256 575.1935 l 0.79969,86.428569 0.79966,86.42857 0.6708,-87.85714 0.6708,-87.857141 h -250 -250.000004 v 250.000001 250 h 250.000004 250 z M 555.2773,327.54046 V 100.3976 H 328.13445 100.99159 V 327.54046 554.68332 H 328.13445 555.2773 Z"
       id="path951"
       transform="matrix(0.26458333,0,0,0.26458333,20.526334,45.251945)" />
    <path
       style="fill:#3a3a3a;fill-opacity:1;stroke-width:2.85714"
       d="M 0.99158857,327.54046 V 0.39760143 H 328.13445 655.2773 V 327.54046 654.68332 H 328.13445 0.99158857 Z M 577.4801,515.3976 l -0.65434,-62.14286 -0.83106,60.71429 -0.83105,60.71429 H 328.07762 80.991589 V 327.54046 80.397601 H 328.08365 575.1757 l 0.81832,69.285719 0.81831,69.28571 0.66106,-70.71429 0.66106,-70.714281 h -250 -250.000004 v 250.000001 250 h 250.000004 250 z M 555.2773,327.54046 V 100.3976 H 328.13445 100.99159 V 327.54046 554.68332 H 328.13445 555.2773 Z"
       id="path953"
       transform="matrix(0.26458333,0,0,0.26458333,20.526334,45.251945)" />
    <path
       style="fill:#3a3a3a;fill-opacity:1;stroke-width:2.85714"
       d="M 0.99158857,327.54046 V 0.39760143 H 328.13445 655.2773 V 327.54046 654.68332 H 328.13445 0.99158857 Z M 577.49607,529.68332 l -0.6384,-47.85715 -0.86097,46.42857 -0.86094,46.42858 H 328.06367 80.991589 V 327.54046 80.397601 H 328.07139 575.15122 l 0.84431,53.571429 0.84429,53.57143 0.64731,-55 0.64732,-55.000001 h -250 -250.000004 v 250.000001 250 h 250.000004 250 z M 555.2773,327.54046 V 100.3976 H 328.13445 100.99159 V 327.54046 554.68332 H 328.13445 555.2773 Z"
       id="path955"
       transform="matrix(0.26458333,0,0,0.26458333,20.526334,45.251945)" />
    <path
       style="fill:#3a3a3a;fill-opacity:1;stroke-width:2.85714"
       d="M 0.99158857,327.54046 V 0.39760143 H 328.13445 655.2773 V 327.54046 654.68332 H 328.13445 0.99158857 Z M 577.5135,539.68332 l -0.62094,-37.85715 -0.893,36.42857 -0.89297,36.42858 H 328.04907 80.991589 V 327.54046 80.397601 H 328.05599 575.12042 l 0.87768,40.714289 0.87772,40.71428 0.62931,-42.14285 0.62932,-42.142861 h -250 -250.000004 v 250.000001 250 h 250.000004 250 z M 555.2773,327.54046 V 100.3976 H 328.13445 100.99159 V 327.54046 554.68332 H 328.13445 555.2773 Z"
       id="path957"
       transform="matrix(0.26458333,0,0,0.26458333,20.526334,45.251945)" />
    <path
       style="fill:#3a3a3a;fill-opacity:1;stroke-width:2.85714"
       d="M 0.99158857,327.54046 V 0.39760143 H 328.13445 655.2773 V 327.54046 654.68332 H 328.13445 0.99158857 Z M 577.53647,548.25474 l -0.59797,-29.28571 -0.93405,27.85714 -0.93406,27.85715 H 328.03099 80.991589 V 327.54046 80.397601 H 328.04087 575.09016 l 0.9114,32.142859 0.91143,32.14286 0.61071,-33.57143 0.61075,-33.571431 h -250 -250.000004 v 250.000001 250 h 250.000004 250 z M 555.2773,327.54046 V 100.3976 H 328.13445 100.99159 V 327.54046 554.68332 H 328.13445 555.2773 Z"
       id="path959"
       transform="matrix(0.26458333,0,0,0.26458333,20.526334,45.251945)" />
    <path
       style="fill:#3a3a3a;fill-opacity:1;stroke-width:2.85714"
       d="M 0.99158857,327.54046 V 0.39760143 H 328.13445 655.2773 V 327.54046 654.68332 H 328.13445 0.99158857 Z M 577.55947,553.96903 l -0.575,-23.57143 -0.97377,22.14286 -0.97377,22.14286 H 328.01427 80.991589 V 327.54046 80.397601 H 328.02722 575.06287 l 0.9428,26.428569 0.94283,26.42857 0.59297,-27.85714 0.59298,-27.857141 h -250 -250.000004 v 250.000001 250 h 250.000004 250 z M 555.2773,327.54046 V 100.3976 H 328.13445 100.99159 V 327.54046 554.68332 H 328.13445 555.2773 Z"
       id="path961"
       transform="matrix(0.26458333,0,0,0.26458333,20.526334,45.251945)" />
    <path
       style="fill:#3a3a3a;fill-opacity:1;stroke-width:2.85714"
       d="M 0.99158857,327.54046 V 0.39760143 H 328.13445 655.2773 V 327.54046 654.68332 H 328.13445 0.99158857 Z M 577.59422,559.68332 l -0.54026,-17.85715 -1.03091,16.42857 -1.03092,16.42858 H 327.99187 80.991589 V 327.54046 80.397601 H 328.0039 575.01622 l 0.99951,19.285715 0.99952,19.285714 0.5596,-20.714286 0.5596,-20.714285 h -250 -250.000004 v 250.000001 250 h 250.000004 250 z M 555.2773,327.54046 V 100.3976 H 328.13445 100.99159 V 327.54046 554.68332 H 328.13445 555.2773 Z"
       id="path963"
       transform="matrix(0.26458333,0,0,0.26458333,20.526334,45.251945)" />
    <path
       style="fill:#3a3a3a;fill-opacity:1;stroke-width:2.85714"
       d="M 0.99158857,327.54046 V 0.39760143 H 328.13445 655.2773 V 327.54046 654.68332 H 328.13445 0.99158857 Z m 576.62786143,235 -0.515,-15 -1.07012,13.57143 -1.07011,13.57143 H 327.9779 80.991589 V 327.54046 80.397601 H 327.98513 574.97867 l 1.04938,15 1.04937,14.999999 0.52851,-16.42857 0.52852,-16.428571 h -250 -250.000004 v 250.000001 250 h 250.000004 250 z m -22.34215,-235 V 100.3976 H 328.13445 100.99159 V 327.54046 554.68332 H 328.13445 555.2773 Z"
       id="path965"
       transform="matrix(0.26458333,0,0,0.26458333,20.526334,45.251945)" />
    <path
       style="fill:#3a3a3a;fill-opacity:1;stroke-width:2.85714"
       d="M 0.99158857,327.54046 V 0.39760143 H 328.13445 655.2773 V 327.54046 654.68332 H 328.13445 0.99158857 Z M 577.65416,565.3976 l -0.48031,-12.14286 -1.12075,10.71429 -1.12074,10.71429 H 327.96196 80.991589 V 327.54046 80.397601 H 327.97016 574.94873 l 1.09369,12.142858 1.09371,12.142861 0.49914,-13.571433 0.49918,-13.571428 h -250 -250.000004 v 250.000001 250 h 250.000004 250 z M 555.2773,327.54046 V 100.3976 H 328.13445 100.99159 V 327.54046 554.68332 H 328.13445 555.2773 Z"
       id="path967"
       transform="matrix(0.26458333,0,0,0.26458333,20.526334,45.251945)" />
    <rect
       style="fill:#3a3a3a;fill-opacity:1;stroke-width:0.264583"
       id="rect969"
       width="12.688679"
       height="150.66087"
       x="41.199406"
       y="65.76786" />
    <rect
       style="fill:#3a3a3a;fill-opacity:1;stroke-width:0.264583"
       id="rect971"
       width="145.89879"
       height="27.214294"
       x="48.002975"
       y="191.25595" />
    <rect
       style="fill:#3a3a3a;fill-opacity:1;stroke-width:0.264583"
       id="rect973"
       width="130.36037"
       height="14.019081"
       x="43.130688"
       y="184.04047" />
    <rect
       style="fill:#3a3a3a;fill-opacity:1;stroke-width:0.264583"
       id="rect975"
       width="35.44944"
       height="147.97223"
       x="151.62791"
       y="53.647835" />
    <rect
       style="fill:#3a3a3a;fill-opacity:1;stroke-width:0.264583"
       id="rect977"
       width="132.29958"
       height="25.200922"
       x="40.877712"
       y="55.308002" />
  </g>
</svg>
