<?xml version="1.0" encoding="UTF-8" standalone="no"?>
<svg
   xmlns:dc="http://purl.org/dc/elements/1.1/"
   xmlns:cc="http://creativecommons.org/ns#"
   xmlns:rdf="http://www.w3.org/1999/02/22-rdf-syntax-ns#"
   xmlns:svg="http://www.w3.org/2000/svg"
   xmlns="http://www.w3.org/2000/svg"
   xmlns:sodipodi="http://sodipodi.sourceforge.net/DTD/sodipodi-0.dtd"
   xmlns:inkscape="http://www.inkscape.org/namespaces/inkscape"
   width="173.39732mm"
   height="173.39732mm"
   viewBox="0 0 173.39732 173.39732"
   version="1.1"
   id="svg8"
   inkscape:version="1.0.2 (e86c870879, 2021-01-15, custom)"
   sodipodi:docname="RMS_LOGO-square.svg">
  <defs
     id="defs2" />
  <sodipodi:namedview
     id="base"
     pagecolor="#ffffff"
     bordercolor="#666666"
     borderopacity="1.0"
     inkscape:pageopacity="0.0"
     inkscape:pageshadow="2"
     inkscape:zoom="0.35"
     inkscape:cx="-102.09951"
     inkscape:cy="402.01416"
     inkscape:document-units="mm"
     inkscape:current-layer="layer1"
     inkscape:document-rotation="0"
     showgrid="false"
     inkscape:window-width="1908"
     inkscape:window-height="1044"
     inkscape:window-x="1080"
     inkscape:window-y="444"
     inkscape:window-maximized="0" />
  <metadata
     id="metadata5">
    <rdf:RDF>
      <cc:Work
         rdf:about="">
        <dc:format>image/svg+xml</dc:format>
        <dc:type
           rdf:resource="http://purl.org/dc/dcmitype/StillImage" />
        <dc:title></dc:title>
      </cc:Work>
    </rdf:RDF>
  </metadata>
  <g
     inkscape:label="Layer 1"
     inkscape:groupmode="layer"
     id="layer1"
     transform="translate(-19.07633,-41.80042)">
    <g
       id="g474"
       transform="translate(192.99209,253.14051)">
      <path
         style="fill:#fdfdfd;stroke-width:0.0846667"
         d="m -163.41709,-124.9801 v -30.47999 h 76.19999 76.199994 v 30.47999 30.480001 H -87.2171 -163.41709 Z m 58.41999,0 v -27.93999 h -27.94 -27.93999 v 27.93999 27.940001 h 27.93999 27.94 z m 77.173662,14.77712 c 3.345976,-0.61691 5.596551,-2.06669 6.725115,-4.33221 0.505477,-1.01472 0.708686,-1.95547 0.701658,-3.24824 -0.01201,-2.20593 -0.68563,-3.63747 -2.331212,-4.9541 -1.319707,-1.0559 -2.899638,-1.66405 -7.339227,-2.82504 -4.264194,-1.11512 -5.250061,-1.50696 -6.347155,-2.5227 -1.188822,-1.10067 -1.53747,-2.59342 -1.007999,-4.31585 0.571144,-1.85803 2.52432,-3.15835 5.261618,-3.50289 1.172879,-0.14763 3.511567,-0.0677 4.550469,0.15552 1.625227,0.34921 3.323615,1.00689 4.633442,1.79425 l 0.444034,0.26692 0.07645,-0.19722 c 0.04205,-0.10847 0.26952,-0.6512 0.505494,-1.20606 0.496401,-1.1672 0.562035,-0.99387 -0.623358,-1.6461 -1.400006,-0.77032 -3.108215,-1.33469 -5.08,-1.67838 -1.290336,-0.22491 -4.308745,-0.20109 -5.660448,0.0447 -3.383263,0.61512 -5.811291,2.30959 -6.793365,4.74095 -0.407586,1.0091 -0.495664,1.50852 -0.495114,2.80736 8.47e-4,1.93159 0.402302,3.09986 1.456614,4.2386 1.517142,1.63867 3.167659,2.38561 8.106705,3.6687 3.827797,0.99441 4.864015,1.36502 5.916405,2.11598 1.152694,0.82255 1.658831,1.69125 1.725227,2.96108 0.07471,1.42877 -0.294852,2.42205 -1.248732,3.35631 -1.193901,1.16934 -2.563308,1.67212 -5.080541,1.86536 -3.560106,0.27328 -7.668547,-0.93556 -9.892427,-2.91067 -0.244001,-0.21672 -0.470942,-0.3935 -0.504317,-0.39286 -0.03337,8.4e-4 -0.317432,0.50443 -0.631249,1.11956 l -0.570586,1.1184 0.358919,0.36598 c 1.420791,1.44872 4.558013,2.75131 7.682577,3.18984 1.192479,0.16736 4.378959,0.12234 5.460999,-0.0772 z m -66.505661,-4.49012 v -4.445 l 4.296833,-8.4e-4 c 2.363258,0 4.546074,-0.0241 4.850705,-0.0529 l 0.553881,-0.0523 3.198732,4.49792 3.198731,4.49794 h 1.649891 c 1.297017,0 1.636429,-0.0226 1.586967,-0.10584 -0.0346,-0.0582 -1.563971,-2.21408 -3.398605,-4.79083 -1.834633,-2.57675 -3.323039,-4.69592 -3.307579,-4.70927 0.01546,-0.0134 0.357488,-0.15756 0.760053,-0.32046 1.269322,-0.51362 2.054919,-1.03449 3.033962,-2.0116 1.043863,-1.0418 1.575011,-1.86809 1.999428,-3.11044 0.426263,-1.24775 0.566725,-2.27703 0.517195,-3.7899 -0.04322,-1.32003 -0.16394,-2.04269 -0.509168,-3.04799 -1.070864,-3.11835 -3.81298,-5.2289 -7.772307,-5.98218 -0.924153,-0.17583 -1.230189,-0.18489 -7.335553,-0.21703 l -6.371166,-0.0335 v 14.05953 14.05954 h 1.524 1.524 v -4.445 z m 0,-14.00825 v -7.04401 l 4.677833,0.0363 c 4.313529,0.0335 4.740469,0.0498 5.482166,0.20958 3.01045,0.64849 4.793767,2.13665 5.506347,4.595 0.228515,0.78837 0.320455,2.65368 0.173592,3.52203 -0.467157,2.7622 -2.29583,4.62514 -5.214273,5.31199 -1.213273,0.28554 -1.850389,0.32333 -6.201832,0.36784 l -4.423833,0.0452 z m 41.415399,18.31848 c 2.092841,-0.26993 3.873788,-0.88569 5.107178,-1.76582 0.63947,-0.45632 1.421358,-1.2949 1.810681,-1.94195 1.119945,-1.86139 1.220571,-4.87425 0.23219,-6.95246 -0.79679,-1.67535 -2.326886,-2.9108 -4.357878,-3.51872 l -0.623426,-0.18659 0.585995,-0.30836 c 1.682843,-0.88553 2.841244,-2.27387 3.326926,-3.98733 0.234467,-0.82717 0.316856,-2.38384 0.173422,-3.27677 -0.43793,-2.72631 -2.336114,-4.65737 -5.421824,-5.51576 -1.690869,-0.47037 -1.522163,-0.46136 -9.292166,-0.4967 l -7.217833,-0.0328 v 14.05904 14.05903 h 7.315902 c 6.196432,0 7.475787,-0.0206 8.360833,-0.13477 z m -12.628735,-7.56989 v -5.24934 h 5.541331 c 6.043219,0 6.822101,0.0452 8.194886,0.47533 1.888871,0.59186 2.996845,1.58712 3.472807,3.11949 0.223181,0.71854 0.259977,2.26307 0.07169,3.00918 -0.585885,2.32158 -2.446562,3.49879 -6.020045,3.80877 -0.535517,0.0464 -3.288242,0.0848 -6.117166,0.0852 l -5.1435,8.5e-4 v -5.24934 z m 0,-12.827 v -5.03767 l 5.1435,3.4e-4 c 5.359247,3.4e-4 5.935234,0.0316 7.133166,0.38697 1.814017,0.53814 3.10686,1.75775 3.506537,3.30791 0.155618,0.60356 0.175878,1.85357 0.04056,2.50244 -0.43296,2.07617 -2.294975,3.42288 -5.238216,3.78853 -0.427999,0.0532 -2.708021,0.0891 -5.6515,0.0891 h -4.934051 v -5.03766 z"
         id="path494" />
      <path
         style="fill:#e7e7e7;stroke-width:0.0846667"
         d="m -32.368979,-110.05193 c 0.06112,-0.0245 0.134146,-0.0215 0.16228,0.007 0.02813,0.0281 -0.02188,0.0482 -0.111125,0.0445 -0.09864,-0.004 -0.118694,-0.0241 -0.05116,-0.0512 z m 2.963333,0 c 0.06112,-0.0245 0.134146,-0.0215 0.16228,0.007 0.02814,0.0281 -0.02188,0.0482 -0.111125,0.0445 -0.09864,-0.004 -0.118694,-0.0241 -0.05116,-0.0512 z m -64.968697,-4.64117 c 1.4e-5,-2.46803 0.01083,-3.46547 0.02403,-2.21654 0.0132,1.24894 0.01319,3.26824 -2.6e-5,4.48734 -0.01322,1.21909 -0.02402,0.19724 -0.024,-2.2708 z m 62.806014,2.10033 c 0.08238,-0.0215 0.196681,-0.0201 0.254,0.003 0.05733,0.0232 -0.01008,0.0408 -0.149775,0.039 -0.1397,-0.002 -0.186597,-0.0207 -0.104225,-0.0422 z m 1.310725,0.003 c 0.05821,-0.0235 0.153458,-0.0235 0.211666,0 0.05821,0.0235 0.01058,0.0427 -0.105833,0.0427 -0.116417,0 -0.164042,-0.0192 -0.105833,-0.0427 z m -35.329662,-5.36261 c 0,-2.91042 0.01063,-4.10105 0.02362,-2.64584 0.01299,1.45521 0.01299,3.83646 0,5.29167 -0.013,1.45521 -0.02362,0.26458 -0.02362,-2.64583 z m 10.781622,5.19149 c 0.06112,-0.0245 0.134146,-0.0215 0.16228,0.007 0.02813,0.0281 -0.02188,0.0482 -0.111125,0.0445 -0.09864,-0.004 -0.118694,-0.0241 -0.05116,-0.0512 z m 14.906404,-2.96899 c -0.105309,-0.13429 -0.10232,-0.13728 0.03197,-0.032 0.08149,0.0639 0.148166,0.13059 0.148166,0.14816 0,0.0697 -0.06953,0.0248 -0.180136,-0.11619 z m -5.225161,-1.62984 c 0,-0.11641 0.01922,-0.16404 0.04271,-0.10583 0.02349,0.0582 0.02349,0.15346 0,0.21167 -0.02349,0.0582 -0.04271,0.0106 -0.04271,-0.10584 z m 24.732359,-0.33866 c 0,-0.20955 0.01651,-0.29528 0.03669,-0.1905 0.02019,0.10477 0.02019,0.27622 0,0.381 -0.02018,0.10477 -0.03669,0.0191 -0.03669,-0.1905 z m -24.732359,-0.508 c 0,-0.11642 0.01922,-0.16405 0.04271,-0.10584 0.02349,0.0582 0.02349,0.15346 0,0.21167 -0.02349,0.0582 -0.04271,0.0106 -0.04271,-0.10583 z m -49.248941,-10.49867 c 0,-3.88832 0.01037,-5.47899 0.02305,-3.53483 0.01268,1.94416 0.01268,5.12551 0,7.06966 -0.01268,1.94416 -0.02305,0.35349 -0.02305,-3.53483 z m 7.644066,6.96745 c 0.105317,-0.0203 0.257717,-0.0195 0.338667,0.002 0.08094,0.0212 -0.0053,0.0378 -0.191491,0.0368 -0.186267,-9.3e-4 -0.252501,-0.0183 -0.147176,-0.0385 z m 64.616283,-0.42695 -0.291779,-0.3175 0.3175,0.29178 c 0.295521,0.27157 0.35643,0.34322 0.291779,0.34322 -0.01415,0 -0.157023,-0.14288 -0.3175,-0.3175 z m -24.68382,-0.381 -0.16129,-0.1905 0.1905,0.16129 c 0.179019,0.15157 0.22904,0.21971 0.16129,0.21971 -0.01607,0 -0.101795,-0.0857 -0.1905,-0.1905 z m -18.809799,-8.255 -0.02049,-5.10117 4.804833,0.0204 4.804833,0.0205 -4.76183,0.0226 -4.76184,0.0226 -0.02251,5.05813 -0.0225,5.05813 z m 28.924705,2.54 c -0.105309,-0.13429 -0.10232,-0.13728 0.03197,-0.032 0.08149,0.0639 0.148166,0.13059 0.148166,0.14817 0,0.0697 -0.06953,0.0248 -0.180136,-0.1162 z m -14.176188,-5.79967 -0.248674,-0.27516 0.275166,0.24867 c 0.256498,0.2318 0.314088,0.30166 0.248675,0.30166 -0.01457,0 -0.138396,-0.12382 -0.275167,-0.27517 z m -27.045672,-1.2065 c -0.205656,-0.20955 -0.354872,-0.381 -0.331589,-0.381 0.02328,0 0.2106,0.17145 0.416255,0.381 0.205656,0.20955 0.354872,0.381 0.331589,0.381 -0.02328,0 -0.2106,-0.17145 -0.416255,-0.381 z m -7.720541,-0.43883 c 0.06112,-0.0245 0.134145,-0.0215 0.16228,0.007 0.02814,0.0281 -0.02188,0.0481 -0.111125,0.0445 -0.09864,-0.004 -0.118694,-0.0241 -0.05115,-0.0512 z m 55.155037,-0.3392 c 0.08149,-0.0213 0.214842,-0.0213 0.296333,0 0.08149,0.0213 0.01482,0.0387 -0.148166,0.0387 -0.162984,0 -0.229659,-0.0174 -0.148167,-0.0387 z m -24.590373,-2.28547 c 0.06112,-0.0245 0.134146,-0.0214 0.16228,0.007 0.02814,0.0281 -0.02188,0.0481 -0.111125,0.0445 -0.09864,-0.004 -0.118694,-0.0241 -0.05116,-0.0512 z m 23.537331,-0.254 c 0.06112,-0.0245 0.134146,-0.0215 0.162281,0.007 0.02813,0.0281 -0.02188,0.0481 -0.111125,0.0445 -0.09864,-0.004 -0.118694,-0.0241 -0.05116,-0.0512 z m 2.286,0 c 0.06112,-0.0245 0.134146,-0.0215 0.162281,0.007 0.02813,0.0281 -0.02188,0.0481 -0.111125,0.0445 -0.09864,-0.004 -0.118694,-0.0241 -0.05116,-0.0512 z"
         id="path492" />
      <path
         style="fill:#d7d7d7;stroke-width:0.0846667"
         d="m -45.118127,-117.78343 c 0,-0.16298 0.01742,-0.22966 0.03872,-0.14817 0.0213,0.0815 0.0213,0.21484 0,0.29634 -0.02129,0.0815 -0.03872,0.0148 -0.03872,-0.14817 z m -41.098848,-3.9525 c 0.06112,-0.0245 0.134146,-0.0215 0.162281,0.007 0.02813,0.0281 -0.02188,0.0482 -0.111125,0.0445 -0.09864,-0.004 -0.118695,-0.0241 -0.05116,-0.0511 z m 5.942541,-2.0908 c 0,-0.0176 0.06668,-0.0843 0.148167,-0.14817 0.13429,-0.10531 0.137278,-0.10232 0.03197,0.032 -0.110609,0.14103 -0.180137,0.18589 -0.180137,0.1162 z m 1.888041,-4.8787 c 0,-0.25612 0.01587,-0.36089 0.03527,-0.23283 0.0194,0.12806 0.0194,0.33761 0,0.46566 -0.0194,0.12806 -0.03527,0.0233 -0.03527,-0.23283 z m 28.784353,-2.11667 c 0,-0.20955 0.01651,-0.29527 0.03669,-0.1905 0.02018,0.10478 0.02018,0.27623 0,0.381 -0.02018,0.10478 -0.03669,0.019 -0.03669,-0.1905 z m -6.388937,-5.05317 c 0.06112,-0.0245 0.134145,-0.0214 0.16228,0.007 0.02813,0.0281 -0.02188,0.0482 -0.111125,0.0445 -0.09864,-0.004 -0.118694,-0.0241 -0.05116,-0.0512 z m 25.140706,-0.16757 c 0.05821,-0.0235 0.153458,-0.0235 0.211667,0 0.05821,0.0235 0.01058,0.0427 -0.105834,0.0427 -0.116416,0 -0.164041,-0.0192 -0.105833,-0.0427 z m 0.846667,0 c 0.05821,-0.0235 0.153458,-0.0235 0.211666,0 0.05821,0.0235 0.01058,0.0427 -0.105833,0.0427 -0.116417,0 -0.164042,-0.0192 -0.105833,-0.0427 z"
         id="path490" />
      <path
         style="fill:#c6c6c6;stroke-width:0.0846667"
         d="m -22.404772,-112.7881 c 0.08429,-0.0931 0.172297,-0.16933 0.19558,-0.16933 0.02328,0 -0.02663,0.0762 -0.110913,0.16933 -0.08429,0.0931 -0.172297,0.16934 -0.19558,0.16934 -0.02328,0 0.02663,-0.0762 0.110913,-0.16934 z m -2.328333,-1.55597 c 0,-0.0176 0.06668,-0.0842 0.148167,-0.14816 0.13429,-0.10531 0.137278,-0.10232 0.03197,0.032 -0.110609,0.14103 -0.180137,0.18588 -0.180137,0.11619 z m 1.361347,-2.98075 c 0.0041,-0.0986 0.02413,-0.11869 0.05116,-0.0511 0.02446,0.0611 0.02145,0.13414 -0.0067,0.16228 -0.02814,0.0281 -0.04815,-0.0219 -0.04448,-0.11113 z m 0,-0.33866 c 0.0041,-0.0986 0.02413,-0.1187 0.05116,-0.0512 0.02446,0.0611 0.02145,0.13415 -0.0067,0.16228 -0.02814,0.0281 -0.04815,-0.0219 -0.04448,-0.11112 z m -62.50655,-1.53245 c 0.06112,-0.0245 0.134145,-0.0215 0.16228,0.007 0.02813,0.0281 -0.02188,0.0481 -0.111125,0.0445 -0.09864,-0.004 -0.118694,-0.0241 -0.05116,-0.0512 z m 1.201208,-0.0268 c -0.07631,-0.0493 -0.08675,-0.0826 -0.02616,-0.0834 0.05546,-8.4e-4 0.124384,0.0368 0.153162,0.0834 0.06497,0.10511 0.03565,0.10511 -0.127,0 z m 60.271858,-0.99484 c -0.105308,-0.13429 -0.102319,-0.13728 0.03197,-0.032 0.08149,0.0639 0.148166,0.13059 0.148166,0.14817 0,0.0697 -0.06953,0.0248 -0.180137,-0.1162 z m -38.61836,-3.04795 c 1.455208,-0.013 3.836458,-0.013 5.291666,0 1.455209,0.013 0.264584,0.0236 -2.645833,0.0236 -2.910416,0 -4.101041,-0.0106 -2.645833,-0.0236 z m -0.254,-2.45532 c 1.268942,-0.0132 3.345392,-0.0132 4.614333,0 1.268942,0.0132 0.230717,0.0239 -2.307166,0.0239 -2.537883,0 -3.576108,-0.0108 -2.307167,-0.0239 z m 14.499166,-0.3072 c 0,-0.0176 0.06667,-0.0842 0.148166,-0.14816 0.13429,-0.10531 0.137279,-0.10232 0.03197,0.032 -0.110608,0.14103 -0.180136,0.18588 -0.180136,0.11619 z m 8.134679,-4.33541 c 0.0041,-0.0986 0.02413,-0.1187 0.05116,-0.0512 0.02446,0.0611 0.02145,0.13415 -0.0067,0.16228 -0.02813,0.0281 -0.04815,-0.0219 -0.04447,-0.11112 z m 9.544778,-5.68112 c 0.06112,-0.0245 0.134146,-0.0214 0.16228,0.007 0.02814,0.0281 -0.02188,0.0482 -0.111125,0.0445 -0.09864,-0.004 -0.118694,-0.0241 -0.05116,-0.0512 z m 1.439333,0 c 0.06112,-0.0245 0.134146,-0.0214 0.16228,0.007 0.02813,0.0281 -0.02188,0.0482 -0.111124,0.0445 -0.09864,-0.004 -0.118695,-0.0241 -0.05116,-0.0512 z m -56.218662,-2.286 c 0.06112,-0.0245 0.134145,-0.0214 0.16228,0.007 0.02813,0.0281 -0.02188,0.0481 -0.111125,0.0445 -0.09864,-0.004 -0.118694,-0.0241 -0.05116,-0.0512 z m 54.774037,-0.25224 c 0.05821,-0.0235 0.153458,-0.0235 0.211667,0 0.05821,0.0235 0.01058,0.0427 -0.105834,0.0427 -0.116416,0 -0.164041,-0.0192 -0.105833,-0.0427 z"
         id="path488" />
      <path
         style="fill:#fecb56;stroke-width:0.0846667"
         d="m -135.30776,-110.31134 v -8.61457 l -5.207,5.20647 -5.20699,5.20648 -1.67193,-1.67193 -1.67194,-1.67193 6.39189,-6.3923 6.39188,-6.39231 -6.39188,-6.3923 -6.39189,-6.39231 1.67194,-1.67193 1.67193,-1.67193 5.20699,5.20648 5.207,5.20647 v -8.61457 -8.61457 h 1.2067 1.20671 l 6.56122,6.56163 6.56122,6.56163 -4.91015,4.9107 -4.91016,4.9107 4.91016,4.9107 4.91015,4.9107 -6.56122,6.56163 -6.56122,6.56163 h -1.20671 -1.2067 z m 6.83748,-2.4139 2.05253,-2.05381 -2.07434,-2.07304 -2.07434,-2.07305 v 4.12686 c 0,2.26976 0.01,4.12685 0.0218,4.12685 0.012,0 0.94546,-0.92421 2.07434,-2.05381 z m 0,-19.72733 2.05253,-2.05381 -2.07434,-2.07304 -2.07434,-2.07305 v 4.12686 c 0,2.26976 0.01,4.12685 0.0218,4.12685 0.012,0 0.94546,-0.92422 2.07434,-2.05381 z m -22.83948,10.13947 -2.32757,-2.32872 2.32834,-2.32833 2.32833,-2.32833 2.32756,2.32872 2.32757,2.32872 -2.32833,2.32833 -2.32834,2.32834 z m 32.08866,0 -2.32756,-2.32872 2.32833,-2.32833 2.32833,-2.32833 2.32757,2.32872 2.32756,2.32872 -2.32833,2.32833 -2.32833,2.32834 z"
         id="path486" />
      <path
         style="fill:#b0b0b0;stroke-width:0.0846667"
         d="m -31.776313,-110.05193 c 0.06112,-0.0245 0.134146,-0.0215 0.162281,0.007 0.02814,0.0281 -0.02188,0.0482 -0.111125,0.0445 -0.09864,-0.004 -0.118694,-0.0241 -0.05116,-0.0512 z m 1.688042,0.002 c 0.05821,-0.0235 0.153458,-0.0235 0.211667,0 0.05821,0.0235 0.01058,0.0427 -0.105834,0.0427 -0.116416,0 -0.164041,-0.0192 -0.105833,-0.0427 z m -24.29404,-0.25576 c 0.06112,-0.0245 0.134146,-0.0215 0.162281,0.007 0.02813,0.0281 -0.02188,0.0481 -0.111125,0.0445 -0.09864,-0.004 -0.118694,-0.0241 -0.05116,-0.0512 z m 22.267332,-2.286 c 0.06112,-0.0245 0.134146,-0.0215 0.16228,0.007 0.02813,0.0281 -0.02188,0.0481 -0.111125,0.0445 -0.09864,-0.004 -0.118694,-0.0241 -0.05116,-0.0512 z m -15.139457,-0.0533 c 0,-0.0146 0.123825,-0.13839 0.275166,-0.27516 l 0.275167,-0.24868 -0.248675,0.27517 c -0.2318,0.2565 -0.301658,0.31409 -0.301658,0.24867 z m 23.882678,-5.27222 c 0.0041,-0.0986 0.02413,-0.1187 0.05116,-0.0512 0.02446,0.0611 0.02145,0.13415 -0.0067,0.16228 -0.02814,0.0281 -0.04815,-0.0219 -0.04448,-0.11112 z m -62.850509,-1.27669 c 0.05821,-0.0235 0.153459,-0.0235 0.211667,0 0.05821,0.0235 0.01058,0.0427 -0.105833,0.0427 -0.116417,0 -0.164042,-0.0192 -0.105834,-0.0427 z m 0.428625,-2.54176 c 0.06112,-0.0245 0.134146,-0.0215 0.162281,0.007 0.02813,0.0281 -0.02188,0.0482 -0.111125,0.0445 -0.09864,-0.004 -0.118694,-0.0241 -0.05116,-0.0511 z m 30.728706,-1.52224 c 0.05821,-0.0235 0.153459,-0.0235 0.211667,0 0.05821,0.0235 0.01058,0.0427 -0.105833,0.0427 -0.116417,0 -0.164042,-0.0192 -0.105834,-0.0427 z m -1.226058,-2.45793 c 0.08238,-0.0215 0.196681,-0.0201 0.254,0.003 0.05733,0.0232 -0.01008,0.0408 -0.149775,0.039 -0.1397,-0.002 -0.186597,-0.0207 -0.104225,-0.0422 z m 17.577087,-0.42816 c -0.105309,-0.13429 -0.10232,-0.13728 0.03197,-0.032 0.08149,0.0639 0.148167,0.13059 0.148167,0.14816 0,0.0697 -0.06953,0.0248 -0.180137,-0.11619 z m -36.721158,-1.9685 c 0,-0.11642 0.01922,-0.16404 0.0427,-0.10584 0.02349,0.0582 0.02349,0.15346 0,0.21167 -0.02349,0.0582 -0.0427,0.0106 -0.0427,-0.10583 z m -0.0067,-1.15006 c 0.0041,-0.0986 0.02413,-0.11869 0.05116,-0.0512 0.02446,0.0611 0.02145,0.13414 -0.0067,0.16228 -0.02813,0.0281 -0.04815,-0.0219 -0.04448,-0.11113 z m -2.963333,-0.16933 c 0.0041,-0.0986 0.02413,-0.1187 0.05115,-0.0512 0.02446,0.0611 0.02146,0.13414 -0.0067,0.16227 -0.02814,0.0281 -0.04815,-0.0219 -0.04448,-0.11112 z m 31.756686,-1.22061 c 0,-0.11642 0.01922,-0.16404 0.04271,-0.10584 0.02349,0.0582 0.02349,0.15346 0,0.21167 -0.02349,0.0582 -0.04271,0.0106 -0.04271,-0.10583 z m 6.022179,-0.21167 c 8.46e-4,-0.23283 0.01708,-0.31803 0.03654,-0.18934 0.01946,0.1287 0.01894,0.3192 -0.0012,0.42334 -0.02009,0.10413 -0.03602,-0.001 -0.03538,-0.234 z m -39.569954,-2.7305 -0.205258,-0.23283 0.232833,0.20526 c 0.217619,0.19184 0.271662,0.2604 0.205258,0.2604 -0.01516,0 -0.119939,-0.10477 -0.232833,-0.23283 z m 41.493072,-2.18017 c 0.109364,-0.11641 0.217898,-0.21166 0.241182,-0.21166 0.02328,0 -0.04715,0.0952 -0.156515,0.21166 -0.109364,0.11642 -0.217898,0.21167 -0.241182,0.21167 -0.02328,0 0.04715,-0.0952 0.156515,-0.21167 z m -9.787042,-0.0635 -0.16129,-0.1905 0.1905,0.16129 c 0.179019,0.15158 0.22904,0.21971 0.16129,0.21971 -0.01607,0 -0.101795,-0.0857 -0.1905,-0.1905 z m -43.912787,0.0424 c 1.129242,-0.0133 2.977092,-0.0133 4.106333,0 1.129242,0.0133 0.205317,0.0242 -2.053166,0.0242 -2.258484,0 -3.182409,-0.0109 -2.053167,-0.0242 z m 61.049954,-0.24841 c 0.06112,-0.0245 0.134146,-0.0214 0.16228,0.007 0.02813,0.0281 -0.02188,0.0482 -0.111125,0.0445 -0.09864,-0.004 -0.118694,-0.0241 -0.05116,-0.0512 z m -54.779329,-2.286 c 0.06112,-0.0245 0.134145,-0.0214 0.16228,0.007 0.02814,0.0281 -0.02188,0.0481 -0.111125,0.0445 -0.09864,-0.004 -0.118694,-0.0241 -0.05115,-0.0512 z m 30.390039,0.002 c 0.05821,-0.0235 0.153458,-0.0235 0.211667,0 0.05821,0.0235 0.01058,0.0427 -0.105834,0.0427 -0.116416,0 -0.164041,-0.0192 -0.105833,-0.0427 z m 25.188331,-0.2596 c 0.174625,-0.0183 0.460375,-0.0183 0.635,0 0.174625,0.0183 0.03175,0.0332 -0.3175,0.0332 -0.34925,0 -0.492125,-0.0149 -0.3175,-0.0332 z"
         id="path484" />
      <path
         style="fill:#8c8c8c;stroke-width:0.0846667"
         d="m -31.442938,-110.05385 c 0.104775,-0.0202 0.276225,-0.0202 0.381,0 0.104775,0.0202 0.01905,0.0367 -0.1905,0.0367 -0.20955,0 -0.295275,-0.0165 -0.1905,-0.0367 z m 0.762,0 c 0.104775,-0.0202 0.276225,-0.0202 0.381,0 0.104775,0.0202 0.01905,0.0367 -0.1905,0.0367 -0.20955,0 -0.295275,-0.0165 -0.1905,-0.0367 z m -24.045331,-0.25032 c 0.05821,-0.0235 0.153458,-0.0235 0.211666,0 0.05821,0.0235 0.01058,0.0427 -0.105833,0.0427 -0.116416,0 -0.164041,-0.0192 -0.105833,-0.0427 z m 13.64609,-3.14009 -0.205258,-0.23284 0.232833,0.20526 c 0.128059,0.11289 0.232834,0.21767 0.232834,0.23283 0,0.0664 -0.06856,0.0124 -0.260409,-0.20525 z m -6.999571,-4.55084 c 9.31e-4,-0.18626 0.01828,-0.2525 0.03853,-0.14717 0.02025,0.10531 0.01948,0.25771 -0.0017,0.33866 -0.02119,0.0809 -0.03776,-0.005 -0.03682,-0.19149 z m -44.323183,-1.20642 c 1.129242,-0.0133 2.977092,-0.0133 4.106333,0 1.129242,0.0133 0.205317,0.0243 -2.053166,0.0243 -2.258484,0 -3.182409,-0.0109 -2.053167,-0.0243 z m 14.499166,-3.02691 c 0.109364,-0.11642 0.217898,-0.21167 0.241181,-0.21167 0.02328,0 -0.04715,0.0953 -0.156515,0.21167 -0.109364,0.11642 -0.217898,0.21167 -0.241181,0.21167 -0.02328,0 0.04715,-0.0952 0.156515,-0.21167 z m 23.18279,-1.0315 c 0.06112,-0.0245 0.134145,-0.0215 0.16228,0.007 0.02813,0.0281 -0.02188,0.0482 -0.111125,0.0445 -0.09864,-0.004 -0.118694,-0.0241 -0.05115,-0.0511 z m -1.185334,-2.45534 c 0.06112,-0.0245 0.134146,-0.0215 0.162281,0.007 0.02813,0.0281 -0.02188,0.0481 -0.111125,0.0445 -0.09864,-0.004 -0.118694,-0.0241 -0.05116,-0.0512 z m 16.938404,-0.68299 c -0.105309,-0.13429 -0.10232,-0.13728 0.03197,-0.032 0.08149,0.0639 0.148167,0.13059 0.148167,0.14816 0,0.0697 -0.06953,0.0248 -0.180137,-0.11619 z m -36.455153,-2.30717 c 0,-0.25612 0.01587,-0.36089 0.03527,-0.23283 0.0194,0.12806 0.0194,0.33761 0,0.46566 -0.01941,0.12806 -0.03527,0.0233 -0.03527,-0.23283 z m 28.784353,-2.45533 c 0,-0.20955 0.01651,-0.29528 0.03669,-0.1905 0.02018,0.10477 0.02018,0.27622 0,0.381 -0.02018,0.10477 -0.03669,0.019 -0.03669,-0.1905 z m -39.578268,-4.62984 c 0.06112,-0.0245 0.134146,-0.0214 0.162281,0.007 0.02813,0.0281 -0.02188,0.0481 -0.111125,0.0445 -0.09864,-0.004 -0.118695,-0.0241 -0.05116,-0.0512 z m -8.387291,-2.54562 c 1.548341,-0.0129 4.081991,-0.0129 5.630333,0 1.548341,0.0129 0.281516,0.0235 -2.815167,0.0235 -3.096683,0 -4.363508,-0.0106 -2.815166,-0.0235 z m 29.161391,-1e-5 c 1.754445,-0.0128 4.650045,-0.0128 6.434666,-1e-5 1.784629,0.0128 0.349173,0.0232 -3.189893,0.0232 -3.539066,1e-5 -4.999211,-0.0104 -3.244773,-0.0232 z"
         id="path482" />
      <path
         style="fill:#6c6c6c;stroke-width:0.0846667"
         d="m -55.064936,-110.30417 c 0.05821,-0.0235 0.153459,-0.0235 0.211667,0 0.05821,0.0235 0.01058,0.0427 -0.105833,0.0427 -0.116417,0 -0.164042,-0.0192 -0.105834,-0.0427 z m -8.043333,-2.37804 c 1.408642,-0.013 3.713692,-0.013 5.122333,0 1.408642,0.013 0.256117,0.0237 -2.561166,0.0237 -2.817283,0 -3.969808,-0.0107 -2.561167,-0.0237 z m 23.124362,-3.04805 c -0.105308,-0.13429 -0.10232,-0.13728 0.03197,-0.032 0.08149,0.0639 0.148167,0.13059 0.148167,0.14816 0,0.0697 -0.06953,0.0248 -0.180137,-0.11619 z m 18.033999,-6.18067 c -0.105309,-0.13429 -0.10232,-0.13728 0.03197,-0.032 0.141029,0.11061 0.185885,0.18014 0.116196,0.18014 -0.01758,0 -0.08425,-0.0667 -0.148166,-0.14817 z m -0.423334,-0.42333 c -0.105308,-0.13429 -0.102319,-0.13728 0.03197,-0.032 0.14103,0.1106 0.185886,0.18013 0.116197,0.18013 -0.01758,0 -0.08425,-0.0667 -0.148167,-0.14816 z m -28.487571,-11.811 -0.16129,-0.1905 0.1905,0.16129 c 0.179019,0.15157 0.22904,0.21971 0.16129,0.21971 -0.01607,0 -0.101795,-0.0857 -0.1905,-0.1905 z"
         id="path480" />
      <path
         style="fill:#4b4b4b;stroke-width:0.0846667"
         d="m -97.335755,-124.26043 c -10e-7,-7.73007 0.01,-10.9049 0.02215,-7.05518 0.01218,3.84971 0.01219,10.17431 4e-6,14.05467 -0.01218,3.88035 -0.02215,0.73058 -0.02215,-6.99949 z m 28.786663,0 c 0,-7.73007 0.01,-10.9049 0.02215,-7.05518 0.01218,3.84971 0.01218,10.17431 0,14.05467 -0.01217,3.88035 -0.02215,0.73058 -0.02215,-6.99949 z m 13.104765,13.95366 c 0.08238,-0.0215 0.196681,-0.0201 0.254,0.003 0.05733,0.0232 -0.01007,0.0408 -0.149775,0.039 -0.1397,-0.002 -0.186597,-0.0207 -0.104225,-0.0422 z m 0.04602,-2.36983 c 0.06112,-0.0245 0.134146,-0.0215 0.162281,0.007 0.02813,0.0281 -0.02188,0.0482 -0.111125,0.0445 -0.09864,-0.004 -0.118694,-0.0241 -0.05116,-0.0512 z m 18.80107,-15.415 c -0.105308,-0.13428 -0.102319,-0.13728 0.03197,-0.032 0.08149,0.0639 0.148167,0.13058 0.148167,0.14816 0,0.0697 -0.06953,0.0248 -0.180137,-0.1162 z m -1.167849,-2.86455 c 0.0041,-0.0986 0.02413,-0.1187 0.05116,-0.0511 0.02446,0.0611 0.02145,0.13414 -0.0067,0.16227 -0.02813,0.0281 -0.04815,-0.0219 -0.04448,-0.11112 z m -40.186336,-4.28978 -0.248675,-0.27517 0.275167,0.24868 c 0.256498,0.2318 0.314088,0.30166 0.248674,0.30166 -0.01457,0 -0.138396,-0.12383 -0.275166,-0.27517 z"
         id="path478" />
      <path
         style="fill:#3a3a3a;stroke-width:0.0846667"
         d="m -173.91576,-124.64143 v -86.69866 h 86.69866 86.69866 v 86.69866 86.69866 h -86.69866 -86.69866 z m 162.898654,-0.33867 v -30.47999 H -87.2171 -163.41709 v 30.47999 30.480001 h 76.19999 76.199994 z m -149.859984,0 v -27.93999 h 27.93999 27.94 v 27.93999 27.940001 h -27.94 -27.93999 z m 34.54396,16.7217 6.56122,-6.56163 -4.91015,-4.9107 -4.91016,-4.9107 4.91016,-4.9107 4.91015,-4.9107 -6.56122,-6.56163 -6.56122,-6.56163 h -1.20671 -1.2067 v 8.61457 8.61457 l -5.207,-5.20647 -5.20699,-5.20648 -1.67193,1.67193 -1.67194,1.67193 6.39189,6.39231 6.39188,6.3923 -6.39188,6.39231 -6.39189,6.3923 1.67194,1.67193 1.67193,1.67193 5.20699,-5.20648 5.207,-5.20647 v 8.61457 8.61457 h 1.2067 1.20671 z m -4.2333,-6.53988 v -4.12686 l 2.07434,2.07305 2.07434,2.07304 -2.05253,2.05381 c -1.12888,1.1296 -2.06234,2.05381 -2.07434,2.05381 -0.012,0 -0.0218,-1.85709 -0.0218,-4.12685 z m 0,-19.72733 v -4.12686 l 2.07434,2.07305 2.07434,2.07304 -2.05253,2.05381 c -1.12888,1.12959 -2.06234,2.05381 -2.07434,2.05381 -0.012,0 -0.0218,-1.85709 -0.0218,-4.12685 z m -16.08667,7.55585 -2.32756,-2.32872 -2.32833,2.32833 -2.32834,2.32833 2.32757,2.32872 2.32756,2.32873 2.32834,-2.32834 2.32833,-2.32833 z m 32.08867,0 -2.32757,-2.32872 -2.32833,2.32833 -2.32833,2.32833 2.32756,2.32872 2.32757,2.32873 2.32833,-2.32834 2.32833,-2.32833 z m 81.491659,16.79514 c -3.024157,-0.37982 -6.084764,-1.60073 -7.737322,-3.08652 l -0.428422,-0.38519 0.552069,-1.10172 0.552078,-1.10173 0.440461,0.37306 c 1.436514,1.21666 3.580342,2.20153 5.859136,2.69166 1.164522,0.25048 4.016891,0.32483 5.249333,0.13682 1.760212,-0.26851 2.949863,-0.78673 3.931158,-1.71243 0.903495,-0.85231 1.360508,-1.89288 1.360508,-3.09772 0,-1.53346 -0.559917,-2.56071 -1.894679,-3.47611 -1.017888,-0.69806 -2.199758,-1.11776 -5.655199,-2.00819 -4.726186,-1.21788 -6.335911,-1.88373 -7.809128,-3.23017 -1.393562,-1.27363 -1.987524,-2.85776 -1.886077,-5.03024 0.05342,-1.14403 0.2323,-1.87215 0.687019,-2.79639 1.107703,-2.25149 3.392424,-3.73274 6.652065,-4.31272 1.244321,-0.22139 3.618704,-0.26661 4.9673,-0.0946 2.344488,0.29904 4.62749,1.0659 6.263987,2.10407 l 0.351629,0.22307 -0.478629,1.13887 -0.478621,1.13886 -0.338667,-0.21089 c -0.648716,-0.40396 -2.20687,-1.11105 -3.014641,-1.36805 -1.450568,-0.46151 -2.362225,-0.61412 -3.970358,-0.66463 -3.067609,-0.0964 -5.260924,0.55059 -6.572275,1.93859 -0.992996,1.05102 -1.382598,2.28207 -1.20037,3.79282 0.132715,1.10025 0.593429,1.87932 1.532018,2.59067 1.09667,0.83117 2.296193,1.25793 6.99902,2.49011 4.158776,1.08964 5.724652,1.80616 7.091307,3.24489 0.96796,1.01901 1.35266,1.85274 1.547808,3.35442 0.317339,2.44202 -0.643746,4.86409 -2.519807,6.35025 -1.374241,1.08862 -3.19366,1.78751 -5.409717,2.07801 -1.057495,0.13863 -3.648735,0.156 -4.642984,0.0311 z m -64.219662,-14.08581 v -14.01233 l 5.947833,0.002 c 4.642053,0.001 6.145538,0.028 6.848382,0.12154 2.746408,0.36562 4.807965,1.25561 6.369303,2.74966 1.844887,1.76539 2.678481,3.84884 2.678481,6.69448 0,3.35934 -1.302131,5.91726 -3.864669,7.59181 -0.706416,0.46162 -1.547935,0.87481 -2.147621,1.05447 -0.185742,0.0557 -0.336558,0.14278 -0.335161,0.19362 0.0014,0.0508 1.503214,2.19601 3.337348,4.76705 1.834142,2.57104 3.359243,4.71416 3.389113,4.7625 0.03679,0.0595 -0.448733,0.0879 -1.504264,0.0879 h -1.558586 l -3.208917,-4.53311 -3.208909,-4.53311 -0.499254,0.0458 c -0.274591,0.0252 -2.493916,0.0458 -4.931832,0.0458 l -4.43258,1e-5 v 4.48733 4.48733 h -1.439333 -1.439334 z m 12.572999,2.45419 c 2.099412,-0.31526 3.536095,-0.98754 4.676894,-2.18851 1.197364,-1.26051 1.714161,-2.69347 1.714161,-4.75301 0,-2.12435 -0.632562,-3.75108 -1.9299,-4.96305 -0.933383,-0.87197 -1.856808,-1.34725 -3.34938,-1.72391 -1.293909,-0.32653 -2.271742,-0.38271 -6.660761,-0.38271 h -4.145346 v 7.06967 7.06966 l 4.423833,-8.4e-4 c 3.500137,0 4.600617,-0.0271 5.270499,-0.12765 z m 16.213666,-2.44574 v -14.02078 l 6.752166,0.002 c 7.140981,0.002 7.637102,0.0238 9.275944,0.41306 2.086686,0.49559 3.931445,1.66662 4.822046,3.06099 0.755184,1.18234 1.037344,2.34861 0.970237,4.0104 -0.04909,1.21588 -0.228524,2.00091 -0.646684,2.82928 -0.597332,1.1833 -1.702155,2.26296 -2.945053,2.87796 -0.339895,0.16818 -0.617991,0.32899 -0.617991,0.35734 0,0.0284 0.18923,0.0952 0.420506,0.14863 1.644937,0.37969 3.34435,1.49384 4.200372,2.75378 1.132129,1.66634 1.444422,4.3873 0.74505,6.49157 -0.738471,2.22194 -2.673198,3.81244 -5.504349,4.52501 -1.870778,0.47086 -2.184519,0.48731 -10.127411,0.53125 l -7.344833,0.0406 v -14.02077 z m 15.324665,11.42847 c 1.046777,-0.1707 2.222475,-0.5455 2.876897,-0.91714 1.037472,-0.58915 1.836589,-1.66264 2.127123,-2.85745 0.159275,-0.655 0.139057,-2.20111 -0.03752,-2.8691 -0.497772,-1.8831 -1.925624,-3.00969 -4.54317,-3.58462 -0.764125,-0.16784 -1.105916,-0.1784 -6.836833,-0.21136 l -6.0325,-0.0347 v 5.34703 5.34702 l 5.7785,-0.0374 c 4.927591,-0.0319 5.909411,-0.0587 6.667499,-0.18233 z m -1.860448,-12.92219 c 1.866511,-0.22965 3.170386,-0.74421 4.107747,-1.62107 0.953177,-0.89165 1.298931,-1.69032 1.367578,-3.15899 0.129583,-2.7726 -1.269136,-4.40782 -4.428616,-5.17741 -0.507543,-0.12363 -1.300463,-0.14635 -6.10776,-0.175 l -5.5245,-0.0329 v 5.12684 5.12683 h 4.934052 c 2.90857,0 5.228581,-0.0362 5.651499,-0.0883 z"
         id="path476" />
    </g>
  </g>
</svg>
