<?xml version="1.0" encoding="UTF-8" standalone="no"?>
<svg
   xmlns:dc="http://purl.org/dc/elements/1.1/"
   xmlns:cc="http://creativecommons.org/ns#"
   xmlns:rdf="http://www.w3.org/1999/02/22-rdf-syntax-ns#"
   xmlns:svg="http://www.w3.org/2000/svg"
   xmlns="http://www.w3.org/2000/svg"
   xmlns:sodipodi="http://sodipodi.sourceforge.net/DTD/sodipodi-0.dtd"
   xmlns:inkscape="http://www.inkscape.org/namespaces/inkscape"
   width="346.79465mm"
   height="86.698654mm"
   viewBox="0 0 346.79465 86.698654"
   version="1.1"
   id="svg8"
   inkscape:version="1.0.2 (e86c870879, 2021-01-15, custom)"
   sodipodi:docname="RBS_BANNER_GREY.svg">
  <defs
     id="defs2" />
  <sodipodi:namedview
     id="base"
     pagecolor="#ffffff"
     bordercolor="#666666"
     borderopacity="1.0"
     inkscape:pageopacity="0.0"
     inkscape:pageshadow="2"
     inkscape:zoom="1.4"
     inkscape:cx="624.76211"
     inkscape:cy="183.12918"
     inkscape:document-units="mm"
     inkscape:current-layer="layer1"
     inkscape:document-rotation="0"
     showgrid="false"
     inkscape:window-width="1908"
     inkscape:window-height="1044"
     inkscape:window-x="1080"
     inkscape:window-y="444"
     inkscape:window-maximized="0" />
  <metadata
     id="metadata5">
    <rdf:RDF>
      <cc:Work
         rdf:about="">
        <dc:format>image/svg+xml</dc:format>
        <dc:type
           rdf:resource="http://purl.org/dc/dcmitype/StillImage" />
        <dc:title />
      </cc:Work>
    </rdf:RDF>
  </metadata>
  <g
     inkscape:label="Layer 1"
     inkscape:groupmode="layer"
     id="layer1"
     transform="translate(173.09279,-131.10583)">
    <g
       id="g80"
       transform="translate(263.48265,53.593995)">
      <path
         style="fill:#fdfdfd;stroke-width:0.0846667"
         d="m -158.57245,131.19078 c -1.44067,-0.15424 -3.19128,-0.64023 -4.29019,-1.19102 -0.60648,-0.30398 -1.45527,-0.88835 -1.74801,-1.20345 l -0.19619,-0.21118 0.38925,-0.77506 c 0.26591,-0.52944 0.42199,-0.7551 0.49254,-0.71206 0.0568,0.0346 0.2944,0.21824 0.52801,0.40797 0.50382,0.40919 1.70178,1.03853 2.56113,1.34547 1.91205,0.68293 4.35576,0.79968 6.21839,0.29709 2.00128,-0.54 3.16756,-2.11608 2.86245,-3.8682 -0.11607,-0.6665 -0.24836,-0.93645 -0.6979,-1.42415 -0.73606,-0.79853 -1.69242,-1.21157 -4.50229,-1.94444 -4.01964,-1.0484 -5.10869,-1.51848 -6.20176,-2.67694 -0.80112,-0.84906 -1.13043,-1.76883 -1.13043,-3.15731 0,-1.52566 0.45159,-2.637 1.48613,-3.65721 1.38159,-1.36248 3.82821,-2.08725 6.56005,-1.94331 1.7284,0.0911 3.36052,0.50479 4.73848,1.20113 1.13276,0.57242 1.07694,0.45542 0.66965,1.40364 l -0.34968,0.81409 -0.79745,-0.41982 c -1.6514,-0.86938 -3.03592,-1.2052 -4.94118,-1.19853 -2.02355,0.007 -3.2964,0.3918 -4.25118,1.28489 -1.48167,1.38593 -1.44164,3.6239 0.0855,4.77677 0.80728,0.60944 1.48012,0.86343 4.12339,1.55652 3.82135,1.002 4.85873,1.42386 5.90571,2.40162 0.99673,0.93084 1.41545,1.92113 1.41545,3.34754 0,2.80185 -1.98837,4.8378 -5.28916,5.41571 -0.88121,0.15429 -2.78117,0.22226 -3.64066,0.13024 z m -169.58733,-0.0558 c -3.35253,-0.53447 -5.70561,-2.72237 -6.45095,-5.99812 -0.18797,-0.82609 -0.1825,-2.66755 0.0105,-3.556 0.62903,-2.89478 2.56871,-4.97504 5.33973,-5.72671 0.82042,-0.22255 2.80886,-0.26811 3.64067,-0.0834 2.56219,0.5689 4.54459,2.38885 5.3604,4.92113 0.29131,0.90425 0.50658,2.54879 0.39821,3.04217 l -0.0571,0.25983 h -6.43589 -6.43588 l 0.0598,0.4445 c 0.34264,2.54715 2.20496,4.43955 4.81656,4.89434 0.90268,0.1572 2.48444,0.0631 3.28165,-0.19533 0.84348,-0.27337 1.63654,-0.72159 2.21957,-1.25445 l 0.46748,-0.42725 0.28774,0.32226 c 0.15826,0.17724 0.41349,0.46718 0.56717,0.6443 l 0.27944,0.32204 -0.33026,0.34209 c -0.77691,0.80477 -2.02246,1.50506 -3.29612,1.85318 -0.53801,0.14706 -0.95797,0.18966 -2.0718,0.21019 -0.76835,0.0142 -1.5113,0.008 -1.651,-0.0147 z m 6.35028,-8.94029 c -0.38592,-2.4388 -1.82805,-4.12085 -4.02195,-4.69101 -0.72989,-0.18969 -2.14528,-0.19024 -2.87866,-0.001 -2.16447,0.55819 -3.64023,2.27986 -4.02195,4.69211 l -0.0569,0.35984 h 5.51822 5.51822 l -0.0569,-0.35984 z m 40.97839,8.9416 c -1.40069,-0.28611 -2.32957,-0.64191 -3.17795,-1.21727 -1.67124,-1.13342 -2.71399,-2.69743 -3.18834,-4.78216 -0.1811,-0.79589 -0.18136,-2.67207 -8.5e-4,-3.47571 0.66578,-2.95813 2.73038,-5.09834 5.60476,-5.81003 0.99266,-0.24578 3.06091,-0.26815 3.96772,-0.0429 2.66421,0.66173 4.66071,2.47999 5.45534,4.96833 0.29575,0.92612 0.38252,1.52143 0.38252,2.62466 0,2.37929 -0.77469,4.25729 -2.3814,5.77297 -1.44956,1.36744 -3.22767,2.02359 -5.43451,2.00543 -0.58208,-0.005 -1.13453,-0.0243 -1.22767,-0.0433 z m 3.21652,-2.01178 c 1.70854,-0.58705 2.85822,-1.76219 3.48704,-3.56432 0.22388,-0.6416 0.23635,-0.7555 0.23635,-2.159 0,-1.4035 -0.0125,-1.5174 -0.23635,-2.159 -0.62904,-1.80274 -1.78087,-2.97973 -3.48704,-3.56322 -0.87392,-0.29888 -2.29393,-0.37355 -3.25886,-0.17137 -2.4028,0.50345 -4.15598,2.55367 -4.39455,5.13913 -0.29836,3.23341 1.34466,5.84072 4.1588,6.59962 0.93822,0.25301 2.56911,0.19615 3.49461,-0.12184 z m 12.89398,1.93453 c -1.10816,-0.26865 -2.00721,-0.94503 -2.50378,-1.88367 -0.48517,-0.91707 -0.47214,-0.75598 -0.52186,-6.45151 l -0.0462,-5.29167 -1.37583,-0.0233 -1.37583,-0.0233 v -0.84457 -0.84457 h 1.397 1.397 v -1.651 -1.651 h 1.016 1.016 v 1.651 1.651 h 2.32833 2.32833 v 0.84666 0.84667 h -2.33085 -2.33084 l 0.0237,5.1435 0.0237,5.1435 0.19483,0.42333 c 0.25487,0.55375 0.6157,0.91702 1.14982,1.15759 0.35388,0.15939 0.58085,0.19534 1.23768,0.19605 0.87611,9.4e-4 1.45165,-0.14732 1.98992,-0.51261 0.16698,-0.11331 0.31495,-0.20603 0.32882,-0.20603 0.079,0 0.65422,1.3768 0.61639,1.47539 -0.0634,0.16513 -1.18065,0.6971 -1.78875,0.85167 -0.62767,0.15956 -2.10924,0.15784 -2.77354,-0.003 z m 12.84549,0.0759 c -3.35252,-0.53447 -5.70561,-2.72237 -6.45095,-5.99812 -0.18797,-0.82609 -0.1825,-2.66755 0.0106,-3.556 0.62902,-2.89478 2.56871,-4.97504 5.33973,-5.72671 0.82042,-0.22255 2.80886,-0.26811 3.64066,-0.0834 2.5622,0.5689 4.5446,2.38885 5.3604,4.92113 0.29132,0.90425 0.50658,2.54879 0.39822,3.04217 l -0.0571,0.25983 h -6.43589 -6.43588 l 0.0598,0.4445 c 0.34264,2.54715 2.20497,4.43955 4.81656,4.89434 0.90268,0.1572 2.48444,0.0631 3.28165,-0.19533 0.84348,-0.27337 1.63654,-0.72159 2.21958,-1.25445 l 0.46747,-0.42725 0.28774,0.32226 c 0.15826,0.17724 0.41349,0.46718 0.56718,0.6443 l 0.27943,0.32204 -0.33026,0.34209 c -0.77691,0.80477 -2.02246,1.50506 -3.29611,1.85318 -0.53802,0.14706 -0.95798,0.18966 -2.07181,0.21019 -0.76835,0.0142 -1.5113,0.008 -1.651,-0.0147 z m 6.35028,-8.94029 c -0.38592,-2.4388 -1.82805,-4.12085 -4.02194,-4.69101 -0.7299,-0.18969 -2.14529,-0.19024 -2.87867,-0.001 -2.16447,0.55819 -3.64023,2.27986 -4.02194,4.69211 l -0.0569,0.35984 h 5.51821 5.51822 l -0.0569,-0.35984 z m 63.24572,8.94029 c -3.35253,-0.53447 -5.70561,-2.72237 -6.45096,-5.99812 -0.18796,-0.82609 -0.18249,-2.66755 0.0106,-3.556 0.62903,-2.89478 2.56871,-4.97504 5.33973,-5.72671 0.82042,-0.22255 2.80886,-0.26811 3.64067,-0.0834 2.56219,0.5689 4.54459,2.38885 5.3604,4.92113 0.29131,0.90425 0.50658,2.54879 0.39821,3.04217 l -0.0571,0.25983 h -6.43589 -6.43588 l 0.0598,0.4445 c 0.34264,2.54715 2.20496,4.43955 4.81656,4.89434 0.90268,0.1572 2.48444,0.0631 3.28165,-0.19533 0.84348,-0.27337 1.63654,-0.72159 2.21957,-1.25445 l 0.46748,-0.42725 0.28774,0.32226 c 0.15826,0.17724 0.41349,0.46718 0.56717,0.6443 l 0.27944,0.32204 -0.33026,0.34209 c -0.77691,0.80477 -2.02246,1.50506 -3.29612,1.85318 -0.53801,0.14706 -0.95798,0.18966 -2.0718,0.21019 -0.76835,0.0142 -1.5113,0.008 -1.651,-0.0147 z m 6.35028,-8.94029 c -0.38592,-2.4388 -1.82805,-4.12085 -4.02195,-4.69101 -0.72989,-0.18969 -2.14528,-0.19024 -2.87866,-0.001 -2.16447,0.55819 -3.64023,2.27986 -4.02195,4.69211 l -0.0569,0.35984 h 5.51822 5.51822 l -0.0569,-0.35984 z m 33.38223,8.86435 c -1.10816,-0.26865 -2.00722,-0.94503 -2.50379,-1.88367 -0.48517,-0.91707 -0.47214,-0.75598 -0.52186,-6.45151 l -0.0462,-5.29167 -1.37584,-0.0233 -1.37583,-0.0233 v -0.84457 -0.84457 h 1.397 1.397 v -1.651 -1.651 h 1.016 1.016 v 1.651 1.651 h 2.32833 2.32834 v 0.84666 0.84667 h -2.33085 -2.33085 l 0.0237,5.1435 0.0237,5.1435 0.19484,0.42333 c 0.25486,0.55375 0.61569,0.91702 1.14981,1.15759 0.35388,0.15939 0.58086,0.19534 1.23769,0.19605 0.8761,9.4e-4 1.45164,-0.14732 1.98992,-0.51261 0.16698,-0.11331 0.31495,-0.20603 0.32882,-0.20603 0.079,0 0.65422,1.3768 0.61639,1.47539 -0.0634,0.16513 -1.18065,0.6971 -1.78876,0.85167 -0.62766,0.15956 -2.10924,0.15784 -2.77353,-0.003 z m 10.58179,0.0489 c -1.09897,-0.19829 -2.23147,-0.75111 -2.91327,-1.42212 -1.32904,-1.30796 -1.55986,-3.59154 -0.52592,-5.2028 0.53174,-0.82864 1.45078,-1.43826 2.68507,-1.78108 0.59947,-0.16649 0.89823,-0.1821 4.05499,-0.21187 l 3.40783,-0.0321 v -0.90757 c 0,-0.98883 -0.13052,-1.63867 -0.45756,-2.27807 -0.43635,-0.85313 -1.34223,-1.4967 -2.48461,-1.76514 -0.78947,-0.18551 -2.59608,-0.12011 -3.53483,0.12797 -0.80574,0.21294 -2.04463,0.79447 -2.59984,1.22037 l -0.39851,0.30569 -0.42699,-0.70691 c -0.23485,-0.3888 -0.42699,-0.74161 -0.42699,-0.78402 0,-0.12783 1.2903,-0.93796 1.91429,-1.2019 1.48206,-0.6269 2.99456,-0.89625 4.64737,-0.82762 3.06402,0.12723 4.87787,1.39188 5.60532,3.90815 0.13131,0.45418 0.14974,1.09325 0.17406,6.0325 l 0.0272,5.5245 h -0.97712 -0.97712 l -0.004,-1.2065 c -0.004,-1.14733 -0.0112,-1.19612 -0.14286,-0.99483 -0.0761,0.11641 -0.37118,0.44411 -0.65568,0.7282 -0.56708,0.56628 -1.5527,1.11002 -2.45668,1.35527 -0.58323,0.15824 -2.88787,0.23644 -3.5337,0.11991 z m 3.37016,-1.65767 c 1.38296,-0.35898 2.45513,-1.19231 3.10571,-2.41387 0.22605,-0.42444 0.23283,-0.47661 0.23283,-1.79016 v -1.35298 l -3.06917,0.0388 c -2.57,0.0325 -3.15119,0.0625 -3.57351,0.18452 -0.99516,0.28754 -1.53519,0.67269 -1.89125,1.34883 -0.20146,0.38259 -0.22826,0.52788 -0.22826,1.2378 0,0.70784 0.0271,0.85577 0.22585,1.23304 0.35538,0.67457 1.01229,1.19457 1.85167,1.46574 0.86205,0.27849 2.37514,0.30032 3.34613,0.0483 z m 24.91005,1.6088 c -1.10816,-0.26865 -2.00722,-0.94503 -2.50379,-1.88367 -0.48517,-0.91707 -0.47214,-0.75598 -0.52186,-6.45151 l -0.0462,-5.29167 -1.37583,-0.0233 -1.37583,-0.0233 v -0.84457 -0.84457 h 1.397 1.397 v -1.651 -1.651 h 1.016 1.016 v 1.651 1.651 h 2.32833 2.32833 v 0.84666 0.84667 h -2.33084 -2.33085 l 0.0237,5.1435 0.0237,5.1435 0.19484,0.42333 c 0.25486,0.55375 0.61569,0.91702 1.14981,1.15759 0.35388,0.15939 0.58086,0.19534 1.23768,0.19605 0.87611,9.4e-4 1.45165,-0.14732 1.98992,-0.51261 0.166984,-0.11331 0.314956,-0.20603 0.328824,-0.20603 0.07902,0 0.65422,1.3768 0.616391,1.47539 -0.06337,0.16513 -1.180655,0.6971 -1.788755,0.85167 -0.62767,0.15956 -2.10924,0.15784 -2.77353,-0.003 z M -353.26344,120.86116 V 110.6165 h 4.10966 c 4.2149,0 5.21925,0.0533 6.45733,0.34271 2.67899,0.62623 4.56065,2.35906 5.19015,4.77962 0.23809,0.9155 0.25757,2.59527 0.0412,3.556 -0.44785,1.98896 -1.61924,3.44335 -3.48918,4.33216 -0.42449,0.20176 -0.81501,0.36684 -0.86783,0.36684 -0.0528,0 -0.096,0.0395 -0.096,0.0877 0,0.0482 1.07837,1.60081 2.39638,3.45016 1.318,1.84936 2.42516,3.41009 2.46033,3.4683 0.0499,0.0826 -0.18543,0.10583 -1.07126,0.10583 h -1.1352 l -2.35622,-3.31283 -2.35621,-3.31284 -0.55641,0.0526 c -0.30603,0.0289 -1.91849,0.0528 -3.58324,0.0532 l -3.02684,6e-4 v 3.25966 3.25967 h -1.05833 -1.05833 z m 9.60966,1.75399 c 2.2462,-0.49179 3.64645,-1.72171 4.11756,-3.61665 0.0682,-0.27448 0.11306,-0.8828 0.10915,-1.48167 -0.006,-0.87351 -0.0388,-1.1097 -0.23625,-1.68414 -0.54313,-1.58028 -1.56682,-2.50444 -3.40007,-3.06948 l -0.75972,-0.23416 -3.66183,-0.0306 -3.66184,-0.0306 v 5.17762 5.17762 l 3.45017,-0.0391 c 2.66818,-0.0302 3.5845,-0.0685 4.04283,-0.16887 z m 27.47433,0.78601 v -7.70466 h 0.93134 0.93133 v 1.397 c 0,0.76835 0.0286,1.39693 0.0635,1.39685 0.0349,-9e-5 0.17152,-0.17113 0.30354,-0.38011 0.74413,-1.17786 2.45198,-2.16689 4.16263,-2.41061 2.83907,-0.4045 5.22667,0.59553 6.41063,2.68503 0.13853,0.24448 0.26086,0.4445 0.27185,0.4445 0.011,0 0.13964,-0.18463 0.28585,-0.41028 0.14623,-0.22566 0.54928,-0.67951 0.89568,-1.00855 1.11068,-1.05504 2.67175,-1.67535 4.45499,-1.77024 2.78859,-0.14839 4.8981,0.91821 5.88449,2.97529 0.67462,1.40689 0.66193,1.27534 0.69685,7.21995 l 0.031,5.2705 h -1.02015 -1.02015 v -4.89712 c 0,-4.59617 -0.0103,-4.93723 -0.1669,-5.54969 -0.49814,-1.94772 -1.61586,-2.93787 -3.59384,-3.18366 -2.35188,-0.29226 -4.37319,0.74309 -5.29145,2.71037 -0.512,1.0969 -0.5294,1.28831 -0.57504,6.32693 l -0.0416,4.59317 h -0.96526 -0.96525 v -4.46839 c 0,-4.48493 -0.0506,-5.51548 -0.31091,-6.32661 -0.46516,-1.44968 -1.40321,-2.34817 -2.84421,-2.72427 -0.71303,-0.1861 -2.1341,-0.18087 -2.85621,0.0105 -1.3583,0.35999 -2.45608,1.24269 -3.05379,2.45549 -0.59969,1.21681 -0.60876,1.30714 -0.64872,6.4601 l -0.0356,4.59317 h -0.96727 -0.96728 z m 83.73533,-2.53843 v -10.25774 l 5.22817,0.0358 c 5.73935,0.0393 5.8884,0.051 7.33593,0.57476 2.2152,0.80155 3.37783,2.3839 3.38569,4.60795 0.003,0.97286 -0.11535,1.55048 -0.47881,2.32833 -0.3452,0.73878 -1.33749,1.73731 -2.06823,2.08126 -0.2887,0.13589 -0.52683,0.26911 -0.52916,0.29603 -0.002,0.0269 0.19419,0.0948 0.43673,0.15075 1.71272,0.39534 3.18671,1.83412 3.57752,3.49202 0.16468,0.69866 0.16458,2.16298 0,2.86206 -0.38721,1.64269 -1.7624,2.95891 -3.71709,3.55771 -1.40606,0.43072 -1.7529,0.45305 -7.64604,0.49215 l -5.5245,0.0367 v -10.25774 z m 11.89567,8.22758 c 1.94903,-0.53753 2.84628,-1.4834 3.03851,-3.20319 0.22107,-1.97781 -0.85547,-3.43868 -2.96959,-4.02975 -0.63612,-0.17784 -0.83842,-0.18609 -5.25475,-0.21426 l -4.59317,-0.0293 v 3.86231 3.86231 l 4.55083,-0.0307 c 4.38113,-0.0295 4.57609,-0.0376 5.22817,-0.21747 z m -1.70956,-9.33936 c 2.03614,-0.31505 3.32105,-1.35588 3.61823,-2.93091 0.30741,-1.6292 -0.39411,-3.09703 -1.81063,-3.78849 -1.20263,-0.58706 -1.17547,-0.58415 -5.74954,-0.61663 l -4.1275,-0.0293 v 3.72978 3.72978 h 3.73028 c 2.3176,0 3.96087,-0.0357 4.33916,-0.0942 z m 10.81123,3.65021 v -7.70466 h 0.97366 0.97367 v 7.70466 7.70467 h -0.97367 -0.97366 z m 7.19666,-3.13266 v -10.83734 h 0.97367 0.97367 v 7.32367 c 0,4.05071 0.0327,7.32367 0.0731,7.32367 0.0402,0 2.13626,-1.88697 4.65796,-4.19326 l 4.58488,-4.19325 1.22089,0.0234 1.22088,0.0234 -3.24711,3.09033 c -1.78591,1.69969 -3.25028,3.11808 -3.25416,3.15199 -0.004,0.0339 1.59313,2.08307 3.54893,4.55368 1.9558,2.47062 3.556,4.5098 3.556,4.53151 0,0.0217 -0.54293,0.0393 -1.2065,0.039 l -1.2065,-5.1e-4 -3.09033,-3.85323 c -1.69969,-2.11928 -3.13353,-3.84309 -3.18631,-3.8307 -0.0528,0.0124 -0.9005,0.76151 -1.88383,1.6647 l -1.78786,1.64216 v 2.18901 2.189 h -0.97367 -0.97367 V 120.2684 Z m 86.106,3.13266 v -7.70466 h 0.93133 0.93133 v 1.48166 c 0,0.81492 0.0294,1.48167 0.0654,1.48167 0.036,0 0.14075,-0.14178 0.23283,-0.31507 0.52874,-0.99504 1.69432,-1.93746 2.87879,-2.32762 0.68222,-0.22473 1.72142,-0.40531 2.33243,-0.40531 h 0.33253 v 0.97367 0.97366 l -0.65616,10e-4 c -2.83827,0.006 -4.70664,1.80021 -5.01222,4.81233 -0.0489,0.48224 -0.0889,2.64442 -0.0889,4.80483 v 3.92803 h -0.97367 -0.97366 v -7.70466 z m -92.92166,-11.25056 c -0.40283,-0.18498 -0.58335,-0.3738 -0.75878,-0.79365 -0.17562,-0.42034 -0.16393,-0.70202 0.0472,-1.13825 0.26444,-0.54625 0.77206,-0.81882 1.43558,-0.77083 0.82073,0.0594 1.35029,0.59064 1.35029,1.35469 0,0.47203 -0.13038,0.76916 -0.48565,1.10677 -0.43197,0.4105 -1.02426,0.50045 -1.58868,0.24127 z"
         id="path100" />
      <path
         style="fill:#e5e5e5;stroke-width:0.0846667"
         d="m -156.514,131.21733 c 0.0611,-0.0245 0.13415,-0.0215 0.16229,0.007 0.0281,0.0281 -0.0219,0.0481 -0.11113,0.0445 -0.0986,-0.004 -0.11869,-0.0241 -0.0512,-0.0512 z m -159.70953,-7.81617 c 0,-4.26085 0.0103,-6.00392 0.0229,-3.8735 0.0126,2.13043 0.0126,5.61658 0,7.747 -0.0126,2.13043 -0.0229,0.38735 -0.0229,-3.8735 z m 2.03071,3.47134 c 0,-2.35162 0.0109,-3.31364 0.0241,-2.13784 0.0133,1.17581 0.0133,3.09986 0,4.27567 -0.0133,1.17581 -0.0241,0.21378 -0.0241,-2.13783 z m 11.68388,0.16933 c 0,-2.25848 0.0109,-3.18241 0.0242,-2.05317 0.0133,1.12925 0.0133,2.9771 0,4.10634 -0.0133,1.12924 -0.0242,0.20531 -0.0242,-2.05317 z m 80.11899,4.00793 c 0.0582,-0.0235 0.15346,-0.0235 0.21167,0 0.0582,0.0235 0.0106,0.0427 -0.10584,0.0427 -0.11641,0 -0.16404,-0.0192 -0.10583,-0.0427 z m 10.89908,-7.6486 c 0,-4.26085 0.0103,-6.00392 0.0229,-3.8735 0.0126,2.13043 0.0126,5.61658 0,7.747 -0.0126,2.13043 -0.0229,0.38735 -0.0229,-3.8735 z m 2.032,0 c 0,-4.26085 0.0103,-6.00392 0.0229,-3.8735 0.0126,2.13043 0.0126,5.61658 0,7.747 -0.0126,2.13043 -0.0229,0.38735 -0.0229,-3.8735 z m 5.16515,-3.13266 c 0,-5.98382 0.0101,-8.43174 0.0224,-5.43984 0.0123,2.99191 0.0123,7.88776 0,10.87967 -0.0123,2.99191 -0.0224,0.54398 -0.0224,-5.43983 z m 2.02791,8.636 c 0,-1.23402 0.0118,-1.73884 0.0263,-1.12184 0.0145,0.61701 0.0145,1.62666 0,2.24367 -0.0145,0.61701 -0.0263,0.11218 -0.0263,-1.12183 z m 84.0776,-5.50334 c 0,-4.26085 0.0103,-6.00392 0.0229,-3.8735 0.0126,2.13043 0.0126,5.61658 0,7.747 -0.0126,2.13043 -0.0229,0.38735 -0.0229,-3.8735 z m 2.03063,3.59834 c 2e-5,-2.28177 0.0109,-3.20305 0.0242,-2.04729 0.0133,1.15575 0.0133,3.02265 -2e-5,4.14866 -0.0133,1.12601 -0.0242,0.18039 -0.0242,-2.10137 z m -150.672,2.8575 c -0.10531,-0.13429 -0.10232,-0.13728 0.032,-0.032 0.0815,0.0639 0.14816,0.13059 0.14816,0.14817 0,0.0697 -0.0695,0.0248 -0.18013,-0.1162 z m 122.17399,0 c -0.10531,-0.13429 -0.10232,-0.13728 0.032,-0.032 0.0815,0.0639 0.14817,0.13059 0.14817,0.14817 0,0.0697 -0.0695,0.0248 -0.18014,-0.1162 z m 38.862,0 c -0.10531,-0.13429 -0.10232,-0.13728 0.032,-0.032 0.0815,0.0639 0.14816,0.13059 0.14816,0.14817 0,0.0697 -0.0695,0.0248 -0.18013,-0.1162 z m -24.81241,-0.24834 c 0.0611,-0.0245 0.13415,-0.0214 0.16228,0.007 0.0281,0.0281 -0.0219,0.0481 -0.11112,0.0445 -0.0986,-0.004 -0.11869,-0.0241 -0.0512,-0.0512 z m -27.05468,-0.17017 c 0.0824,-0.0215 0.19668,-0.02 0.254,0.003 0.0573,0.0232 -0.0101,0.0408 -0.14977,0.039 -0.1397,-0.002 -0.1866,-0.0207 -0.10423,-0.0422 z m 0.67573,3.4e-4 c 0.0815,-0.0213 0.21484,-0.0213 0.29633,0 0.0815,0.0213 0.0148,0.0387 -0.14817,0.0387 -0.16298,0 -0.22966,-0.0174 -0.14816,-0.0387 z m -117.0305,-0.40733 c 0.10937,-0.11642 0.2179,-0.21167 0.24118,-0.21167 0.0233,0 -0.0471,0.0952 -0.15651,0.21167 -0.10937,0.11641 -0.2179,0.21166 -0.24118,0.21166 -0.0233,0 0.0471,-0.0952 0.15651,-0.21166 z m -1.60866,-1.0903 c 0,-0.0176 0.0667,-0.0843 0.14816,-0.14817 0.13429,-0.10531 0.13728,-0.10232 0.032,0.032 -0.11061,0.14103 -0.18013,0.18588 -0.18013,0.1162 z m 73.74466,-1.60867 c 0,-0.0176 0.0667,-0.0843 0.14817,-0.14817 0.13429,-0.10531 0.13727,-0.10232 0.032,0.032 -0.11061,0.14103 -0.18014,0.18588 -0.18014,0.1162 z m 50.14402,-0.51837 c 9.3e-4,-0.18626 0.0183,-0.25249 0.0385,-0.14718 0.0203,0.10532 0.0195,0.25772 -0.002,0.33867 -0.0212,0.081 -0.0378,-0.005 -0.0368,-0.19149 z m -63.66933,-0.16933 c 9.3e-4,-0.18627 0.0183,-0.2525 0.0385,-0.14718 0.0203,0.10532 0.0195,0.25772 -0.002,0.33867 -0.0212,0.081 -0.0378,-0.005 -0.0368,-0.19149 z m -2.11496,-0.21167 c 0,-0.20955 0.0165,-0.29527 0.0367,-0.1905 0.0202,0.10478 0.0202,0.27623 0,0.381 -0.0202,0.10478 -0.0367,0.019 -0.0367,-0.1905 z m 16.74094,-0.11663 c 0,-0.0176 0.0667,-0.0843 0.14816,-0.14817 0.13429,-0.10531 0.13728,-0.10232 0.032,0.032 -0.11061,0.14103 -0.18013,0.18588 -0.18013,0.1162 z m 1.016,-0.93133 c 0,-0.0176 0.0667,-0.0843 0.14816,-0.14817 0.13429,-0.10531 0.13728,-0.10232 0.032,0.032 -0.11061,0.14103 -0.18013,0.18588 -0.18013,0.1162 z m -72.04465,-0.44076 c 0.004,-0.0986 0.0241,-0.11869 0.0512,-0.0512 0.0245,0.0611 0.0215,0.13414 -0.007,0.16228 -0.0281,0.0281 -0.0482,-0.0219 -0.0445,-0.11113 z m 69.54514,-7.18961 c -1e-5,-4.0513 0.0103,-5.72104 0.023,-3.71053 0.0126,2.01051 0.0126,5.32521 1e-5,7.366 -0.0126,2.04079 -0.023,0.39583 -0.023,-3.65547 z m -117.63581,7.10495 c 0.004,-0.0986 0.0241,-0.1187 0.0512,-0.0512 0.0245,0.0611 0.0215,0.13415 -0.007,0.16228 -0.0281,0.0281 -0.0481,-0.0219 -0.0445,-0.11112 z m 76.28466,0 c 0.004,-0.0986 0.0241,-0.1187 0.0512,-0.0512 0.0245,0.0611 0.0214,0.13415 -0.007,0.16228 -0.0281,0.0281 -0.0481,-0.0219 -0.0445,-0.11112 z m 69.596,0 c 0.004,-0.0986 0.0241,-0.1187 0.0512,-0.0512 0.0245,0.0611 0.0215,0.13415 -0.007,0.16228 -0.0281,0.0281 -0.0481,-0.0219 -0.0445,-0.11112 z m -27.86201,-0.0673 c 0,-0.0176 0.0667,-0.0843 0.14817,-0.14817 0.13429,-0.10531 0.13727,-0.10232 0.032,0.032 -0.11061,0.14103 -0.18014,0.18588 -0.18014,0.1162 z m -83.46796,-0.39137 c 0,-0.11641 0.0192,-0.16404 0.0427,-0.10583 0.0235,0.0582 0.0235,0.15346 0,0.21167 -0.0235,0.0582 -0.0427,0.0106 -0.0427,-0.10584 z m 13.53998,-0.55738 c 0.004,-0.0986 0.0241,-0.1187 0.0512,-0.0512 0.0245,0.0611 0.0215,0.13415 -0.007,0.16228 -0.0281,0.0281 -0.0482,-0.0219 -0.0445,-0.11112 z m 70.94398,0.0174 c 0,-0.0176 0.0667,-0.0843 0.14817,-0.14817 0.13429,-0.10531 0.13727,-0.10232 0.032,0.032 -0.11061,0.14103 -0.18014,0.18588 -0.18014,0.1162 z m -144.29316,-0.10878 c 0.0582,-0.0235 0.15346,-0.0235 0.21167,0 0.0582,0.0235 0.0106,0.0427 -0.10584,0.0427 -0.11641,0 -0.16404,-0.0192 -0.10583,-0.0427 z m 194.24008,-0.34609 -0.20526,-0.23283 0.23284,0.20526 c 0.12805,0.11289 0.23283,0.21766 0.23283,0.23283 0,0.0664 -0.0686,0.0124 -0.26041,-0.20526 z m 21.82924,1.7e-4 c 0.71014,-0.0142 1.87219,-0.0142 2.58234,0 0.71014,0.0142 0.12911,0.0258 -1.29117,0.0258 -1.42028,0 -2.00131,-0.0116 -1.29117,-0.0258 z m -209.95215,-0.13797 c 0,-0.0176 0.0667,-0.0843 0.14816,-0.14817 0.13429,-0.10531 0.13728,-0.10232 0.032,0.032 -0.11061,0.14103 -0.18013,0.18588 -0.18013,0.1162 z m 34.4727,-0.22203 c 0,-0.11642 0.0192,-0.16404 0.0427,-0.10584 0.0235,0.0582 0.0235,0.15346 0,0.21167 -0.0235,0.0582 -0.0427,0.0106 -0.0427,-0.10583 z m 87.82025,-0.0212 -0.16129,-0.1905 0.1905,0.16129 c 0.17902,0.15157 0.22904,0.21971 0.16129,0.21971 -0.0161,0 -0.1018,-0.0857 -0.1905,-0.1905 z m 16.81437,-0.0108 c 0,-0.0176 0.0667,-0.0843 0.14817,-0.14817 0.13429,-0.10531 0.13728,-0.10232 0.032,0.032 -0.11061,0.14103 -0.18014,0.18588 -0.18014,0.1162 z m 1.016,-0.93133 c 0,-0.0176 0.0667,-0.0843 0.14817,-0.14817 0.13429,-0.10531 0.13728,-0.10232 0.032,0.032 -0.11061,0.14103 -0.18014,0.18588 -0.18014,0.1162 z m 3.38667,-0.5872 c 0,-0.0146 0.12382,-0.13839 0.27517,-0.27516 l 0.27516,-0.24868 -0.24867,0.27517 c -0.2318,0.25649 -0.30166,0.31408 -0.30166,0.24867 z m -22.52133,-0.93133 c 0,-0.0146 0.12382,-0.1384 0.27516,-0.27517 l 0.27517,-0.24867 -0.24867,0.27517 c -0.23181,0.25649 -0.30166,0.31408 -0.30166,0.24867 z m 21.082,-0.25947 c 0,-0.0176 0.0667,-0.0843 0.14816,-0.14817 0.13429,-0.10531 0.13728,-0.10232 0.032,0.032 -0.11061,0.14103 -0.18013,0.18588 -0.18013,0.1162 z m -134.45067,-0.16934 c 0,-0.0176 0.0667,-0.0842 0.14817,-0.14816 0.13429,-0.10532 0.13728,-0.10232 0.032,0.032 -0.11061,0.14104 -0.18014,0.18589 -0.18014,0.1162 z m 76.28467,0 c 0,-0.0176 0.0667,-0.0842 0.14816,-0.14816 0.13429,-0.10532 0.13728,-0.10232 0.032,0.032 -0.1106,0.14104 -0.18013,0.18589 -0.18013,0.1162 z m 69.59599,0 c 0,-0.0176 0.0667,-0.0842 0.14817,-0.14816 0.13429,-0.10532 0.13728,-0.10232 0.032,0.032 -0.11061,0.14104 -0.18014,0.18589 -0.18014,0.1162 z m -90.01146,-0.20086 c -0.10531,-0.13429 -0.10232,-0.13728 0.032,-0.032 0.14103,0.11061 0.18588,0.18013 0.1162,0.18013 -0.0176,0 -0.0843,-0.0667 -0.14817,-0.14816 z m -25.47386,-0.14817 c 0.10936,-0.11642 0.21789,-0.21167 0.24118,-0.21167 0.0233,0 -0.0471,0.0953 -0.15652,0.21167 -0.10936,0.11642 -0.21789,0.21167 -0.24118,0.21167 -0.0233,0 0.0471,-0.0953 0.15652,-0.21167 z m -11.76867,0.095 c 0,-0.0176 0.0667,-0.0842 0.14817,-0.14816 0.13429,-0.10532 0.13728,-0.10232 0.032,0.032 -0.11061,0.14104 -0.18014,0.18589 -0.18014,0.1162 z m 18.57901,-0.32786 -0.24868,-0.27517 0.27517,0.24867 c 0.2565,0.2318 0.31409,0.30166 0.24867,0.30166 -0.0146,0 -0.13839,-0.12382 -0.27516,-0.27516 z m 100.80098,-0.10584 c 0.10937,-0.11641 0.2179,-0.21166 0.24119,-0.21166 0.0233,0 -0.0471,0.0952 -0.15652,0.21166 -0.10936,0.11642 -0.2179,0.21167 -0.24118,0.21167 -0.0233,0 0.0471,-0.0952 0.15651,-0.21167 z m 77.16632,-1.27 c 0,-0.8382 0.0128,-1.16964 0.0281,-0.73655 0.0154,0.4331 0.0153,1.1189 0,1.524 -0.0155,0.40511 -0.0281,0.0508 -0.028,-0.78745 z m -198.0543,-0.10583 c 0.0162,-1.43678 0.0484,-1.26809 0.0888,0.46584 0.0122,0.52397 -0.006,0.9526 -0.0413,0.9525 -0.0349,-8e-5 -0.0563,-0.63835 -0.0475,-1.41834 z m 118.34799,1.30153 c 0,-0.0176 0.0667,-0.0842 0.14816,-0.14816 0.13429,-0.10532 0.13728,-0.10232 0.032,0.032 -0.11061,0.14104 -0.18013,0.18589 -0.18013,0.1162 z m -141.38665,-0.18675 c 0.004,-0.0986 0.0241,-0.1187 0.0512,-0.0512 0.0245,0.0611 0.0215,0.13414 -0.007,0.16227 -0.0281,0.0281 -0.0482,-0.0219 -0.0445,-0.11112 z m 175.83517,-0.18345 c -0.10531,-0.13428 -0.10232,-0.13728 0.032,-0.032 0.14103,0.1106 0.18589,0.18013 0.1162,0.18013 -0.0176,0 -0.0842,-0.0667 -0.14817,-0.14817 z m -112.52199,-0.254 c -0.10531,-0.13428 -0.10232,-0.13728 0.032,-0.032 0.14103,0.1106 0.18588,0.18013 0.1162,0.18013 -0.0176,0 -0.0843,-0.0667 -0.14817,-0.14817 z m -28.35253,0.037 c 0,-0.0146 0.12383,-0.1384 0.27517,-0.27517 l 0.27516,-0.24867 -0.24867,0.27517 c -0.2318,0.25649 -0.30166,0.31408 -0.30166,0.24867 z m -19.99214,-0.37567 c -0.1053,-0.13429 -0.10232,-0.13728 0.032,-0.032 0.14103,0.11061 0.18589,0.18013 0.1162,0.18013 -0.0176,0 -0.0842,-0.0667 -0.14817,-0.14816 z m 76.28467,0 c -0.10531,-0.13429 -0.10232,-0.13728 0.032,-0.032 0.14103,0.11061 0.18588,0.18013 0.11619,0.18013 -0.0176,0 -0.0843,-0.0667 -0.14816,-0.14816 z m 69.59599,0 c -0.1053,-0.13429 -0.10232,-0.13728 0.032,-0.032 0.14103,0.11061 0.18589,0.18013 0.1162,0.18013 -0.0176,0 -0.0842,-0.0667 -0.14817,-0.14816 z m -132.76769,0.004 c 0.10478,-0.0202 0.27623,-0.0202 0.381,0 0.10478,0.0202 0.0191,0.0367 -0.1905,0.0367 -0.20955,0 -0.29527,-0.0165 -0.1905,-0.0367 z m 11.684,0 c 0.10478,-0.0202 0.27623,-0.0202 0.381,0 0.10478,0.0202 0.019,0.0367 -0.1905,0.0367 -0.20955,0 -0.29527,-0.0165 -0.1905,-0.0367 z m 27.686,-0.003 c 0.38418,-0.0157 1.01283,-0.0157 1.397,0 0.38418,0.0157 0.0698,0.0285 -0.6985,0.0285 -0.76835,0 -1.08267,-0.0128 -0.6985,-0.0285 z m 5.33912,-3.4e-4 c 0.6664,-0.0143 1.7332,-0.0143 2.37067,7e-5 0.63747,0.0144 0.0922,0.0261 -1.21162,0.026 -1.30387,-4e-5 -1.82544,-0.0118 -1.15905,-0.0261 z m 116.83488,3.4e-4 c 0.38417,-0.0157 1.01282,-0.0157 1.397,0 0.38417,0.0157 0.0699,0.0285 -0.6985,0.0285 -0.76835,0 -1.08268,-0.0128 -0.6985,-0.0285 z m 5.33912,-3.4e-4 c 0.66639,-0.0143 1.73319,-0.0143 2.37066,7e-5 0.63748,0.0144 0.0922,0.0261 -1.21162,0.026 -1.30386,-4e-5 -1.82544,-0.0118 -1.15904,-0.0261 z m 33.52287,3.4e-4 c 0.38418,-0.0157 1.01283,-0.0157 1.397,0 0.38418,0.0157 0.0699,0.0285 -0.6985,0.0285 -0.76835,0 -1.08267,-0.0128 -0.6985,-0.0285 z m 5.33913,-3.4e-4 c 0.66639,-0.0143 1.73319,-0.0143 2.37066,7e-5 0.63748,0.0144 0.0922,0.0261 -1.21162,0.026 -1.30387,-4e-5 -1.82544,-0.0118 -1.15904,-0.0261 z m -224.11778,-0.0774 c 0.0582,-0.0235 0.15346,-0.0235 0.21166,0 0.0582,0.0235 0.0106,0.0427 -0.10583,0.0427 -0.11642,0 -0.16404,-0.0192 -0.10583,-0.0427 z m 0.508,0 c 0.0582,-0.0235 0.15346,-0.0235 0.21166,0 0.0582,0.0235 0.0106,0.0427 -0.10583,0.0427 -0.11642,0 -0.16404,-0.0192 -0.10583,-0.0427 z m 75.77666,0 c 0.0582,-0.0235 0.15346,-0.0235 0.21167,0 0.0582,0.0235 0.0106,0.0427 -0.10584,0.0427 -0.11641,0 -0.16404,-0.0192 -0.10583,-0.0427 z m 0.508,0 c 0.0582,-0.0235 0.15346,-0.0235 0.21167,0 0.0582,0.0235 0.0106,0.0427 -0.10584,0.0427 -0.11641,0 -0.16404,-0.0192 -0.10583,-0.0427 z m 69.088,0 c 0.0582,-0.0235 0.15346,-0.0235 0.21166,0 0.0582,0.0235 0.0106,0.0427 -0.10583,0.0427 -0.11642,0 -0.16404,-0.0192 -0.10583,-0.0427 z m 0.508,0 c 0.0582,-0.0235 0.15346,-0.0235 0.21166,0 0.0582,0.0235 0.0106,0.0427 -0.10583,0.0427 -0.11642,0 -0.16404,-0.0192 -0.10583,-0.0427 z m -10.2235,-0.74826 c 0.10936,-0.11642 0.2179,-0.21167 0.24118,-0.21167 0.0233,0 -0.0472,0.0953 -0.15652,0.21167 -0.10936,0.11641 -0.21789,0.21166 -0.24118,0.21166 -0.0233,0 0.0472,-0.0953 0.15652,-0.21166 z m -2.54,0.0104 c 0,-0.0176 0.0667,-0.0842 0.14817,-0.14816 0.13428,-0.10532 0.13727,-0.10232 0.032,0.032 -0.11061,0.14104 -0.18014,0.18589 -0.18014,0.1162 z m 29.65639,-0.5607 c 0,-0.20955 0.0165,-0.29527 0.0367,-0.1905 0.0202,0.10478 0.0202,0.27623 0,0.381 -0.0202,0.10478 -0.0367,0.019 -0.0367,-0.1905 z m -102.91422,-3.70335 c 0.29104,-0.0165 0.76729,-0.0165 1.05833,0 0.29104,0.0165 0.0529,0.0301 -0.52916,0.0301 -0.58209,0 -0.82021,-0.0135 -0.52917,-0.0301 z m 122.17399,0 c 0.29104,-0.0165 0.76729,-0.0165 1.05834,0 0.29104,0.0165 0.0529,0.0301 -0.52917,0.0301 -0.58208,0 -0.82021,-0.0135 -0.52917,-0.0301 z m 38.862,0 c 0.29104,-0.0165 0.76729,-0.0165 1.05833,0 0.29105,0.0165 0.0529,0.0301 -0.52916,0.0301 -0.58209,0 -0.82021,-0.0135 -0.52917,-0.0301 z m -103.22983,-0.44531 c 0.0843,-0.0931 0.1723,-0.16934 0.19558,-0.16934 0.0233,0 -0.0266,0.0762 -0.11091,0.16934 -0.0843,0.0931 -0.1723,0.16933 -0.19558,0.16933 -0.0233,0 0.0266,-0.0762 0.11091,-0.16933 z m 51.50379,-1.41251 c 0.0611,-0.0245 0.13415,-0.0215 0.16228,0.007 0.0281,0.0281 -0.0219,0.0481 -0.11112,0.0445 -0.0986,-0.004 -0.1187,-0.0241 -0.0512,-0.0511 z"
         id="path98" />
      <path
         style="fill:#d9d9d9;stroke-width:0.0846667"
         d="m -326.90979,131.21441 c 0.12871,-0.0195 0.31921,-0.0189 0.42334,0.001 0.10414,0.0201 -0.001,0.036 -0.234,0.0354 -0.23283,-6.7e-4 -0.31803,-0.0171 -0.18934,-0.0365 z m 47.2015,8.7e-4 c 0.10532,-0.0203 0.25772,-0.0195 0.33867,0.002 0.0809,0.0212 -0.005,0.0378 -0.19149,0.0368 -0.18627,-9.4e-4 -0.25251,-0.0183 -0.14718,-0.0385 z m 16.29734,0.002 c 0.0815,-0.0213 0.21484,-0.0213 0.29633,0 0.0815,0.0213 0.0148,0.0387 -0.14816,0.0387 -0.16298,0 -0.22966,-0.0174 -0.14817,-0.0387 z m 12.78583,-0.002 c 0.1287,-0.0195 0.3192,-0.0189 0.42333,0.001 0.10414,0.0201 -0.001,0.036 -0.23399,0.0354 -0.23284,-6.7e-4 -0.31804,-0.0171 -0.18934,-0.0365 z m 69.59599,0 c 0.12871,-0.0195 0.31921,-0.0189 0.42334,0.001 0.10414,0.0201 -10e-4,0.036 -0.234,0.0354 -0.23283,-6.7e-4 -0.31803,-0.0171 -0.18934,-0.0365 z m 39.79218,0.002 c 0.0815,-0.0213 0.21484,-0.0213 0.29633,0 0.0815,0.0213 0.0148,0.0387 -0.14817,0.0387 -0.16298,0 -0.22966,-0.0174 -0.14816,-0.0387 z m 10.62566,-10e-4 c 0.10478,-0.0202 0.27623,-0.0202 0.381,0 0.10478,0.0202 0.019,0.0367 -0.1905,0.0367 -0.20955,0 -0.29527,-0.0165 -0.1905,-0.0367 z m 28.23633,10e-4 c 0.0815,-0.0213 0.21485,-0.0213 0.29634,0 0.0815,0.0213 0.0148,0.0387 -0.14817,0.0387 -0.16298,0 -0.22966,-0.0174 -0.14817,-0.0387 z m -202.16573,-4.55597 c 10e-6,-2.46803 0.0108,-3.46548 0.024,-2.21654 0.0132,1.24893 0.0132,3.26823 -3e-5,4.48733 -0.0132,1.2191 -0.024,0.19724 -0.024,-2.27079 z m 174.26906,2.94579 c 0.10532,-0.0203 0.25772,-0.0195 0.33867,0.002 0.0809,0.0212 -0.005,0.0378 -0.19149,0.0368 -0.18627,-9.4e-4 -0.25251,-0.0183 -0.14718,-0.0385 z m -27.00437,-0.16729 c 0.0611,-0.0245 0.13415,-0.0215 0.16229,0.007 0.0281,0.0281 -0.0219,0.0481 -0.11113,0.0445 -0.0986,-0.004 -0.11869,-0.0241 -0.0512,-0.0512 z m -58.14344,-4.22489 c 0.004,-0.0986 0.0241,-0.11869 0.0512,-0.0511 0.0245,0.0611 0.0214,0.13414 -0.007,0.16228 -0.0281,0.0281 -0.0482,-0.0219 -0.0445,-0.11113 z m 84.89282,-1.27668 c 0.0582,-0.0235 0.15346,-0.0235 0.21167,0 0.0582,0.0235 0.0106,0.0427 -0.10584,0.0427 -0.11641,0 -0.16404,-0.0192 -0.10583,-0.0427 z m -214.96866,-1.18534 c 0.0582,-0.0235 0.15346,-0.0235 0.21167,0 0.0582,0.0235 0.0106,0.0427 -0.10583,0.0427 -0.11642,0 -0.16405,-0.0192 -0.10584,-0.0427 z m 15.494,-0.26138 c 1.50178,-0.013 3.95923,-0.013 5.461,0 1.50178,0.013 0.27305,0.0236 -2.7305,0.0236 -3.00355,0 -4.23227,-0.0106 -2.7305,-0.0236 z m 76.28466,0 c 1.50178,-0.013 3.95923,-0.013 5.461,0 1.50178,0.013 0.27305,0.0236 -2.7305,0.0236 -3.00355,0 -4.23227,-0.0106 -2.7305,-0.0236 z m 69.596,0 c 1.50178,-0.013 3.95923,-0.013 5.461,0 1.50178,0.013 0.27305,0.0236 -2.7305,0.0236 -3.00355,0 -4.23227,-0.0106 -2.7305,-0.0236 z m 53.50933,-0.0773 c 0.0582,-0.0235 0.15346,-0.0235 0.21167,0 0.0582,0.0235 0.0106,0.0427 -0.10583,0.0427 -0.11642,0 -0.16405,-0.0192 -0.10584,-0.0427 z m -32.49724,-3.05543 -0.20526,-0.23283 0.23284,0.20526 c 0.12806,0.11289 0.23283,0.21766 0.23283,0.23283 0,0.0664 -0.0686,0.0124 -0.26041,-0.20526 z m -160.36305,-0.508 c -0.10531,-0.13429 -0.10232,-0.13728 0.032,-0.032 0.14103,0.11061 0.18588,0.18014 0.11619,0.18014 -0.0176,0 -0.0842,-0.0667 -0.14816,-0.14817 z m 76.28466,0 c -0.10531,-0.13429 -0.10232,-0.13728 0.032,-0.032 0.0815,0.0639 0.14817,0.13059 0.14817,0.14817 0,0.0697 -0.0695,0.0248 -0.18014,-0.1162 z m 69.596,0 c -0.10531,-0.13429 -0.10232,-0.13728 0.032,-0.032 0.0815,0.0639 0.14816,0.13059 0.14816,0.14817 0,0.0697 -0.0695,0.0248 -0.18013,-0.1162 z m -16.2452,0.0315 c 0,-0.0176 0.0667,-0.0842 0.14817,-0.14816 0.13429,-0.10532 0.13728,-0.10232 0.032,0.032 -0.11061,0.14104 -0.18014,0.18589 -0.18014,0.1162 z m -25.69633,-0.39136 c 0.0843,-0.0931 0.1723,-0.16934 0.19558,-0.16934 0.0233,0 -0.0266,0.0762 -0.11091,0.16934 -0.0843,0.0931 -0.1723,0.16933 -0.19558,0.16933 -0.0233,0 0.0266,-0.0762 0.11091,-0.16933 z m -113.07233,-0.80434 c 0.10937,-0.11641 0.2179,-0.21166 0.24118,-0.21166 0.0233,0 -0.0471,0.0952 -0.15651,0.21166 -0.10937,0.11642 -0.2179,0.21167 -0.24118,0.21167 -0.0233,0 0.0471,-0.0952 0.15651,-0.21167 z m 76.28466,0 c 0.10937,-0.11641 0.2179,-0.21166 0.24119,-0.21166 0.0233,0 -0.0471,0.0952 -0.15652,0.21166 -0.10936,0.11642 -0.2179,0.21167 -0.24118,0.21167 -0.0233,0 0.0471,-0.0952 0.15651,-0.21167 z m 69.596,0 c 0.10937,-0.11641 0.2179,-0.21166 0.24118,-0.21166 0.0233,0 -0.0471,0.0952 -0.15651,0.21166 -0.10937,0.11642 -0.2179,0.21167 -0.24118,0.21167 -0.0233,0 0.0471,-0.0952 0.15651,-0.21167 z m -5.16467,-0.66696 c 0,-0.0176 0.0667,-0.0843 0.14817,-0.14817 0.13429,-0.10531 0.13728,-0.10232 0.032,0.032 -0.11061,0.14103 -0.18014,0.18588 -0.18014,0.1162 z m 34.43817,-4.76544 c 0.0582,-0.0235 0.15346,-0.0235 0.21167,0 0.0582,0.0235 0.0106,0.0427 -0.10584,0.0427 -0.11641,0 -0.16404,-0.0192 -0.10583,-0.0427 z m -51.53415,-1.43265 c 0.004,-0.0986 0.0241,-0.11869 0.0512,-0.0512 0.0245,0.0611 0.0215,0.13414 -0.007,0.16227 -0.0281,0.0281 -0.0481,-0.0219 -0.0445,-0.11112 z m -1.55185,-1.44602 c 0.0582,-0.0235 0.15346,-0.0235 0.21167,0 0.0582,0.0235 0.0106,0.0427 -0.10583,0.0427 -0.11642,0 -0.16405,-0.0192 -0.10584,-0.0427 z m 6.77665,-0.007 c 0.29287,-0.0166 0.75007,-0.0164 1.016,3.4e-4 0.26593,0.0168 0.0263,0.0303 -0.53248,0.0302 -0.5588,-1.7e-4 -0.77639,-0.0139 -0.48352,-0.0305 z"
         id="path96" />
      <path
         style="fill:#cacaca;stroke-width:0.0846667"
         d="m -327.28665,131.21733 c 0.0611,-0.0245 0.13414,-0.0215 0.16228,0.007 0.0281,0.0281 -0.0219,0.0481 -0.11113,0.0445 -0.0986,-0.004 -0.11869,-0.0241 -0.0512,-0.0512 z m 1.016,0 c 0.0611,-0.0245 0.13414,-0.0215 0.16228,0.007 0.0281,0.0281 -0.0219,0.0481 -0.11113,0.0445 -0.0986,-0.004 -0.11869,-0.0241 -0.0512,-0.0512 z m 46.13804,0.002 c 0.0582,-0.0235 0.15345,-0.0235 0.21166,0 0.0582,0.0235 0.0106,0.0427 -0.10583,0.0427 -0.11642,0 -0.16404,-0.0192 -0.10583,-0.0427 z m 0.93133,0 c 0.0582,-0.0235 0.15346,-0.0235 0.21167,0 0.0582,0.0235 0.0106,0.0427 -0.10584,0.0427 -0.11641,0 -0.16404,-0.0192 -0.10583,-0.0427 z m 15.40933,0 c 0.0582,-0.0235 0.15346,-0.0235 0.21167,0 0.0582,0.0235 0.0106,0.0427 -0.10583,0.0427 -0.11642,0 -0.16405,-0.0192 -0.10584,-0.0427 z m 0.85196,-0.002 c 0.0611,-0.0245 0.13415,-0.0215 0.16228,0.007 0.0281,0.0281 -0.0219,0.0481 -0.11112,0.0445 -0.0986,-0.004 -0.1187,-0.0241 -0.0512,-0.0512 z m 11.938,0 c 0.0611,-0.0245 0.13415,-0.0215 0.16228,0.007 0.0281,0.0281 -0.0219,0.0481 -0.11112,0.0445 -0.0986,-0.004 -0.1187,-0.0241 -0.0512,-0.0512 z m 1.016,0 c 0.0611,-0.0245 0.13415,-0.0215 0.16228,0.007 0.0281,0.0281 -0.0219,0.0481 -0.11113,0.0445 -0.0986,-0.004 -0.11869,-0.0241 -0.0511,-0.0512 z m 68.58,0 c 0.0611,-0.0245 0.13414,-0.0215 0.16228,0.007 0.0281,0.0281 -0.0219,0.0481 -0.11113,0.0445 -0.0986,-0.004 -0.11869,-0.0241 -0.0512,-0.0512 z m 1.016,0 c 0.0611,-0.0245 0.13414,-0.0215 0.16228,0.007 0.0281,0.0281 -0.0219,0.0481 -0.11113,0.0445 -0.0986,-0.004 -0.11869,-0.0241 -0.0512,-0.0512 z m 38.77204,0.002 c 0.0582,-0.0235 0.15345,-0.0235 0.21166,0 0.0582,0.0235 0.0106,0.0427 -0.10583,0.0427 -0.11642,0 -0.16404,-0.0192 -0.10583,-0.0427 z m 0.85195,-0.002 c 0.0611,-0.0245 0.13415,-0.0215 0.16228,0.007 0.0281,0.0281 -0.0219,0.0481 -0.11112,0.0445 -0.0986,-0.004 -0.11869,-0.0241 -0.0512,-0.0512 z m 9.73138,0.002 c 0.0582,-0.0235 0.15346,-0.0235 0.21167,0 0.0582,0.0235 0.0106,0.0427 -0.10584,0.0427 -0.11641,0 -0.16404,-0.0192 -0.10583,-0.0427 z m 1.02129,-0.002 c 0.0611,-0.0245 0.13415,-0.0215 0.16228,0.007 0.0281,0.0281 -0.0219,0.0481 -0.11112,0.0445 -0.0986,-0.004 -0.1187,-0.0241 -0.0512,-0.0512 z m 27.25737,0.002 c 0.0582,-0.0235 0.15346,-0.0235 0.21167,0 0.0582,0.0235 0.0106,0.0427 -0.10583,0.0427 -0.11642,0 -0.16404,-0.0192 -0.10584,-0.0427 z m 0.85196,-0.002 c 0.0611,-0.0245 0.13415,-0.0215 0.16228,0.007 0.0281,0.0281 -0.0219,0.0481 -0.11112,0.0445 -0.0986,-0.004 -0.1187,-0.0241 -0.0512,-0.0512 z m -251.40311,-10.35617 c 0,-5.65785 0.0101,-7.97242 0.0225,-5.1435 0.0124,2.82893 0.0124,7.45808 0,10.287 -0.0124,2.82893 -0.0225,0.51435 -0.0225,-5.1435 z m 62.48254,5.588 c 0,-2.58445 0.0108,-3.64172 0.0239,-2.3495 0.0132,1.29223 0.0132,3.40678 0,4.699 -0.0131,1.29223 -0.0239,0.23495 -0.0239,-2.3495 z m 58.33678,-5.588 c 0,-5.65785 0.0101,-7.97242 0.0225,-5.1435 0.0124,2.82893 0.0124,7.45808 0,10.287 -0.0124,2.82893 -0.0225,0.51435 -0.0225,-5.1435 z m 109.30339,5.24934 c 0,-2.77072 0.0107,-3.90419 0.0237,-2.51884 0.013,1.38536 0.013,3.65231 0,5.03767 -0.0131,1.38536 -0.0237,0.25188 -0.0237,-2.51883 z m -2.91839,3.69336 c 0,-0.0176 0.0667,-0.0842 0.14817,-0.14816 0.13429,-0.10532 0.13728,-0.10232 0.032,0.032 -0.11061,0.14104 -0.18014,0.18589 -0.18014,0.1162 z m -195.11432,-0.64536 c 0.0843,-0.0931 0.17229,-0.16934 0.19558,-0.16934 0.0233,0 -0.0266,0.0762 -0.11092,0.16934 -0.0843,0.0931 -0.17229,0.16933 -0.19558,0.16933 -0.0233,0 0.0266,-0.0762 0.11092,-0.16933 z m 76.28466,0 c 0.0843,-0.0931 0.1723,-0.16934 0.19558,-0.16934 0.0233,0 -0.0266,0.0762 -0.11091,0.16934 -0.0843,0.0931 -0.1723,0.16933 -0.19558,0.16933 -0.0233,0 0.0266,-0.0762 0.11091,-0.16933 z m 28.194,0 c 0.0843,-0.0931 0.1723,-0.16934 0.19558,-0.16934 0.0233,0 -0.0266,0.0762 -0.11091,0.16934 -0.0843,0.0931 -0.1723,0.16933 -0.19558,0.16933 -0.0233,0 0.0266,-0.0762 0.11091,-0.16933 z m 41.402,0 c 0.0843,-0.0931 0.17229,-0.16934 0.19558,-0.16934 0.0233,0 -0.0266,0.0762 -0.11092,0.16934 -0.0843,0.0931 -0.17229,0.16933 -0.19558,0.16933 -0.0233,0 0.0266,-0.0762 0.11092,-0.16933 z m -110.03513,-0.3175 c -0.10531,-0.13429 -0.10232,-0.13728 0.032,-0.032 0.0815,0.0639 0.14816,0.13059 0.14816,0.14817 0,0.0697 -0.0695,0.0248 -0.18013,-0.1162 z m 17.57641,-6.58284 c 10e-6,-2.6543 0.0107,-3.72791 0.0238,-2.3858 0.0131,1.34211 0.0131,3.51381 -3e-5,4.826 -0.0131,1.31219 -0.0238,0.2141 -0.0238,-2.4402 z m 122.17399,0 c 2e-5,-2.6543 0.0107,-3.72791 0.0239,-2.3858 0.0131,1.34211 0.0131,3.51381 -3e-5,4.826 -0.0131,1.31219 -0.0238,0.2141 -0.0238,-2.4402 z m 38.862,0 c 1e-5,-2.6543 0.0107,-3.72791 0.0238,-2.3858 0.0131,1.34211 0.0131,3.51381 -3e-5,4.826 -0.0131,1.31219 -0.0238,0.2141 -0.0238,-2.4402 z m -26.70961,2.7197 c 0,-0.0176 0.0667,-0.0843 0.14817,-0.14816 0.13429,-0.10532 0.13728,-0.10232 0.032,0.032 -0.11061,0.14104 -0.18014,0.18589 -0.18014,0.1162 z m -199.23283,-0.92107 c 0.0352,-0.0352 2.93846,-0.0543 6.45162,-0.0423 l 6.38755,0.0217 -6.45161,0.0423 c -3.54839,0.0233 -6.4228,0.0135 -6.38756,-0.0217 z m 76.28466,0 c 0.0352,-0.0352 2.93846,-0.0543 6.45162,-0.0423 l 6.38756,0.0217 -6.45162,0.0423 c -3.54839,0.0233 -6.4228,0.0135 -6.38756,-0.0217 z m 69.596,0 c 0.0352,-0.0352 2.93846,-0.0543 6.45162,-0.0423 l 6.38755,0.0217 -6.45161,0.0423 c -3.54839,0.0233 -6.4228,0.0135 -6.38756,-0.0217 z m 57.82357,-0.12632 c 0.71302,-0.0142 1.85602,-0.0141 2.54,7e-5 0.68398,0.0142 0.1006,0.0258 -1.2964,0.0258 -1.397,-4e-5 -1.95662,-0.0117 -1.2436,-0.0259 z m -220.77355,-1.18533 c 0.77999,-0.014 2.05634,-0.014 2.83633,0 0.77999,0.014 0.14182,0.0254 -1.41817,0.0254 -1.55998,0 -2.19816,-0.0114 -1.41816,-0.0254 z M -130.86,122.41199 c 0.0611,-0.0245 0.13415,-0.0215 0.16228,0.007 0.0281,0.0281 -0.0219,0.0481 -0.11112,0.0445 -0.0986,-0.004 -0.11869,-0.0241 -0.0512,-0.0511 z m -65.05045,-1.55083 c 0.0843,-0.0931 0.1723,-0.16933 0.19558,-0.16933 0.0233,0 -0.0266,0.0762 -0.11091,0.16933 -0.0843,0.0931 -0.1723,0.16934 -0.19558,0.16934 -0.0233,0 0.0266,-0.0762 0.11091,-0.16934 z m 1.82033,-1.7253 c 0,-0.0176 0.0667,-0.0842 0.14817,-0.14816 0.13429,-0.10532 0.13728,-0.10232 0.032,0.032 -0.11061,0.14104 -0.18014,0.18589 -0.18014,0.1162 z m -111.81037,-0.58186 -0.16129,-0.1905 0.1905,0.16129 c 0.17902,0.15157 0.22904,0.21971 0.16129,0.21971 -0.0161,0 -0.10179,-0.0857 -0.1905,-0.1905 z m 20.66671,-0.74084 c 0.0843,-0.0931 0.1723,-0.16933 0.19558,-0.16933 0.0233,0 -0.0266,0.0762 -0.11091,0.16933 -0.0843,0.0931 -0.1723,0.16934 -0.19558,0.16934 -0.0233,0 0.0266,-0.0762 0.11091,-0.16934 z m -54.20765,-0.21166 c 9.4e-4,-0.18627 0.0183,-0.2525 0.0385,-0.14718 0.0203,0.10532 0.0195,0.25772 -0.002,0.33866 -0.0212,0.081 -0.0378,-0.005 -0.0368,-0.19148 z m 26.01365,-0.21167 c 0.0843,-0.0931 0.1723,-0.16933 0.19558,-0.16933 0.0233,0 -0.0266,0.0762 -0.11091,0.16933 -0.0843,0.0931 -0.1723,0.16933 -0.19558,0.16933 -0.0233,0 0.0266,-0.0762 0.11091,-0.16933 z m 121.32733,-0.16933 c 0.0843,-0.0931 0.17229,-0.16934 0.19558,-0.16934 0.0233,0 -0.0266,0.0762 -0.11092,0.16934 -0.0843,0.0931 -0.17229,0.16933 -0.19558,0.16933 -0.0233,0 0.0266,-0.0762 0.11092,-0.16933 z m 67.34592,-0.0635 -0.20526,-0.23284 0.23284,0.20526 c 0.12805,0.1129 0.23283,0.21767 0.23283,0.23284 0,0.0664 -0.0686,0.0124 -0.26041,-0.20526 z m -93.87555,-1.03717 c 0,-0.11642 0.0192,-0.16404 0.0427,-0.10583 0.0235,0.0582 0.0235,0.15346 0,0.21166 -0.0235,0.0582 -0.0427,0.0106 -0.0427,-0.10583 z m 56.38131,-0.38805 c 0.004,-0.0986 0.0241,-0.1187 0.0512,-0.0512 0.0245,0.0611 0.0215,0.13415 -0.007,0.16228 -0.0281,0.0281 -0.0482,-0.0219 -0.0445,-0.11112 z M -267.7992,114.0455 c -8e-5,-0.93134 0.0123,-1.32389 0.0275,-0.87234 0.0152,0.45155 0.0152,1.21355 0,1.69333 -0.0151,0.47979 -0.0276,0.11034 -0.0276,-0.82099 z m 122.17399,0 c -8e-5,-0.93134 0.0123,-1.32389 0.0275,-0.87234 0.0152,0.45155 0.0153,1.21355 0,1.69333 -0.0151,0.47979 -0.0275,0.11034 -0.0276,-0.82099 z m 38.862,0 c -8e-5,-0.93134 0.0123,-1.32389 0.0275,-0.87234 0.0152,0.45155 0.0152,1.21355 0,1.69333 -0.0151,0.47979 -0.0276,0.11034 -0.0276,-0.82099 z m -56.16958,-1.60867 c 0.10937,-0.11642 0.2179,-0.21167 0.24118,-0.21167 0.0233,0 -0.0472,0.0952 -0.15651,0.21167 -0.10936,0.11642 -0.2179,0.21167 -0.24118,0.21167 -0.0233,0 0.0472,-0.0952 0.15651,-0.21167 z m 5.949,-0.18775 c 0.1287,-0.0195 0.3192,-0.0189 0.42333,10e-4 0.10414,0.0201 -0.001,0.036 -0.23399,0.0354 -0.23284,-6.8e-4 -0.31804,-0.0171 -0.18934,-0.0365 z"
         id="path94" />
      <path
         style="fill:#fecb56;stroke-width:0.0846667"
         d="m -396.31937,150.89666 c -0.022,-0.0582 -0.0494,-5.13291 -0.0608,-11.27712 l -0.0209,-11.17129 -6.74547,6.74746 c -3.71002,3.7111 -6.78665,6.74745 -6.83696,6.74745 -0.10966,0 -4.27196,-4.20212 -4.30581,-4.34701 -0.013,-0.0555 3.7113,-3.82998 8.27616,-8.38773 4.56486,-4.55775 8.29975,-8.31681 8.29975,-8.35345 0,-0.0366 -3.7338,-3.80032 -8.29733,-8.36374 -4.56354,-4.56342 -8.29734,-8.3478 -8.29734,-8.40973 0,-0.15734 4.1636,-4.302887 4.31863,-4.299899 0.0695,0.0013 3.15532,3.028919 6.85737,6.727959 l 6.731,6.72553 0.0423,-11.23646 0.0423,-11.236464 1.55846,-0.02313 1.55845,-0.02313 8.64277,8.64139 8.64277,8.641394 -6.39123,6.38322 c -3.51517,3.51077 -6.39122,6.42643 -6.39122,6.47925 0,0.0528 2.87605,2.96849 6.39122,6.47926 l 6.39123,6.38322 -8.64081,8.63943 -8.6408,8.63943 h -1.54191 c -1.15578,0 -1.55192,-0.0265 -1.58186,-0.10584 z m 11.47526,-17.18074 c 0,-0.0638 -5.14638,-5.23476 -5.20987,-5.23476 -0.0217,0 -0.0395,2.3715 -0.0395,5.26999 v 5.26999 l 2.62466,-2.62364 c 1.44357,-1.44301 2.62467,-2.64972 2.62467,-2.68158 z m -0.13727,-25.5419 0.16264,-0.19881 -2.63735,-2.63736 -2.63735,-2.63735 v 5.28581 5.28581 l 2.47471,-2.44965 c 1.36108,-1.3473 2.54789,-2.5391 2.63735,-2.64845 z m -32.32481,15.76196 c -1.65729,-1.66165 -3.01325,-3.04531 -3.01325,-3.07482 0,-0.0871 6.01902,-6.096 6.1063,-6.096 0.0938,0 6.0857,6.00207 6.0857,6.096 0,0.0939 -5.99193,6.096 -6.0857,6.096 -0.0439,0 -1.43576,-1.35953 -3.09305,-3.02118 z m 41.99234,0.0252 c -1.62695,-1.6411 -2.97118,-3.0231 -2.98718,-3.07112 -0.0322,-0.0965 5.93429,-6.1249 6.06196,-6.1249 0.0873,0 6.10629,6.00887 6.10629,6.096 0,0.10293 -6.02731,6.09595 -6.12475,6.08992 -0.054,-0.003 -1.42938,-1.3488 -3.05632,-2.9899 z"
         id="path92" />
      <path
         style="fill:#afafaf;stroke-width:0.0846667"
         d="m -263.24161,129.4388 c 0.0815,-0.0213 0.21484,-0.0213 0.29633,0 0.0815,0.0213 0.0148,0.0387 -0.14817,0.0387 -0.16298,0 -0.22966,-0.0174 -0.14816,-0.0387 z m 122.17399,0 c 0.0815,-0.0213 0.21484,-0.0213 0.29633,0 0.0815,0.0213 0.0148,0.0387 -0.14816,0.0387 -0.16299,0 -0.22966,-0.0174 -0.14817,-0.0387 z m 38.862,0 c 0.0815,-0.0213 0.21484,-0.0213 0.29633,0 0.0815,0.0213 0.0148,0.0387 -0.14817,0.0387 -0.16298,0 -0.22965,-0.0174 -0.14816,-0.0387 z m -230.66396,-0.68247 c -0.10531,-0.13429 -0.10232,-0.13728 0.032,-0.032 0.0815,0.0639 0.14817,0.13059 0.14817,0.14817 0,0.0697 -0.0695,0.0248 -0.18014,-0.1162 z m 76.28466,0 c -0.10531,-0.13429 -0.10232,-0.13728 0.032,-0.032 0.14103,0.11061 0.18589,0.18014 0.1162,0.18014 -0.0176,0 -0.0842,-0.0667 -0.14817,-0.14817 z m 69.596,0 c -0.10531,-0.13429 -0.10232,-0.13728 0.032,-0.032 0.14103,0.11061 0.18588,0.18014 0.11619,0.18014 -0.0176,0 -0.0842,-0.0667 -0.14816,-0.14817 z m 34.25847,-0.6985 c 0.0843,-0.0931 0.17229,-0.16933 0.19558,-0.16933 0.0233,0 -0.0266,0.0762 -0.11092,0.16933 -0.0843,0.0931 -0.17229,0.16933 -0.19558,0.16933 -0.0233,0 0.0266,-0.0762 0.11092,-0.16933 z m -169.62966,-0.28597 c 0,-0.0176 0.0667,-0.0842 0.14816,-0.14816 0.13429,-0.10532 0.13728,-0.10232 0.032,0.032 -0.1106,0.14104 -0.18013,0.18589 -0.18013,0.1162 z m 76.28466,0 c 0,-0.0176 0.0667,-0.0842 0.14817,-0.14816 0.13429,-0.10532 0.13728,-0.10232 0.032,0.032 -0.11061,0.14104 -0.18014,0.18589 -0.18014,0.1162 z m 69.596,0 c 0,-0.0176 0.0667,-0.0842 0.14816,-0.14816 0.13429,-0.10532 0.13728,-0.10232 0.032,0.032 -0.1106,0.14104 -0.18013,0.18589 -0.18013,0.1162 z m -91.34865,-0.61008 c 0.004,-0.0986 0.0241,-0.1187 0.0512,-0.0512 0.0245,0.0611 0.0215,0.13415 -0.007,0.16228 -0.0281,0.0281 -0.0481,-0.0219 -0.0445,-0.11112 z m 122.17399,0 c 0.004,-0.0986 0.0241,-0.1187 0.0512,-0.0512 0.0245,0.0611 0.0214,0.13415 -0.007,0.16228 -0.0281,0.0281 -0.0481,-0.0219 -0.0445,-0.11112 z m 38.862,0 c 0.004,-0.0986 0.0241,-0.1187 0.0512,-0.0512 0.0245,0.0611 0.0215,0.13415 -0.007,0.16228 -0.0281,0.0281 -0.0481,-0.0219 -0.0445,-0.11112 z m -27.26266,-0.67734 c 0.004,-0.0986 0.0241,-0.11869 0.0511,-0.0512 0.0245,0.0611 0.0215,0.13414 -0.007,0.16228 -0.0281,0.0281 -0.0481,-0.0219 -0.0445,-0.11113 z m -15.57198,-0.54328 c 0,-0.11641 0.0192,-0.16404 0.0427,-0.10583 0.0235,0.0582 0.0235,0.15346 0,0.21167 -0.0235,0.0582 -0.0427,0.0106 -0.0427,-0.10584 z m 0.003,-0.55033 c 0.002,-0.1397 0.0207,-0.1866 0.0422,-0.10422 0.0215,0.0824 0.0201,0.19668 -0.003,0.254 -0.0232,0.0573 -0.0408,-0.0101 -0.039,-0.14978 z m -50.64716,-0.49763 c 0,-0.0176 0.0667,-0.0843 0.14816,-0.14817 0.13429,-0.10531 0.13728,-0.10232 0.032,0.032 -0.11061,0.14103 -0.18013,0.18588 -0.18013,0.1162 z m 69.15678,-2.48121 c 0.0611,-0.0245 0.13415,-0.0215 0.16228,0.007 0.0281,0.0281 -0.0219,0.0481 -0.11112,0.0445 -0.0986,-0.004 -0.11869,-0.0241 -0.0512,-0.0511 z m -159.73674,-0.78883 c 0,-0.11641 0.0192,-0.16404 0.0427,-0.10583 0.0235,0.0582 0.0235,0.15346 0,0.21167 -0.0235,0.0582 -0.0427,0.0106 -0.0427,-0.10584 z m -49.9667,-0.46566 c 0.10936,-0.11642 0.21789,-0.21167 0.24118,-0.21167 0.0233,0 -0.0471,0.0952 -0.15652,0.21167 -0.10936,0.11641 -0.2179,0.21166 -0.24118,0.21166 -0.0233,0 0.0471,-0.0952 0.15652,-0.21166 z m 144.56832,0.0423 c 0.0843,-0.0931 0.1723,-0.16933 0.19558,-0.16933 0.0233,0 -0.0266,0.0762 -0.11091,0.16933 -0.0843,0.0931 -0.1723,0.16933 -0.19558,0.16933 -0.0233,0 0.0266,-0.0762 0.11091,-0.16933 z m 73.03168,-0.21872 c 0.004,-0.0986 0.0241,-0.1187 0.0511,-0.0512 0.0245,0.0611 0.0215,0.13414 -0.007,0.16227 -0.0281,0.0281 -0.0481,-0.0219 -0.0445,-0.11112 z m -100.10384,-1.19202 c 0.0582,-0.0235 0.15345,-0.0235 0.21166,0 0.0582,0.0235 0.0106,0.0427 -0.10583,0.0427 -0.11642,0 -0.16404,-0.0192 -0.10583,-0.0427 z m 29.0195,-0.45193 c 0.0843,-0.0931 0.17229,-0.16933 0.19558,-0.16933 0.0233,0 -0.0266,0.0762 -0.11092,0.16933 -0.0843,0.0931 -0.17229,0.16934 -0.19558,0.16934 -0.0233,0 0.0266,-0.0762 0.11092,-0.16934 z m 79.62899,-0.381 c 0.10937,-0.11641 0.2179,-0.21166 0.24118,-0.21166 0.0233,0 -0.0471,0.0952 -0.15651,0.21166 -0.10937,0.11642 -0.2179,0.21167 -0.24118,0.21167 -0.0233,0 0.0472,-0.0952 0.15651,-0.21167 z m -77.76633,-1.397 c 0.0843,-0.0931 0.1723,-0.16933 0.19558,-0.16933 0.0233,0 -0.0266,0.0762 -0.11091,0.16933 -0.0843,0.0931 -0.1723,0.16934 -0.19558,0.16934 -0.0233,0 0.0266,-0.0762 0.11091,-0.16934 z m 80.88312,0.0268 c 0.0611,-0.0245 0.13415,-0.0215 0.16228,0.007 0.0281,0.0281 -0.0219,0.0482 -0.11112,0.0445 -0.0986,-0.004 -0.1187,-0.0241 -0.0512,-0.0512 z m 0.93134,0 c 0.0611,-0.0245 0.13414,-0.0215 0.16228,0.007 0.0281,0.0281 -0.0219,0.0482 -0.11113,0.0445 -0.0986,-0.004 -0.11869,-0.0241 -0.0512,-0.0512 z m -19.72734,-0.16933 c 0.0611,-0.0245 0.13415,-0.0214 0.16228,0.007 0.0281,0.0281 -0.0219,0.0482 -0.11112,0.0445 -0.0986,-0.004 -0.11869,-0.0241 -0.0512,-0.0512 z m -130.67812,-0.8735 c 0,-0.48895 0.014,-0.68897 0.0311,-0.4445 0.0171,0.24448 0.0171,0.64453 0,0.889 -0.0171,0.24448 -0.0311,0.0444 -0.0311,-0.4445 z m 122.17399,0 c 0,-0.48895 0.014,-0.68897 0.0311,-0.4445 0.0171,0.24448 0.0171,0.64453 0,0.889 -0.0171,0.24448 -0.0311,0.0444 -0.0311,-0.4445 z m 23.63301,0.67734 c 0.0843,-0.0931 0.17229,-0.16934 0.19558,-0.16934 0.0233,0 -0.0266,0.0762 -0.11092,0.16934 -0.0843,0.0931 -0.17229,0.16933 -0.19558,0.16933 -0.0233,0 0.0266,-0.0762 0.11092,-0.16933 z m 15.22899,-0.67734 c 0,-0.48895 0.01399,-0.68897 0.03109,-0.4445 0.0171,0.24448 0.0171,0.64453 0,0.889 -0.0171,0.24448 -0.03109,0.0444 -0.03109,-0.4445 z m -62.24795,-0.508 c 0,-0.11641 0.0192,-0.16404 0.0427,-0.10583 0.0235,0.0582 0.0235,0.15346 0,0.21167 -0.0235,0.0582 -0.0427,0.0106 -0.0427,-0.10584 z m -165.13453,-0.4794 c 0.0582,-0.0235 0.15346,-0.0235 0.21166,0 0.0582,0.0235 0.0106,0.0427 -0.10583,0.0427 -0.11642,0 -0.16404,-0.0192 -0.10583,-0.0427 z m 18.67061,-0.003 c 0.0824,-0.0215 0.19668,-0.0201 0.254,0.003 0.0573,0.0232 -0.0101,0.0408 -0.14978,0.039 -0.1397,-0.002 -0.1866,-0.0207 -0.10422,-0.0422 z m 11.59933,0 c 0.0824,-0.0215 0.19668,-0.0201 0.254,0.003 0.0573,0.0232 -0.0101,0.0408 -0.14978,0.039 -0.1397,-0.002 -0.18659,-0.0207 -0.10422,-0.0422 z m 17.48735,8.5e-4 c 0.0611,-0.0245 0.13414,-0.0215 0.16228,0.007 0.0281,0.0281 -0.0219,0.0481 -0.11113,0.0445 -0.0986,-0.004 -0.11869,-0.0241 -0.0512,-0.0511 z m 28.52737,0.002 c 0.0582,-0.0235 0.15346,-0.0235 0.21167,0 0.0582,0.0235 0.0106,0.0427 -0.10584,0.0427 -0.11641,0 -0.16404,-0.0192 -0.10583,-0.0427 z m 69.596,0 c 0.0582,-0.0235 0.15346,-0.0235 0.21166,0 0.0582,0.0235 0.0106,0.0427 -0.10583,0.0427 -0.11642,0 -0.16404,-0.0192 -0.10583,-0.0427 z m 51.943,-0.002 c 0.0815,-0.0213 0.21484,-0.0213 0.29633,0 0.0815,0.0213 0.0148,0.0387 -0.14817,0.0387 -0.16298,0 -0.22966,-0.0174 -0.14816,-0.0387 z m -89.98754,-1.82548 -0.16129,-0.1905 0.1905,0.16129 c 0.17902,0.15157 0.22904,0.21971 0.16129,0.21971 -0.0161,0 -0.1018,-0.0857 -0.1905,-0.1905 z"
         id="path90" />
      <path
         style="fill:#8d8d8d;stroke-width:0.0846667"
         d="m -222.68467,129.26916 c 0.0824,-0.0215 0.19668,-0.0201 0.254,0.003 0.0573,0.0232 -0.0101,0.0408 -0.14978,0.039 -0.1397,-0.002 -0.1866,-0.0207 -0.10422,-0.0422 z m -98.18833,-0.47415 c 0.0318,-0.0835 0.0791,-0.13049 0.10521,-0.10442 0.0261,0.0261 5e-5,0.0944 -0.0578,0.15182 -0.0836,0.083 -0.0933,0.0733 -0.0474,-0.0474 z m 76.28466,0 c 0.0318,-0.0835 0.0791,-0.13049 0.10521,-0.10442 0.0261,0.0261 5e-5,0.0944 -0.0578,0.15182 -0.0836,0.083 -0.0933,0.0733 -0.0474,-0.0474 z m 69.596,0 c 0.0318,-0.0835 0.0791,-0.13049 0.1052,-0.10442 0.0261,0.0261 6e-5,0.0944 -0.0578,0.15182 -0.0836,0.083 -0.0933,0.0733 -0.0474,-0.0474 z m -108.64082,-1.01235 -0.16129,-0.1905 0.1905,0.16129 c 0.17902,0.15157 0.22904,0.21971 0.16129,0.21971 -0.0161,0 -0.10179,-0.0857 -0.1905,-0.1905 z m -47.53869,-0.127 -0.20526,-0.23283 0.23283,0.20526 c 0.12806,0.11289 0.23283,0.21767 0.23283,0.23283 0,0.0664 -0.0686,0.0124 -0.2604,-0.20526 z m 76.28466,0 -0.20526,-0.23283 0.23283,0.20526 c 0.12806,0.11289 0.23284,0.21767 0.23284,0.23283 0,0.0664 -0.0686,0.0124 -0.26041,-0.20526 z m 69.596,0 -0.20526,-0.23283 0.23283,0.20526 c 0.12806,0.11289 0.23283,0.21767 0.23283,0.23283 0,0.0664 -0.0686,0.0124 -0.2604,-0.20526 z m 51.23642,-0.91722 c 0.004,-0.0986 0.0241,-0.11869 0.0511,-0.0511 0.0245,0.0611 0.0215,0.13414 -0.007,0.16228 -0.0281,0.0281 -0.0481,-0.0219 -0.0445,-0.11113 z m -215.71617,-2.13063 c 0.77999,-0.014 2.05634,-0.014 2.83633,0 0.77999,0.014 0.14182,0.0254 -1.41817,0.0254 -1.55998,0 -2.19816,-0.0114 -1.41816,-0.0254 z m 150.34682,-0.47661 c 0,-0.0176 0.0667,-0.0843 0.14817,-0.14817 0.13429,-0.10531 0.13728,-0.10232 0.032,0.032 -0.11061,0.14103 -0.18014,0.18588 -0.18014,0.1162 z m -22.79121,-2.48121 c 0.0611,-0.0245 0.13415,-0.0215 0.16229,0.007 0.0281,0.0281 -0.0219,0.0481 -0.11113,0.0445 -0.0986,-0.004 -0.11869,-0.0241 -0.0512,-0.0511 z m 25.62755,-0.11149 c 0.0843,-0.0931 0.17229,-0.16934 0.19558,-0.16934 0.0233,0 -0.0266,0.0762 -0.11092,0.16934 -0.0843,0.0931 -0.17229,0.16933 -0.19558,0.16933 -0.0233,0 0.0266,-0.0762 0.11092,-0.16933 z m -2.667,-0.2013 c 0,-0.0176 0.0667,-0.0843 0.14816,-0.14817 0.13429,-0.10531 0.13728,-0.10232 0.032,0.032 -0.11061,0.14103 -0.18013,0.18588 -0.18013,0.1162 z m 4.572,-1.61904 c 0.10936,-0.11641 0.21789,-0.21166 0.24118,-0.21166 0.0233,0 -0.0472,0.0952 -0.15652,0.21166 -0.10936,0.11642 -0.2179,0.21167 -0.24118,0.21167 -0.0233,0 0.0472,-0.0952 0.15652,-0.21167 z m -33.93017,0.0636 c 0.96626,-0.0136 2.54741,-0.0136 3.51367,0 0.96625,0.0136 0.17568,0.0247 -1.75684,0.0247 -1.93251,0 -2.72309,-0.0111 -1.75683,-0.0247 z m -55.01216,-0.78326 c 0.0843,-0.0931 0.17229,-0.16934 0.19558,-0.16934 0.0233,0 -0.0266,0.0762 -0.11092,0.16934 -0.0843,0.0931 -0.17229,0.16933 -0.19558,0.16933 -0.0233,0 0.0266,-0.0762 0.11092,-0.16933 z m 87.33366,-0.37064 c 0,-0.0176 0.0667,-0.0842 0.14817,-0.14816 0.13428,-0.10532 0.13727,-0.10232 0.032,0.032 -0.11061,0.14104 -0.18014,0.18589 -0.18014,0.1162 z m 3.51366,-0.73003 c 0.0843,-0.0931 0.1723,-0.16933 0.19558,-0.16933 0.0233,0 -0.0266,0.0762 -0.11091,0.16933 -0.0843,0.0931 -0.1723,0.16933 -0.19558,0.16933 -0.0233,0 0.0266,-0.0762 0.11091,-0.16933 z m 81.47579,-0.31184 c 0.0611,-0.0245 0.13415,-0.0215 0.16228,0.007 0.0281,0.0281 -0.0219,0.0482 -0.11112,0.0445 -0.0986,-0.004 -0.1187,-0.0241 -0.0512,-0.0512 z m -167.89399,-0.16933 c 0.0611,-0.0245 0.13415,-0.0214 0.16228,0.007 0.0281,0.0281 -0.0219,0.0482 -0.11112,0.0445 -0.0986,-0.004 -0.1187,-0.0241 -0.0512,-0.0512 z m 149.94466,0 c 0.0611,-0.0245 0.13415,-0.0214 0.16228,0.007 0.0281,0.0281 -0.0219,0.0482 -0.11112,0.0445 -0.0986,-0.004 -0.1187,-0.0241 -0.0512,-0.0512 z M -292.56825,117.157 c -0.10531,-0.13429 -0.10232,-0.13728 0.032,-0.032 0.14103,0.11061 0.18589,0.18013 0.1162,0.18013 -0.0176,0 -0.0843,-0.0667 -0.14817,-0.14816 z m 101.69546,-1.0795 c 0.10937,-0.11642 0.2179,-0.21167 0.24119,-0.21167 0.0233,0 -0.0472,0.0952 -0.15652,0.21167 -0.10936,0.11641 -0.2179,0.21166 -0.24118,0.21166 -0.0233,0 0.0472,-0.0952 0.15651,-0.21166 z m -136.84249,-0.52174 c 0.0582,-0.0235 0.15346,-0.0235 0.21167,0 0.0582,0.0235 0.0106,0.0427 -0.10584,0.0427 -0.11641,0 -0.16404,-0.0192 -0.10583,-0.0427 z m 0.67733,0 c 0.0582,-0.0235 0.15346,-0.0235 0.21167,0 0.0582,0.0235 0.0106,0.0427 -0.10583,0.0427 -0.11642,0 -0.16404,-0.0192 -0.10584,-0.0427 z m 17.94934,0 c 0.0582,-0.0235 0.15346,-0.0235 0.21166,0 0.0582,0.0235 0.0106,0.0427 -0.10583,0.0427 -0.11642,0 -0.16404,-0.0192 -0.10583,-0.0427 z m 0.762,0 c 0.0582,-0.0235 0.15346,-0.0235 0.21166,0 0.0582,0.0235 0.0106,0.0427 -0.10583,0.0427 -0.11642,0 -0.16404,-0.0192 -0.10583,-0.0427 z m 10.83733,0 c 0.0582,-0.0235 0.15346,-0.0235 0.21167,0 0.0582,0.0235 0.0106,0.0427 -0.10584,0.0427 -0.11641,0 -0.16404,-0.0192 -0.10583,-0.0427 z m 0.762,0 c 0.0582,-0.0235 0.15346,-0.0235 0.21167,0 0.0582,0.0235 0.0106,0.0427 -0.10584,0.0427 -0.11641,0 -0.16404,-0.0192 -0.10583,-0.0427 z m 16.72327,-0.003 c 0.0824,-0.0215 0.19669,-0.0201 0.254,0.003 0.0573,0.0232 -0.0101,0.0408 -0.14977,0.039 -0.1397,-0.002 -0.1866,-0.0207 -0.10423,-0.0422 z m 0.67734,0 c 0.0824,-0.0215 0.19668,-0.0201 0.254,0.003 0.0573,0.0232 -0.0101,0.0408 -0.14978,0.039 -0.1397,-0.002 -0.18659,-0.0207 -0.10422,-0.0422 z m 27.89605,0.003 c 0.0582,-0.0235 0.15346,-0.0235 0.21167,0 0.0582,0.0235 0.0106,0.0427 -0.10583,0.0427 -0.11642,0 -0.16404,-0.0192 -0.10584,-0.0427 z m 0.67734,0 c 0.0582,-0.0235 0.15346,-0.0235 0.21166,0 0.0582,0.0235 0.0106,0.0427 -0.10583,0.0427 -0.11642,0 -0.16404,-0.0192 -0.10583,-0.0427 z m 68.91866,0 c 0.0582,-0.0235 0.15346,-0.0235 0.21167,0 0.0582,0.0235 0.0106,0.0427 -0.10584,0.0427 -0.11641,0 -0.16404,-0.0192 -0.10583,-0.0427 z m 0.67733,0 c 0.0582,-0.0235 0.15346,-0.0235 0.21167,0 0.0582,0.0235 0.0106,0.0427 -0.10583,0.0427 -0.11642,0 -0.16404,-0.0192 -0.10584,-0.0427 z m 51.22334,0 c 0.0582,-0.0235 0.15345,-0.0235 0.21166,0 0.0582,0.0235 0.0106,0.0427 -0.10583,0.0427 -0.11642,0 -0.16404,-0.0192 -0.10583,-0.0427 z m 0.84666,0 c 0.0582,-0.0235 0.15346,-0.0235 0.21167,0 0.0582,0.0235 0.0106,0.0427 -0.10583,0.0427 -0.11642,0 -0.16405,-0.0192 -0.10584,-0.0427 z m 18.16261,-0.003 c 0.0824,-0.0215 0.19668,-0.0201 0.254,0.003 0.0573,0.0232 -0.0101,0.0408 -0.14978,0.039 -0.1397,-0.002 -0.18659,-0.0207 -0.10422,-0.0422 z m -106.88291,-3.1375 c -0.10531,-0.13428 -0.10232,-0.13728 0.032,-0.032 0.14103,0.1106 0.18589,0.18013 0.1162,0.18013 -0.0176,0 -0.0842,-0.0667 -0.14817,-0.14817 z m 5.77482,-1.59455 c 0.004,-0.0986 0.0241,-0.11869 0.0512,-0.0512 0.0245,0.0611 0.0214,0.13414 -0.007,0.16227 -0.0281,0.0281 -0.0481,-0.0219 -0.0445,-0.11112 z m -139.30451,-0.26803 c 1.08268,-0.0134 2.85433,-0.0134 3.937,0 1.08268,0.0134 0.19685,0.0244 -1.9685,0.0244 -2.16535,0 -3.05117,-0.011 -1.9685,-0.0244 z m 121.11566,-2e-5 c 1.24566,-0.0132 3.28401,-0.0132 4.52967,0 1.24566,0.0132 0.22648,0.024 -2.26483,0.024 -2.49132,0 -3.51049,-0.0108 -2.26484,-0.024 z m 73.19585,-0.16726 c 0.15218,-0.0188 0.38078,-0.0185 0.508,8.7e-4 0.12723,0.0193 0.003,0.0347 -0.27668,0.0343 -0.2794,-5.1e-4 -0.38349,-0.0163 -0.23132,-0.0351 z"
         id="path88" />
      <path
         style="fill:#6f6f6f;stroke-width:0.0846667"
         d="m -266.69982,130.06866 -0.16129,-0.1905 0.1905,0.16129 c 0.17901,0.15157 0.22904,0.21971 0.16129,0.21971 -0.0161,0 -0.1018,-0.0857 -0.1905,-0.1905 z m 122.17399,0 -0.16129,-0.1905 0.1905,0.16129 c 0.17902,0.15157 0.22904,0.21971 0.16129,0.21971 -0.0161,0 -0.1018,-0.0857 -0.1905,-0.1905 z m 38.862,0 -0.16129,-0.1905 0.1905,0.16129 c 0.17902,0.15157 0.22904,0.21971 0.16129,0.21971 -0.0161,0 -0.1018,-0.0857 -0.1905,-0.1905 z m -221.37412,-0.71224 c 0.0582,-0.0235 0.15346,-0.0235 0.21167,0 0.0582,0.0235 0.0106,0.0427 -0.10583,0.0427 -0.11642,0 -0.16404,-0.0192 -0.10584,-0.0427 z m 0.508,0 c 0.0582,-0.0235 0.15346,-0.0235 0.21167,0 0.0582,0.0235 0.0106,0.0427 -0.10583,0.0427 -0.11642,0 -0.16404,-0.0192 -0.10584,-0.0427 z m 46.65134,0 c 0.0582,-0.0235 0.15345,-0.0235 0.21166,0 0.0582,0.0235 0.0106,0.0427 -0.10583,0.0427 -0.11642,0 -0.16404,-0.0192 -0.10583,-0.0427 z m 0.42333,0 c 0.0582,-0.0235 0.15346,-0.0235 0.21167,0 0.0582,0.0235 0.0106,0.0427 -0.10584,0.0427 -0.11641,0 -0.16404,-0.0192 -0.10583,-0.0427 z m 28.702,0 c 0.0582,-0.0235 0.15346,-0.0235 0.21166,0 0.0582,0.0235 0.0106,0.0427 -0.10583,0.0427 -0.11642,0 -0.16404,-0.0192 -0.10583,-0.0427 z m 0.508,0 c 0.0582,-0.0235 0.15346,-0.0235 0.21166,0 0.0582,0.0235 0.0106,0.0427 -0.10583,0.0427 -0.11642,0 -0.16404,-0.0192 -0.10583,-0.0427 z m 69.08799,0 c 0.0582,-0.0235 0.15346,-0.0235 0.21167,0 0.0582,0.0235 0.0106,0.0427 -0.10583,0.0427 -0.11642,0 -0.16404,-0.0192 -0.10584,-0.0427 z m 0.508,0 c 0.0582,-0.0235 0.15346,-0.0235 0.21167,0 0.0582,0.0235 0.0106,0.0427 -0.10583,0.0427 -0.11642,0 -0.16404,-0.0192 -0.10584,-0.0427 z m -47.78854,-0.092 c 1.06256,-0.0135 2.77706,-0.0134 3.81,3e-5 1.03292,0.0135 0.16355,0.0245 -1.93195,0.0244 -2.0955,-2e-5 -2.94063,-0.011 -1.87805,-0.0245 z m 101.91171,-0.98454 c 0,-0.0176 0.0667,-0.0843 0.14817,-0.14816 0.13428,-0.10532 0.13727,-0.10232 0.032,0.032 -0.11061,0.14104 -0.18014,0.18589 -0.18014,0.1162 z m -91.99033,-0.3067 c 0.0843,-0.0931 0.1723,-0.16933 0.19558,-0.16933 0.0233,0 -0.0266,0.0762 -0.11091,0.16933 -0.0843,0.0931 -0.1723,0.16934 -0.19558,0.16934 -0.0233,0 0.0266,-0.0762 0.11091,-0.16934 z m -57.10766,-0.127 c 0.10936,-0.11641 0.21789,-0.21166 0.24118,-0.21166 0.0233,0 -0.0471,0.0952 -0.15652,0.21166 -0.10936,0.11642 -0.2179,0.21167 -0.24118,0.21167 -0.0233,0 0.0471,-0.0952 0.15652,-0.21167 z m 73.91399,-1.5983 c 0,-0.0176 0.0667,-0.0842 0.14817,-0.14816 0.13429,-0.10532 0.13728,-0.10232 0.032,0.032 -0.11061,0.14104 -0.18014,0.18589 -0.18014,0.1162 z m -143.74122,-1.63537 c 0.0824,-0.0215 0.19668,-0.02 0.254,0.003 0.0573,0.0232 -0.0101,0.0408 -0.14977,0.039 -0.1397,-0.002 -0.1866,-0.0207 -0.10423,-0.0422 z m 126.92685,-1.65583 -0.16129,-0.1905 0.1905,0.16129 c 0.17902,0.15157 0.22904,0.21971 0.16129,0.21971 -0.0161,0 -0.1018,-0.0857 -0.1905,-0.1905 z m 17.49171,-0.0108 c 0,-0.0176 0.0667,-0.0842 0.14816,-0.14816 0.13429,-0.10532 0.13728,-0.10232 0.032,0.032 -0.11061,0.14104 -0.18013,0.18589 -0.18013,0.1162 z m -138.26066,-0.33319 c 0,-0.0146 0.12382,-0.1384 0.27516,-0.27517 l 0.27517,-0.24867 -0.24868,0.27517 c -0.2318,0.25649 -0.30165,0.31408 -0.30165,0.24867 z m 46.31934,-0.61556 c 0.004,-0.0986 0.0241,-0.1187 0.0512,-0.0512 0.0245,0.0611 0.0214,0.13414 -0.007,0.16227 -0.0281,0.0281 -0.0482,-0.0219 -0.0445,-0.11112 z m 96.00532,-0.0673 c 0,-0.0176 0.0667,-0.0843 0.14816,-0.14816 0.13429,-0.10532 0.13728,-0.10232 0.032,0.032 -0.11061,0.14104 -0.18013,0.18589 -0.18013,0.1162 z m 71.63467,-0.86408 c 0.004,-0.0986 0.0241,-0.1187 0.0512,-0.0512 0.0245,0.0611 0.0215,0.13415 -0.007,0.16228 -0.0281,0.0281 -0.0481,-0.0219 -0.0445,-0.11112 z m -72.73534,-0.82925 c 0,-0.0176 0.0667,-0.0843 0.14817,-0.14817 0.13428,-0.10531 0.13727,-0.10232 0.032,0.032 -0.11061,0.14103 -0.18014,0.18588 -0.18014,0.1162 z m 3.00567,-0.13737 c 0.0843,-0.0931 0.17229,-0.16933 0.19558,-0.16933 0.0233,0 -0.0266,0.0762 -0.11092,0.16933 -0.0843,0.0931 -0.17229,0.16934 -0.19558,0.16934 -0.0233,0 0.0266,-0.0762 0.11092,-0.16934 z m -22.77534,-0.67733 c 0.0843,-0.0931 0.1723,-0.16933 0.19558,-0.16933 0.0233,0 -0.0266,0.0762 -0.11091,0.16933 -0.0843,0.0931 -0.1723,0.16933 -0.19558,0.16933 -0.0233,0 0.0266,-0.0762 0.11091,-0.16933 z m -57.7507,-0.4445 -0.16129,-0.1905 0.1905,0.16129 c 0.17901,0.15157 0.22904,0.21971 0.16129,0.21971 -0.0161,0 -0.1018,-0.0857 -0.1905,-0.1905 z m -37.07596,-0.14817 c 0.0843,-0.0931 0.1723,-0.16933 0.19558,-0.16933 0.0233,0 -0.0266,0.0762 -0.11091,0.16933 -0.0843,0.0931 -0.1723,0.16934 -0.19558,0.16934 -0.0233,0 0.0266,-0.0762 0.11091,-0.16934 z m 186.29819,-0.3175 c -0.10531,-0.13428 -0.10232,-0.13728 0.032,-0.032 0.14103,0.1106 0.18588,0.18013 0.11619,0.18013 -0.0176,0 -0.0842,-0.0667 -0.14816,-0.14817 z m -66.7912,-0.23283 c 0.10937,-0.11642 0.2179,-0.21167 0.24119,-0.21167 0.0233,0 -0.0472,0.0952 -0.15652,0.21167 -0.10936,0.11642 -0.2179,0.21167 -0.24118,0.21167 -0.0233,0 0.0472,-0.0952 0.15651,-0.21167 z m 31.69963,-0.3175 -0.16129,-0.1905 0.1905,0.16129 c 0.17902,0.15157 0.22904,0.21971 0.16129,0.21971 -0.0161,0 -0.1018,-0.0857 -0.1905,-0.1905 z m -160.74242,-0.46567 c -0.10531,-0.13428 -0.10232,-0.13728 0.032,-0.032 0.14103,0.1106 0.18588,0.18013 0.11619,0.18013 -0.0176,0 -0.0842,-0.0667 -0.14816,-0.14817 z m 20.03447,-0.0212 c 0.0843,-0.0931 0.17229,-0.16934 0.19558,-0.16934 0.0233,0 -0.0266,0.0762 -0.11092,0.16934 -0.0843,0.0931 -0.17229,0.16933 -0.19558,0.16933 -0.0233,0 0.0266,-0.0762 0.11092,-0.16933 z m 56.25019,0.0212 c -0.10531,-0.13428 -0.10232,-0.13728 0.032,-0.032 0.14103,0.1106 0.18589,0.18013 0.1162,0.18013 -0.0176,0 -0.0842,-0.0667 -0.14817,-0.14817 z m 69.596,0 c -0.10531,-0.13428 -0.10232,-0.13728 0.032,-0.032 0.14103,0.1106 0.18588,0.18013 0.11619,0.18013 -0.0176,0 -0.0842,-0.0667 -0.14816,-0.14817 z m 65.27292,0.0903 c 0.0611,-0.0245 0.13415,-0.0215 0.16228,0.007 0.0281,0.0281 -0.0219,0.0482 -0.11112,0.0445 -0.0986,-0.004 -0.1187,-0.0241 -0.0512,-0.0512 z m -193.03492,-0.25966 c -0.1053,-0.13429 -0.10232,-0.13728 0.032,-0.032 0.14103,0.11061 0.18589,0.18014 0.1162,0.18014 -0.0176,0 -0.0842,-0.0667 -0.14817,-0.14817 z m 24.37463,0.0883 c 0.10532,-0.0203 0.25772,-0.0195 0.33867,0.002 0.0809,0.0212 -0.005,0.0378 -0.19149,0.0368 -0.18627,-9.4e-4 -0.25251,-0.0183 -0.14718,-0.0385 z m 9.11118,-0.82912 c 0,-0.51224 0.0141,-0.71087 0.031,-0.44141 0.0169,0.26946 0.0167,0.68856 0,0.93133 -0.017,0.24278 -0.0308,0.0223 -0.0306,-0.48992 z m 122.174,0 c 0,-0.51224 0.0141,-0.71087 0.031,-0.44141 0.0169,0.26946 0.0167,0.68856 0,0.93133 -0.017,0.24278 -0.0308,0.0223 -0.0306,-0.48992 z m 18.57382,0.82925 c 0.10478,-0.0202 0.27623,-0.0202 0.381,0 0.10478,0.0202 0.019,0.0367 -0.1905,0.0367 -0.20955,0 -0.29527,-0.0165 -0.1905,-0.0367 z m 20.28817,-0.82925 c 0,-0.51224 0.0141,-0.71087 0.031,-0.44141 0.0169,0.26946 0.0167,0.68856 0,0.93133 -0.017,0.24278 -0.0308,0.0223 -0.0306,-0.48992 z m -81.69267,-0.127 c 0.0843,-0.0931 0.1723,-0.16934 0.19558,-0.16934 0.0233,0 -0.0266,0.0762 -0.11091,0.16934 -0.0843,0.0931 -0.1723,0.16933 -0.19558,0.16933 -0.0233,0 0.0266,-0.0762 0.11091,-0.16933 z m -18.24566,-4.43464 c 0,-0.0176 0.0667,-0.0842 0.14817,-0.14816 0.13429,-0.10532 0.13727,-0.10232 0.032,0.032 -0.11061,0.14104 -0.18014,0.18589 -0.18014,0.1162 z m -135.86722,-1.46604 c 0.0824,-0.0215 0.19668,-0.0201 0.254,0.003 0.0573,0.0232 -0.0101,0.0408 -0.14977,0.039 -0.1397,-0.002 -0.1866,-0.0207 -0.10423,-0.0422 z m 121.96072,0.003 c 0.0582,-0.0235 0.15346,-0.0235 0.21167,0 0.0582,0.0235 0.0106,0.0427 -0.10584,0.0427 -0.11641,0 -0.16404,-0.0192 -0.10583,-0.0427 z m 65.96062,-0.17109 c 0.0611,-0.0245 0.13415,-0.0215 0.16228,0.007 0.0281,0.0281 -0.0219,0.0481 -0.11112,0.0445 -0.0986,-0.004 -0.1187,-0.0241 -0.0512,-0.0512 z"
         id="path86" />
      <path
         style="fill:#4f4f4f;stroke-width:0.0846667"
         d="m -157.40829,131.30147 c 0.0815,-0.0213 0.21484,-0.0213 0.29634,0 0.0815,0.0213 0.0148,0.0387 -0.14817,0.0387 -0.16298,0 -0.22966,-0.0174 -0.14817,-0.0387 z m -193.70003,-3.41297 c 0,-1.79282 0.0112,-2.52624 0.0249,-1.62984 0.0137,0.89641 0.0137,2.36326 0,3.25967 -0.0137,0.89641 -0.0249,0.16298 -0.0249,-1.62983 z m 76.92354,1.40736 c 0,-0.0176 0.0667,-0.0842 0.14817,-0.14816 0.13429,-0.10532 0.13727,-0.10232 0.032,0.032 -0.11061,0.14104 -0.18014,0.18589 -0.18014,0.1162 z m 43.89632,-3.8627 c 0,-2.11878 0.011,-2.98555 0.0244,-1.92616 0.0134,1.05939 0.0134,2.79294 0,3.85233 -0.0134,1.05939 -0.0244,0.19262 -0.0244,-1.92617 z m -43.55765,3.52404 c 0,-0.0176 0.0667,-0.0843 0.14816,-0.14817 0.13429,-0.10531 0.13728,-0.10232 0.032,0.032 -0.11061,0.14103 -0.18013,0.18588 -0.18013,0.1162 z m 109.08495,-0.15854 -0.16129,-0.1905 0.1905,0.16129 c 0.17902,0.15157 0.22904,0.21971 0.16129,0.21971 -0.0161,0 -0.1018,-0.0857 -0.1905,-0.1905 z m -36.10229,-3.3128 c 0,-0.0176 0.0667,-0.0842 0.14817,-0.14816 0.13429,-0.10532 0.13727,-0.10232 0.032,0.032 -0.11061,0.14104 -0.18014,0.18589 -0.18014,0.1162 z m -134.01396,-2.0847 c 0,-0.11641 0.0192,-0.16404 0.0427,-0.10583 0.0235,0.0582 0.0235,0.15346 0,0.21167 -0.0235,0.0582 -0.0427,0.0106 -0.0427,-0.10584 z m 47.41333,0 c 0,-0.11641 0.0192,-0.16404 0.0427,-0.10583 0.0235,0.0582 0.0235,0.15346 0,0.21167 -0.0235,0.0582 -0.0427,0.0106 -0.0427,-0.10584 z m 28.87133,0 c 0,-0.11641 0.0192,-0.16404 0.0427,-0.10583 0.0235,0.0582 0.0235,0.15346 0,0.21167 -0.0235,0.0582 -0.0427,0.0106 -0.0427,-0.10584 z m 59.89787,0.0692 c 0.0245,-0.0396 0.0799,-0.05 0.12328,-0.0232 0.11078,0.0685 0.0983,0.0952 -0.0445,0.0952 -0.0678,0 -0.10327,-0.0324 -0.0788,-0.0719 z m 9.69813,-0.0692 c 0,-0.11641 0.0192,-0.16404 0.0427,-0.10583 0.0235,0.0582 0.0235,0.15346 0,0.21167 -0.0235,0.0582 -0.0427,0.0106 -0.0427,-0.10584 z m -130.81668,-0.0494 c 0.004,-0.0986 0.0241,-0.1187 0.0512,-0.0512 0.0245,0.0611 0.0215,0.13415 -0.007,0.16228 -0.0281,0.0281 -0.0481,-0.0219 -0.0445,-0.11112 z m 76.28466,0 c 0.004,-0.0986 0.0241,-0.1187 0.0512,-0.0512 0.0245,0.0611 0.0214,0.13415 -0.007,0.16228 -0.0281,0.0281 -0.0482,-0.0219 -0.0445,-0.11112 z m 69.596,0 c 0.004,-0.0986 0.0241,-0.1187 0.0512,-0.0512 0.0245,0.0611 0.0215,0.13415 -0.007,0.16228 -0.0281,0.0281 -0.0482,-0.0219 -0.0445,-0.11112 z M -351.107,117.6015 c 1e-5,-2.84057 0.0107,-3.99035 0.0237,-2.55508 0.013,1.43528 0.013,3.75938 -3e-5,5.16467 -0.013,1.40529 -0.0237,0.23097 -0.0237,-2.60959 z m 200.44008,4.97416 c -0.10531,-0.13428 -0.10232,-0.13728 0.032,-0.032 0.0815,0.0639 0.14816,0.13058 0.14816,0.14816 0,0.0697 -0.0695,0.0248 -0.18013,-0.1162 z m -0.33867,-0.33866 c -0.10531,-0.13429 -0.10232,-0.13728 0.032,-0.032 0.0815,0.0639 0.14817,0.13059 0.14817,0.14817 0,0.0697 -0.0695,0.0248 -0.18014,-0.1162 z m -48.84186,-0.3918 c 0,-0.0176 0.0667,-0.0843 0.14817,-0.14817 0.13429,-0.10531 0.13727,-0.10232 0.032,0.032 -0.11061,0.14103 -0.18014,0.18588 -0.18014,0.1162 z m 4.40267,-1.36504 c 0.10936,-0.11641 0.21789,-0.21166 0.24118,-0.21166 0.0233,0 -0.0472,0.0952 -0.15652,0.21166 -0.10936,0.11642 -0.2179,0.21167 -0.24118,0.21167 -0.0233,0 0.0472,-0.0952 0.15652,-0.21167 z m -34.84378,-4.40266 c 2e-5,-2.04894 0.0111,-2.87502 0.0245,-1.83575 0.0135,1.03928 0.0135,2.71568 -3e-5,3.72534 -0.0135,1.00966 -0.0245,0.15934 -0.0245,-1.88959 z m 67.09097,3.28083 c -0.10531,-0.13429 -0.10232,-0.13728 0.032,-0.032 0.14103,0.11061 0.18589,0.18014 0.1162,0.18014 -0.0176,0 -0.0843,-0.0667 -0.14817,-0.14817 z m -168.13719,-0.21699 c 0,-0.0146 0.12383,-0.1384 0.27517,-0.27517 l 0.27516,-0.24867 -0.24867,0.27516 c -0.2318,0.2565 -0.30166,0.31409 -0.30166,0.24868 z m 7.82634,-0.24868 -0.24867,-0.27516 0.27516,0.24867 c 0.2565,0.2318 0.31409,0.30166 0.24868,0.30166 -0.0146,0 -0.1384,-0.12382 -0.27517,-0.27517 z m 68.45832,0.24868 c 0,-0.0146 0.12383,-0.1384 0.27517,-0.27517 l 0.27517,-0.24867 -0.24868,0.27516 c -0.2318,0.2565 -0.30166,0.31409 -0.30166,0.24868 z m 7.82635,-0.24868 -0.24868,-0.27516 0.27517,0.24867 c 0.2565,0.2318 0.31409,0.30166 0.24867,0.30166 -0.0146,0 -0.13839,-0.12382 -0.27516,-0.27517 z m 61.76965,0.24868 c 0,-0.0146 0.12383,-0.1384 0.27517,-0.27517 l 0.27516,-0.24867 -0.24867,0.27516 c -0.2318,0.2565 -0.30166,0.31409 -0.30166,0.24868 z m 7.82634,-0.24868 -0.24867,-0.27516 0.27516,0.24867 c 0.2565,0.2318 0.31409,0.30166 0.24868,0.30166 -0.0146,0 -0.1384,-0.12382 -0.27517,-0.27517 z m -123.481,0.0739 c 0,-0.0176 0.0667,-0.0843 0.14817,-0.14817 0.13429,-0.10531 0.13728,-0.10232 0.032,0.032 -0.11061,0.14103 -0.18014,0.18588 -0.18014,0.1162 z m 107.56899,-0.3067 c 0.0843,-0.0931 0.1723,-0.16933 0.19558,-0.16933 0.0233,0 -0.0266,0.0762 -0.11091,0.16933 -0.0843,0.0931 -0.1723,0.16933 -0.19558,0.16933 -0.0233,0 0.0266,-0.0762 0.11091,-0.16933 z m -100.72179,-0.0635 c -0.10531,-0.13429 -0.10232,-0.13728 0.032,-0.032 0.0815,0.0639 0.14816,0.13059 0.14816,0.14817 0,0.0697 -0.0695,0.0248 -0.18013,-0.1162 z m 20.32439,-0.84667 -0.20526,-0.23283 0.23284,0.20526 c 0.12805,0.11289 0.23283,0.21767 0.23283,0.23283 0,0.0664 -0.0686,0.0124 -0.26041,-0.20526 z m -58.83692,0.0315 c 0,-0.0176 0.0667,-0.0843 0.14817,-0.14817 0.13428,-0.10531 0.13727,-0.10232 0.032,0.032 -0.11061,0.14103 -0.18014,0.18588 -0.18014,0.1162 z m 76.28466,0 c 0,-0.0176 0.0667,-0.0843 0.14817,-0.14817 0.13429,-0.10531 0.13728,-0.10232 0.032,0.032 -0.11061,0.14103 -0.18014,0.18588 -0.18014,0.1162 z m 69.596,0 c 0,-0.0176 0.0667,-0.0843 0.14816,-0.14817 0.13429,-0.10531 0.13728,-0.10232 0.032,0.032 -0.1106,0.14103 -0.18013,0.18588 -0.18013,0.1162 z m -8.04333,-0.42334 c 0,-0.0176 0.0667,-0.0842 0.14816,-0.14816 0.13429,-0.10532 0.13728,-0.10232 0.032,0.032 -0.11061,0.14104 -0.18013,0.18589 -0.18013,0.1162 z m 3.30199,-0.51836 c 0.10937,-0.11642 0.2179,-0.21167 0.24119,-0.21167 0.0233,0 -0.0472,0.0952 -0.15652,0.21167 -0.10936,0.11641 -0.2179,0.21166 -0.24118,0.21166 -0.0233,0 0.0472,-0.0952 0.15651,-0.21166 z"
         id="path84" />
      <path
         style="fill:#3a3a3a;stroke-width:0.0846667"
         d="M -436.57544,120.86116 V 77.511833 h 173.39732 173.39733 v 43.349327 43.34933 h -173.39733 -173.39732 z m 52.02064,21.50191 8.64081,-8.63943 -6.39123,-6.38322 c -3.51517,-3.51077 -6.39122,-6.42644 -6.39122,-6.47926 0,-0.0528 2.87605,-2.96848 6.39122,-6.47925 l 6.39123,-6.38322 -8.64277,-8.64139 -8.64277,-8.64139 -1.55845,0.02313 -1.55846,0.02313 -0.0423,11.23646 -0.0423,11.23646 -6.731,-6.72553 c -3.70205,-3.69904 -6.78787,-6.726616 -6.85737,-6.727955 -0.15503,-0.003 -4.31863,4.142555 -4.31863,4.299895 0,0.0619 3.7338,3.84631 8.29734,8.40973 4.56353,4.56342 8.29733,8.3271 8.29733,8.36374 0,0.0366 -3.73489,3.7957 -8.29975,8.35345 -4.56486,4.55775 -8.28913,8.33223 -8.27616,8.38773 0.0339,0.14489 4.19615,4.34701 4.30581,4.34701 0.0503,0 3.12694,-3.03635 6.83696,-6.74745 l 6.74547,-6.74746 0.0209,11.17129 c 0.0115,6.14421 0.0389,11.21891 0.0608,11.27712 0.0299,0.0793 0.42608,0.10584 1.58186,0.10584 h 1.54191 z m -5.53864,-8.61192 c 0,-2.89849 0.0177,-5.26999 0.0395,-5.26999 0.0635,0 5.20987,5.17097 5.20987,5.23476 0,0.0319 -1.1811,1.23857 -2.62467,2.68158 l -2.62466,2.62364 z m 0,-25.76484 v -5.28581 l 2.63735,2.63735 2.63735,2.63736 -0.16264,0.19881 c -0.0895,0.10935 -1.27627,1.30115 -2.63735,2.64845 l -2.47471,2.44965 z m 234.81497,23.19378 c 2.38914,-0.31187 4.35759,-1.50801 5.15617,-3.13319 0.8851,-1.80122 0.71625,-3.98307 -0.41627,-5.37898 -0.34935,-0.43059 -1.18122,-1.06557 -1.81537,-1.38569 -0.68425,-0.34541 -2.05655,-0.78677 -4.09219,-1.31614 -2.08804,-0.54299 -3.2127,-0.89962 -3.86537,-1.22572 -0.63367,-0.31661 -1.31176,-0.94332 -1.5888,-1.46843 -0.20405,-0.38675 -0.22803,-0.5219 -0.22703,-1.27911 0.001,-0.74016 0.0298,-0.9081 0.22886,-1.33504 0.45754,-0.9812 1.48082,-1.7401 2.8482,-2.11233 0.54139,-0.14738 0.89621,-0.17655 2.17115,-0.17849 1.44181,-0.002 1.5788,0.0121 2.54,0.26433 0.7217,0.18942 1.329,0.42387 2.09659,0.80941 0.59433,0.29851 1.09664,0.51679 1.11624,0.48508 0.0196,-0.0317 0.1921,-0.41781 0.38334,-0.85798 l 0.34769,-0.80031 -0.22264,-0.17853 c -0.12246,-0.0982 -0.51452,-0.32288 -0.87126,-0.49931 -1.88981,-0.9346 -4.32043,-1.36273 -6.53296,-1.15073 -1.37032,0.1313 -2.27428,0.3691 -3.302,0.86862 -0.75927,0.36904 -0.98837,0.5324 -1.56997,1.11936 -1.06217,1.07199 -1.47431,2.10355 -1.47678,3.6963 -0.003,1.61181 0.46138,2.63764 1.63724,3.62065 0.98199,0.82093 2.13365,1.27476 5.53433,2.18088 1.12776,0.30049 2.3738,0.66334 2.76896,0.80633 0.78577,0.28432 1.77511,0.92584 2.11494,1.37138 0.50007,0.65563 0.66195,1.55661 0.43771,2.43619 -0.34962,1.37141 -1.44591,2.26088 -3.3013,2.67849 -0.8568,0.19285 -3.06994,0.19138 -4.05174,-0.003 -1.50861,-0.29821 -3.21216,-1.04312 -4.19297,-1.83347 -0.28926,-0.23309 -0.55585,-0.42381 -0.59239,-0.42381 -0.0366,0 -0.25543,0.38491 -0.48641,0.85535 l -0.41995,0.85535 0.29633,0.25258 c 2.1947,1.87068 5.74772,2.72957 9.34765,2.25965 z m -169.19831,-0.15351 c 1.12893,-0.27954 2.33565,-0.9206 3.11262,-1.65356 l 0.65188,-0.61495 -0.31171,-0.37129 c -0.17143,-0.2042 -0.44012,-0.52015 -0.59707,-0.70211 l -0.28536,-0.33083 -0.62618,0.52576 c -1.18764,0.99719 -2.46492,1.44823 -4.10117,1.44823 -0.51952,0 -1.17065,-0.0413 -1.44696,-0.0917 -1.71792,-0.31366 -3.29464,-1.49107 -4.01553,-2.9986 -0.28518,-0.59635 -0.59318,-1.64915 -0.59318,-2.02755 0,-0.11767 0.67367,-0.13145 6.42577,-0.13145 h 6.42577 l 0.0353,-0.35984 c 0.064,-0.65272 -0.0913,-2.03985 -0.31458,-2.80994 -0.7586,-2.61655 -2.68453,-4.50317 -5.24857,-5.14144 -1.05711,-0.26315 -2.89965,-0.26079 -3.89467,0.005 -2.78423,0.74369 -4.78975,2.87335 -5.38881,5.72239 -0.1872,0.8903 -0.22496,2.58616 -0.0764,3.4305 0.49778,2.8289 2.39784,5.03059 5.11248,5.9241 1.03557,0.34084 1.69759,0.42368 3.10438,0.38842 0.95928,-0.0241 1.50594,-0.0808 2.032,-0.2111 z m -8.16718,-8.91658 c 0.22645,-1.34986 0.66857,-2.22298 1.60154,-3.16281 1.10446,-1.11257 2.15177,-1.52161 3.85631,-1.50612 0.80634,0.007 1.09121,0.0472 1.65764,0.2319 1.9154,0.62463 3.31028,2.32691 3.63574,4.43703 l 0.0555,0.35983 h -5.43355 -5.43355 z m 55.28165,8.91323 c 2.09275,-0.56906 3.71117,-1.82885 4.69671,-3.656 0.68457,-1.26915 0.93615,-2.33498 0.93615,-3.96607 0,-1.63209 -0.2515,-2.69677 -0.93744,-3.96846 -0.97144,-1.80098 -2.62918,-3.07509 -4.71762,-3.62586 -0.70013,-0.18464 -1.01014,-0.2175 -2.09194,-0.22174 -1.46663,-0.006 -2.25014,0.13156 -3.28663,0.57595 -0.96046,0.41179 -1.52205,0.77207 -2.23268,1.43238 -1.64142,1.52517 -2.41243,3.38131 -2.41243,5.80773 0,2.41941 0.75259,4.23914 2.40066,5.80463 1.14245,1.08522 2.39715,1.68551 4.21875,2.0184 0.11642,0.0213 0.78317,0.026 1.48167,0.0106 0.97129,-0.0215 1.42871,-0.0712 1.9448,-0.21156 z m -3.74689,-1.86166 c -2.27333,-0.61275 -3.76484,-2.4281 -4.08937,-4.97724 -0.25407,-1.99576 0.48658,-4.13657 1.85353,-5.35747 0.60855,-0.54354 1.5992,-1.04341 2.43737,-1.22989 0.95869,-0.21329 2.48473,-0.13753 3.30486,0.16407 1.23661,0.45475 2.06205,1.09785 2.74012,2.13482 1.5937,2.43724 1.19004,6.16787 -0.87073,8.04732 -0.55827,0.50915 -1.03497,0.79001 -1.86939,1.10138 -0.52074,0.19431 -0.7606,0.22923 -1.74664,0.25425 -0.93531,0.0237 -1.25506,-0.001 -1.75975,-0.13724 z m 19.244,1.94411 c 0.69798,-0.17851 1.61801,-0.63028 1.76807,-0.86819 0.0687,-0.10897 0.0128,-0.29691 -0.24683,-0.82946 -0.18464,-0.3787 -0.36184,-0.7047 -0.39377,-0.72444 -0.0319,-0.0197 -0.20075,0.0609 -0.37512,0.17926 -0.89698,0.60871 -2.38288,0.7183 -3.31278,0.24432 -0.52075,-0.26543 -0.93778,-0.76932 -1.13632,-1.37299 -0.0738,-0.22434 -0.11144,-1.70144 -0.13474,-5.28552 l -0.0324,-4.97416 h 2.37613 2.37614 v -0.889 -0.889 h -2.37067 -2.37066 v -1.69334 -1.69333 h -1.05834 -1.05833 v 1.69333 1.69334 h -1.397 -1.397 v 0.889 0.889 h 1.397 1.397 v 4.95657 c 0,5.54967 0.0198,5.78753 0.56961,6.83626 0.50134,0.95629 1.4268,1.62759 2.5937,1.88135 0.80162,0.17433 2.03011,0.15551 2.80627,-0.043 z m 13.67308,-0.0791 c 1.12893,-0.27954 2.33565,-0.9206 3.11262,-1.65356 l 0.65188,-0.61495 -0.3117,-0.37129 c -0.17144,-0.2042 -0.44013,-0.52015 -0.59707,-0.70211 l -0.28536,-0.33083 -0.62618,0.52576 c -1.18765,0.99719 -2.46493,1.44823 -4.10118,1.44823 -0.51951,0 -1.17064,-0.0413 -1.44695,-0.0917 -1.71793,-0.31366 -3.29464,-1.49107 -4.01554,-2.9986 -0.28517,-0.59635 -0.59318,-1.64915 -0.59318,-2.02755 0,-0.11767 0.67367,-0.13145 6.42577,-0.13145 h 6.42577 l 0.0353,-0.35984 c 0.064,-0.65272 -0.0913,-2.03985 -0.31457,-2.80994 -0.75861,-2.61655 -2.68454,-4.50317 -5.24858,-5.14144 -1.05711,-0.26315 -2.89964,-0.26079 -3.89466,0.005 -2.78424,0.74369 -4.78976,2.87335 -5.38882,5.72239 -0.18719,0.8903 -0.22495,2.58616 -0.0764,3.4305 0.49779,2.8289 2.39784,5.03059 5.11248,5.9241 1.03557,0.34084 1.69759,0.42368 3.10438,0.38842 0.95929,-0.0241 1.50594,-0.0808 2.032,-0.2111 z M -256.3593,122.11 c 0.22645,-1.34986 0.66857,-2.22298 1.60155,-3.16281 1.10445,-1.11257 2.15177,-1.52161 3.8563,-1.50612 0.80634,0.007 1.09121,0.0472 1.65764,0.2319 1.9154,0.62463 3.31028,2.32691 3.63575,4.43703 l 0.0555,0.35983 h -5.43356 -5.43355 z m 77.76318,8.91658 c 1.12893,-0.27954 2.33565,-0.9206 3.11262,-1.65356 l 0.65188,-0.61495 -0.31171,-0.37129 c -0.17143,-0.2042 -0.44012,-0.52015 -0.59707,-0.70211 l -0.28536,-0.33083 -0.62618,0.52576 c -1.18764,0.99719 -2.46492,1.44823 -4.10117,1.44823 -0.51952,0 -1.17065,-0.0413 -1.44696,-0.0917 -1.71792,-0.31366 -3.29464,-1.49107 -4.01553,-2.9986 -0.28518,-0.59635 -0.59319,-1.64915 -0.59319,-2.02755 0,-0.11767 0.67368,-0.13145 6.42578,-0.13145 h 6.42577 l 0.0353,-0.35984 c 0.064,-0.65272 -0.0913,-2.03985 -0.31458,-2.80994 -0.7586,-2.61655 -2.68453,-4.50317 -5.24857,-5.14144 -1.05711,-0.26315 -2.89965,-0.26079 -3.89467,0.005 -2.78423,0.74369 -4.78975,2.87335 -5.38881,5.72239 -0.1872,0.8903 -0.22496,2.58616 -0.0764,3.4305 0.49778,2.8289 2.39784,5.03059 5.11248,5.9241 1.03557,0.34084 1.69759,0.42368 3.10438,0.38842 0.95928,-0.0241 1.50594,-0.0808 2.032,-0.2111 z M -186.7633,122.11 c 0.22645,-1.34986 0.66857,-2.22298 1.60154,-3.16281 1.10445,-1.11257 2.15177,-1.52161 3.85631,-1.50612 0.80634,0.007 1.09121,0.0472 1.65764,0.2319 1.9154,0.62463 3.31028,2.32691 3.63574,4.43703 l 0.0555,0.35983 h -5.43355 -5.43355 z m 47.0721,8.99568 c 0.69797,-0.17851 1.618,-0.63028 1.76807,-0.86819 0.0687,-0.10897 0.0128,-0.29691 -0.24683,-0.82946 -0.18464,-0.3787 -0.36184,-0.7047 -0.39378,-0.72444 -0.0319,-0.0197 -0.20074,0.0609 -0.37512,0.17926 -0.89698,0.60871 -2.38288,0.7183 -3.31277,0.24432 -0.52075,-0.26543 -0.93779,-0.76932 -1.13632,-1.37299 -0.0738,-0.22434 -0.11144,-1.70144 -0.13475,-5.28552 l -0.0324,-4.97416 h 2.37613 2.37613 v -0.889 -0.889 h -2.37066 -2.37067 v -1.69334 -1.69333 h -1.05833 -1.05834 v 1.69333 1.69334 h -1.397 -1.397 v 0.889 0.889 h 1.397 1.397 v 4.95657 c 0,5.54967 0.0198,5.78753 0.56961,6.83626 0.50134,0.95629 1.42681,1.62759 2.59371,1.88135 0.80161,0.17433 2.0301,0.15551 2.80627,-0.043 z m 11.37192,-0.0788 c 1.04727,-0.30243 1.76237,-0.71749 2.49166,-1.44622 l 0.65617,-0.65566 v 1.09041 1.0904 h 1.0205 1.0205 l -0.0296,-5.5245 c -0.0292,-5.46061 -0.0318,-5.53183 -0.22195,-6.15812 -0.41159,-1.35553 -1.15521,-2.34646 -2.25516,-3.00517 -2.32632,-1.39311 -6.72474,-1.07359 -9.36276,0.68018 -0.32968,0.21916 -0.61924,0.45016 -0.64349,0.51334 -0.0354,0.0923 0.37987,0.88515 0.80936,1.5453 0.0597,0.0917 0.17065,0.0449 0.52985,-0.22374 0.62382,-0.46646 1.53293,-0.90683 2.41963,-1.17203 0.97908,-0.29283 2.80372,-0.3765 3.687,-0.16907 1.44351,0.339 2.38838,1.21311 2.73607,2.53116 0.0624,0.23671 0.13943,0.83942 0.17106,1.33935 l 0.0575,0.90896 -3.37712,0.0356 c -3.11249,0.0328 -3.43182,0.0498 -4.07537,0.21716 -0.93696,0.24371 -1.64813,0.61677 -2.22541,1.1674 -0.90058,0.85901 -1.22271,1.74462 -1.16671,3.20755 0.0335,0.87559 0.059,0.99319 0.34695,1.59949 0.64452,1.35717 1.97411,2.25203 3.85611,2.59529 0.72828,0.13283 2.86432,0.0325 3.55516,-0.16703 z m -2.88354,-1.52669 c -1.40134,-0.2563 -2.25599,-0.87249 -2.65338,-1.91305 -0.18339,-0.48021 -0.13488,-1.54228 0.0922,-2.01882 0.22094,-0.46361 0.66826,-0.88353 1.20105,-1.12744 0.81025,-0.37094 1.52454,-0.44091 4.534,-0.44412 l 2.77283,-0.003 v 1.19611 c 0,1.17768 -0.004,1.20475 -0.27493,1.75683 -0.54892,1.11954 -1.74254,2.07615 -3.03091,2.42909 -0.55971,0.15333 -2.08875,0.22533 -2.64086,0.12435 z m 30.37361,1.60547 c 0.69798,-0.17851 1.61801,-0.63028 1.768073,-0.86819 0.06874,-0.10897 0.01282,-0.29691 -0.246828,-0.82946 -0.184642,-0.3787 -0.36184,-0.7047 -0.393777,-0.72444 -0.03194,-0.0197 -0.200744,0.0609 -0.375118,0.17926 -0.89698,0.60871 -2.38288,0.7183 -3.31278,0.24432 -0.52075,-0.26543 -0.93778,-0.76932 -1.13631,-1.37299 -0.0738,-0.22434 -0.11144,-1.70144 -0.13475,-5.28552 l -0.0323,-4.97416 h 2.37612 2.37614 v -0.889 -0.889 h -2.37067 -2.37066 v -1.69334 -1.69333 h -1.05834 -1.05833 v 1.69333 1.69334 h -1.397 -1.397 v 0.889 0.889 h 1.397 1.397 v 4.95657 c 0,5.54967 0.0198,5.78753 0.56961,6.83626 0.50134,0.95629 1.42681,1.62759 2.59371,1.88135 0.80161,0.17433 2.0301,0.15551 2.80626,-0.043 z m -250.2329,-3.21718 v -3.21734 h 2.78099 c 1.52955,0 3.12022,-0.022 3.53484,-0.0489 l 0.75384,-0.0489 2.31361,3.26624 2.31361,3.26623 h 1.23096 1.23096 l -0.15136,-0.23283 c -0.0832,-0.12806 -1.19435,-1.6947 -2.46911,-3.48141 -1.27476,-1.78672 -2.30641,-3.25759 -2.29255,-3.2686 0.0139,-0.011 0.38716,-0.19119 0.82954,-0.4004 1.77843,-0.84105 2.80873,-1.96956 3.39454,-3.71809 0.40807,-1.21801 0.46131,-3.13816 0.12298,-4.435 -0.55047,-2.10995 -2.39718,-3.89992 -4.70285,-4.55832 -1.36584,-0.39003 -1.70458,-0.41358 -6.5405,-0.45471 l -4.6355,-0.0394 v 10.29439 10.29439 h 1.143 1.143 z m 0,-10.287 v -5.12234 l 2.7305,0.003 c 3.98243,0.004 4.94818,0.12145 6.29797,0.76491 1.74866,0.8336 2.67708,2.56525 2.54426,4.74543 -0.0827,1.35825 -0.47915,2.29336 -1.32422,3.12377 -0.81716,0.80299 -2.07997,1.34294 -3.55763,1.52117 -0.39459,0.0476 -2.06146,0.0865 -3.70416,0.0865 h -2.98672 v -5.12233 z m 36.93481,8.86883 c 0.0304,-4.4436 0.0393,-4.66289 0.21538,-5.29708 0.54209,-1.95279 1.91654,-3.23505 3.84119,-3.58353 1.6506,-0.29886 3.29767,0.12256 4.23329,1.08312 0.43514,0.44674 0.91527,1.35191 1.0934,2.06132 0.0771,0.30724 0.11555,1.78747 0.14003,5.3975 l 0.0337,4.97417 h 1.04707 1.04706 l 0.0329,-4.6355 c 0.0313,-4.40528 0.0419,-4.66764 0.21224,-5.28265 0.27858,-1.00549 0.64536,-1.64742 1.32446,-2.31803 0.97977,-0.96751 1.97606,-1.34333 3.56538,-1.34493 1.01753,-10e-4 1.64005,0.13711 2.35041,0.52154 0.7755,0.41969 1.49703,1.37182 1.80599,2.38315 0.21993,0.71993 0.28714,2.22914 0.28787,6.46425 l 8.4e-4,4.21217 h 1.06303 1.06301 l -0.0293,-5.2705 c -0.0285,-5.12376 -0.0345,-5.28936 -0.21586,-5.94783 -0.69672,-2.52994 -2.32354,-3.92813 -4.98206,-4.28191 -2.46552,-0.3281 -5.10452,0.57954 -6.47573,2.22722 -0.23684,0.28458 -0.47059,0.60518 -0.51946,0.71245 -0.0843,0.18495 -0.10461,0.16791 -0.39374,-0.32996 -0.48454,-0.83437 -1.30109,-1.59715 -2.13602,-1.99534 -1.09673,-0.52305 -1.68855,-0.64388 -3.12184,-0.63737 -0.97223,0.004 -1.36861,0.0432 -1.905,0.18625 -1.38432,0.36925 -2.52144,1.09977 -3.35871,2.15776 l -0.32429,0.40977 v -1.31994 -1.31993 h -1.016 -1.016 v 7.70466 7.70467 h 1.05254 1.05253 l 0.0317,-4.6355 z m 93.39861,4.50853 c 2.45014,-0.3693 4.1265,-1.3858 4.87629,-2.95687 0.40674,-0.85225 0.51095,-1.34977 0.51095,-2.43942 0,-1.36692 -0.33064,-2.38248 -1.08732,-3.33977 -0.43158,-0.54597 -1.4407,-1.22359 -2.18709,-1.4686 -0.31786,-0.10434 -0.60888,-0.20737 -0.6467,-0.22896 -0.0378,-0.0216 0.17038,-0.17842 0.4627,-0.3485 0.79323,-0.46154 1.52315,-1.22854 1.8769,-1.97226 0.37397,-0.7862 0.49601,-1.3902 0.49037,-2.42693 -0.008,-1.42412 -0.42056,-2.481 -1.31156,-3.35784 -0.63102,-0.621 -1.26368,-1.00282 -2.18952,-1.32142 -1.47048,-0.50602 -1.66123,-0.52058 -7.36695,-0.56197 l -5.22816,-0.0379 v 10.29373 10.29372 l 5.48216,-5.1e-4 c 4.42024,-4.2e-4 5.64406,-0.0249 6.31793,-0.12647 z m -9.51409,-5.54095 v -3.81475 l 3.66183,8e-5 c 4.81238,8e-5 5.99102,0.11937 7.19176,0.72783 1.34411,0.68111 2.02673,2.11747 1.77521,3.73534 -0.23975,1.5421 -1.12116,2.41923 -2.93447,2.92021 -0.65237,0.18023 -0.84348,0.18821 -5.18583,0.21658 l -4.5085,0.0295 z m 0,-9.36434 v -3.69597 l 3.8735,0.0405 c 3.24408,0.0339 3.97611,0.064 4.50499,0.18495 1.69712,0.38817 2.76009,1.26173 3.09041,2.53973 0.43375,1.67816 -0.24307,3.23584 -1.72899,3.97925 -1.15313,0.57691 -1.21961,0.58411 -5.69708,0.61743 l -4.04283,0.0301 z m 20.828,7.32759 v -7.70466 h -1.05834 -1.05833 v 7.70466 7.70467 h 1.05833 1.05834 z m 7.1991,5.5245 0.002,-2.18016 1.77999,-1.6321 c 0.97899,-0.89765 1.81582,-1.60995 1.85961,-1.58288 0.0438,0.0271 1.43888,1.74258 3.10018,3.81226 l 3.02054,3.76305 h 1.29806 c 0.71393,0 1.29805,-0.022 1.29805,-0.0488 0,-0.0268 -1.57358,-2.03756 -3.49686,-4.46823 -1.92327,-2.43068 -3.52305,-4.46179 -3.55506,-4.51357 -0.0344,-0.0558 1.27077,-1.36287 3.20054,-3.20516 1.79229,-1.71106 3.25872,-3.12508 3.25872,-3.14228 0,-0.0172 -0.60008,-0.0303 -1.3335,-0.0292 l -1.3335,0.002 -4.52967,4.14229 -4.52966,4.14229 -0.0216,-7.31937 -0.0216,-7.31936 h -1.05787 -1.05786 v 10.87966 10.87967 h 1.05833 1.05833 l 0.002,-2.18017 z m 86.10356,-1.90722 c 0,-2.37414 0.0376,-4.3881 0.0898,-4.80483 0.35728,-2.8536 2.18559,-4.56369 4.88434,-4.56853 l 0.6985,-0.001 v -1.05833 -1.05834 l -0.23283,2.6e-4 c -0.5731,5.9e-4 -1.79812,0.20344 -2.3849,0.39492 -1.19727,0.39069 -2.13927,1.08947 -2.79751,2.07519 l -0.34209,0.51228 v -1.40665 -1.40665 h -1.016 -1.016 v 7.70467 7.70467 h 1.05833 1.05834 v -4.08739 z m -295.01828,-3.07738 c 1.65163,-1.65885 3.00296,-3.04481 3.00296,-3.0799 0,-0.0939 -5.99193,-6.096 -6.0857,-6.096 -0.0873,0 -6.1063,6.00887 -6.1063,6.096 0,0.0871 6.01902,6.096 6.1063,6.096 0.0439,0 1.43112,-1.35724 3.08274,-3.0161 z m 41.98437,-0.005 c 1.65729,-1.66165 3.01325,-3.04531 3.01325,-3.07482 0,-0.0871 -6.01901,-6.096 -6.10629,-6.096 -0.12767,0 -6.09413,6.02841 -6.06196,6.1249 0.0493,0.14784 5.93891,6.05454 6.0435,6.06102 0.054,0.003 1.45421,-1.35345 3.1115,-3.0151 z m 159.57859,-11.83881 c 0.57866,-0.38293 0.84388,-1.30769 0.54122,-1.88704 -0.84372,-1.61501 -3.40046,-0.75829 -2.9402,0.9852 0.27138,1.02797 1.50667,1.49235 2.39898,0.90184 z"
         id="path82" />
    </g>
    <path
       style="fill:#3b3b3b;stroke-width:2.85714;fill-opacity:1"
       d="M 2.7803986,163.05334 V 0.19619571 H 655.63754 1308.4947 V 163.05334 325.91048 H 655.63754 2.7803986 Z m 195.0547614,83.51839 33.53686,-33.62446 -24.29909,-24.17287 -24.29909,-24.17286 24.28307,-24.3961 24.28307,-24.3961 -33.60842,-33.520859 C 174.9062,59.52259 162.07434,48.767624 157.73748,48.767624 c -6.32042,0 -6.38565,0.429917 -6.38565,42.083289 V 132.9342 l -25.71661,-25.59745 -25.716599,-25.597457 -9.231565,9.231566 -9.231566,9.231561 31.32259,31.42002 31.32259,31.42001 -24.51788,25.00545 c -13.48483,13.75299 -27.290337,28.1498 -30.678903,31.99291 l -6.161034,6.98747 9.198448,9.49038 9.198449,9.4904 25.10604,-24.98972 25.10604,-24.98972 v 42.08329 c 0,41.82319 0.04,42.08329 6.47323,42.08329 4.45972,0 16.90495,-10.45897 40.0101,-33.62447 z M 1079.209,196.48802 c 7.6631,-6.98456 8.6462,-22.28286 1.8048,-28.08484 -2.5431,-2.1567 -12.5074,-6.4927 -22.1429,-9.63556 -18.548,-6.0499 -23.9265,-13.73966 -14.8681,-21.25743 3.9811,-3.30409 21.7017,-3.2846 32.8936,0.0362 2.2639,0.6717 4.5733,-0.8481 5.1322,-3.37734 2.5469,-11.52563 -36.034,-14.6387 -47.9356,-3.86789 -6.5103,5.89174 -7.6989,24.5949 -1.8705,29.43208 2.0504,1.70161 11.9978,6.04149 22.1054,9.64416 12.8234,4.57065 18.6986,8.21765 19.44,12.06716 2.2936,11.90969 -17.8602,17.01753 -34.0704,8.63491 -8.9083,-4.60665 -14.06,-3.58222 -14.06,2.79589 0,3.61756 9.3576,8.46775 21.4286,11.10678 9.9824,2.18241 25.4942,-1.43415 32.1429,-7.49409 z M 325.63754,191.62477 V 180.1962 l 12.14286,0.10842 c 10.87394,0.0971 12.96108,1.29138 19.97286,11.42858 4.72805,6.83557 10.10448,11.32014 13.57142,11.32014 7.42926,0 7.23866,-1.78338 -1.40142,-13.11111 -7.47295,-9.79755 -9.0696,-15.46032 -4.35909,-15.46032 3.75337,0 11.50194,-15.39829 11.50194,-22.85714 0,-10.43834 -8.03205,-22.11012 -17.4824,-25.40453 -4.99651,-1.74179 -17.24988,-3.1669 -27.22965,-3.1669 h -18.14509 v 40 c 0,38.09524 0.272,40 5.71429,40 4.76191,0 5.71428,-1.90476 5.71428,-11.42857 z m 108.07192,6.88544 c 4.94937,-3.46667 5.73851,-5.44405 3.3306,-8.34541 -2.60686,-3.14106 -4.57763,-2.98617 -11.33255,0.89063 -9.83805,5.64627 -21.39305,2.63316 -27.94803,-7.28781 l -4.24748,-6.42857 h 24.6342 c 22.9284,0 24.6342,-0.40551 24.6342,-5.85617 0,-8.26055 -7.61766,-22.00376 -14.12746,-25.4877 -7.07328,-3.78551 -24.6718,-3.78551 -31.74508,0 -6.98212,3.73672 -14.12746,17.42209 -14.12746,27.05816 0,9.26658 6.95568,23.06068 13.57137,26.91397 7.74186,4.50921 30.08371,3.63779 37.35769,-1.4571 z m 30.47485,-14.74259 c 2.41329,-25.03984 2.79503,-25.99387 11.76566,-29.4045 5.80803,-2.2082 9.19617,-1.84545 14.35894,1.53732 6.10757,4.00184 6.7572,6.48125 6.7572,25.79019 0,19.29847 0.54006,21.36271 5.58912,21.36271 4.94771,0 5.68545,-2.34328 6.42857,-20.41937 0.74977,-18.23799 1.64214,-21.01723 8.35326,-26.0158 15.19334,-11.31633 25.34334,1.15812 25.34334,31.14723 0,11.68452 1.01017,15.28794 4.28571,15.28794 3.4734,0 4.28572,-4.60318 4.28572,-24.28572 0,-20.47619 -0.89637,-25.18207 -5.71429,-30 -6.83506,-6.83504 -27.16966,-7.80677 -35.86826,-1.71403 -4.89545,3.4289 -6.49251,3.4289 -11.18182,0 -6.4288,-4.70085 -22.41652,-5.25132 -30.2806,-1.04258 -3.80952,2.03879 -5.52646,2.03879 -5.52646,0 0,-1.62672 -1.92857,-2.95767 -4.28572,-2.95767 -3.53742,0 -4.28571,5.23809 -4.28571,30 0,24.01476 0.80966,30 4.05831,30 2.92189,0 4.57878,-5.40032 5.91703,-19.28572 z m 151.24063,12.10225 c 19.72809,-21.28694 5.94803,-52.81653 -23.08354,-52.81653 -10.40163,0 -14.45303,1.59533 -21.20934,8.35165 -6.83803,6.83801 -8.35166,10.76152 -8.35166,21.64835 0,10.88683 1.51363,14.81034 8.35166,21.64835 7.05782,7.05784 10.61991,8.35165 22.99357,8.35165 11.97008,0 15.85674,-1.31083 21.29931,-7.18347 z m 51.64117,1.46918 c 0,-2.85714 -2.85714,-4.28571 -8.57143,-4.28571 h -8.57142 l -0.83946,-20.71429 -0.83946,-20.71428 h 8.6966 c 5.82554,0 8.6966,-1.41487 8.6966,-4.28572 0,-2.83454 -2.83506,-4.28571 -8.37271,-4.28571 -6.49497,0 -8.57746,-1.43518 -9.28572,-6.39938 -1.35485,-9.49643 -10.913,-10.33109 -10.913,-0.95298 0,5.4476 -1.4804,7.35236 -5.71428,7.35236 -3.1746,0 -5.71429,1.90476 -5.71429,4.28571 0,2.38095 2.53969,4.28572 5.71429,4.28572 5.22588,0 5.71428,1.90476 5.71428,22.28571 0,13.97612 1.32689,23.61259 3.55857,25.84429 5.0624,5.06241 26.44143,3.10919 26.44143,-2.41572 z m 55.21477,1.17116 c 5.10186,-3.57348 5.78198,-5.39169 3.1866,-8.51892 -2.81142,-3.38757 -4.1938,-3.34949 -9.34337,0.25743 -3.32405,2.32825 -8.79857,4.23319 -12.16557,4.23319 -6.50271,0 -21.17814,-10.04301 -21.17814,-14.49309 0,-1.45737 10.92857,-2.64977 24.28571,-2.64977 22.57709,0 24.28572,-0.41201 24.28572,-5.85617 0,-8.26055 -7.61766,-22.00376 -14.12746,-25.4877 -10.33837,-5.53292 -28.38751,-3.54376 -35.88623,3.95495 -13.11726,13.11725 -12.86466,36.74837 0.50523,47.26512 9.16237,7.20711 30.99837,7.90638 40.43751,1.29496 z m 104.25878,1.25826 c 8.48557,-4.46645 10.43142,-7.97219 10.48271,-18.88595 0.0257,-5.62842 -2.08537,-11.13668 -5.33709,-13.9209 -4.96677,-4.25266 -5.04217,-5.19732 -0.97985,-12.27546 5.98814,-10.43378 2.71734,-21.84372 -7.82455,-27.29514 -5.46268,-2.82487 -16.40928,-4.33768 -31.38717,-4.33768 h -22.99903 v 40 40 h 25.90212 c 14.24617,0 28.71046,-1.47819 32.14286,-3.28487 z m 33.3836,-26.71513 c 0,-28.09524 -0.3628,-30 -5.71429,-30 -5.35149,0 -5.71429,1.90476 -5.71429,30 0,28.09524 0.3628,30 5.71429,30 5.35149,0 5.71429,-1.90476 5.71429,-30 z m 28.57142,21.87139 c 0,-4.47073 2.40023,-10.30077 5.3338,-12.95564 5.07906,-4.59647 5.86755,-4.19475 16.50738,8.4106 8.26311,9.78952 12.83502,12.97813 17.55202,12.24136 6.01895,-0.94013 5.63595,-1.93997 -6.79491,-17.738 l -13.1734,-16.74171 12.311,-12.544 c 11.24803,-11.4609 11.74083,-12.544 5.70737,-12.544 -3.83306,0 -12.77346,5.55233 -21.30917,13.2338 l -14.70551,13.23381 -0.82552,-24.66238 c -0.74691,-22.31377 -1.35911,-24.66237 -6.42857,-24.66237 -5.30837,0 -5.60306,2.17892 -5.60306,41.42857 0,39.52381 0.26257,41.42857 5.71429,41.42857 4.37526,0 5.71428,-1.90476 5.71428,-8.12861 z m 96.64335,3.58548 c 4.94937,-3.46667 5.73851,-5.44405 3.3306,-8.34541 -2.60686,-3.14106 -4.57763,-2.98617 -11.33255,0.89063 -9.83805,5.64627 -21.39305,2.63316 -27.94802,-7.28781 l -4.24749,-6.42857 h 24.6342 c 22.9284,0 24.6342,-0.40551 24.6342,-5.85617 0,-8.26055 -7.61766,-22.00376 -14.12746,-25.4877 -7.07328,-3.78551 -24.6718,-3.78551 -31.74508,0 -6.98212,3.73672 -14.12746,17.42209 -14.12746,27.05816 0,9.26658 6.95569,23.06068 13.57137,26.91397 7.74186,4.50921 30.08372,3.63779 37.35769,-1.4571 z m 144.11217,2.83523 c 3.6999,-3.69992 -1.5498,-9.85364 -6.9453,-8.1412 -9.8112,3.11398 -13.8102,-3.64971 -13.8102,-23.35789 v -18.22158 h 8.5714 c 5.7143,0 8.5714,-1.42857 8.5714,-4.28572 0,-2.85714 -2.8571,-4.28571 -8.5714,-4.28571 -7.2381,0 -8.5714,-1.11111 -8.5714,-7.14286 0,-5.23809 -1.5238,-7.14286 -5.7143,-7.14286 -4.1905,0 -5.7143,1.90477 -5.7143,7.14286 0,4.44445 -1.619,7.14286 -4.2857,7.14286 -2.3571,0 -4.2857,1.92857 -4.2857,4.28571 0,2.35715 1.9286,4.28572 4.2857,4.28572 3.388,0 4.2857,4.05635 4.2857,19.36427 0,24.6382 4.5592,32.0643 19.6858,32.0643 5.9347,0 11.559,-0.76856 12.4983,-1.7079 z m 56.3873,-22.89044 c 0,-20.16357 -0.908,-24.88114 -5.7142,-29.68738 -11.0438,-11.04377 -46.6624,-5.46575 -42.0386,6.58344 1.5981,4.16465 2.5242,4.16491 10.8666,0.003 11.4679,-5.72095 23.6041,-2.29432 24.9421,7.04234 0.8368,5.8393 -0.2429,6.37107 -12.9357,6.37107 -16.7969,0 -26.5487,6.01138 -26.5487,16.36561 0,13.86983 7.074,17.96159 30.4453,17.61027 l 20.9832,-0.31542 z m 26.8173,3.90137 c 1.058,-11.38333 3.4926,-22.25232 5.4103,-24.15331 1.9177,-1.90098 8.951,-4.3231 15.6296,-5.38248 l 12.1428,-1.92614 v 22.87246 c 0,26.37722 2.4864,30.12337 19.0864,28.75651 13.5558,-1.1162 15.579,-9.20718 2.3422,-9.36675 l -8.5714,-0.10331 -0.8395,-20.71429 -0.8394,-20.71428 h 8.6966 c 5.8255,-10e-6 8.6966,-1.41488 8.6966,-4.28573 0,-2.83454 -2.8351,-4.28571 -8.3727,-4.28571 -6.495,0 -8.5775,-1.43518 -9.2858,-6.39938 -1.3548,-9.49643 -10.913,-10.33109 -10.913,-0.95298 0,6.6928 -1.042,7.35236 -11.6164,7.35236 -6.389,0 -14.1033,1.33095 -17.1428,2.95767 -3.8095,2.03879 -5.5265,2.03879 -5.5265,0 0,-1.62672 -1.9285,-2.95767 -4.2857,-2.95767 -3.5374,0 -4.2857,5.23809 -4.2857,30 0,23.35033 0.859,30 3.8754,30 2.7288,0 4.4446,-6.1237 5.799,-20.69697 z M 98.542527,151.67376 C 92.378379,145.3611 85.928276,140.1962 84.20897,140.1962 c -1.719306,0 -8.151251,5.14631 -14.293209,11.43624 l -11.167197,11.43625 12.65132,12.89076 12.65132,12.89075 12.849435,-12.84943 12.849431,-12.84944 z m 157.934333,24.83712 12.02908,-12.25673 -12.85509,-12.61633 -12.8551,-12.61632 -11.43625,11.1672 c -6.28993,6.14196 -11.43624,12.4592 -11.43624,14.03831 0,3.05383 19.99964,24.54061 22.84211,24.54061 0.92533,0 7.0955,-5.51553 13.71149,-12.25674 z m 604.87497,-50.6004 c 0,-2.35714 -2.89286,-4.69656 -6.42857,-5.19872 -4.94769,-0.70268 -6.42858,0.49488 -6.42858,5.19872 0,4.70384 1.48089,5.9014 6.42858,5.19872 3.53571,-0.50215 6.42857,-2.84158 6.42857,-5.19872 z"
       id="path903"
       transform="matrix(0.26458333,0,0,0.26458333,-173.09279,131.10583)" />
  </g>
</svg>
